<?xml version="1.0" encoding="UTF-8" standalone="no"?>
<!-- Created with Inkscape (http://www.inkscape.org/) -->

<svg
   width="22.003019mm"
   height="8.7622929mm"
   viewBox="0 0 22.003019 8.7622929"
   version="1.1"
   id="svg1"
   xmlns:inkscape="http://www.inkscape.org/namespaces/inkscape"
   xmlns:sodipodi="http://sodipodi.sourceforge.net/DTD/sodipodi-0.dtd"
   xmlns="http://www.w3.org/2000/svg"
   xmlns:svg="http://www.w3.org/2000/svg">
  <sodipodi:namedview
     id="namedview1"
     pagecolor="#ffffff"
     bordercolor="#000000"
     borderopacity="0.25"
     inkscape:showpageshadow="2"
     inkscape:pageopacity="0.0"
     inkscape:pagecheckerboard="0"
     inkscape:deskcolor="#d1d1d1"
     inkscape:document-units="mm"
     inkscape:zoom="0.70555556"
     inkscape:cx="396.85039"
     inkscape:cy="561.25984"
     inkscape:window-width="1920"
     inkscape:window-height="1001"
     inkscape:window-x="-9"
     inkscape:window-y="-9"
     inkscape:window-maximized="1"
     inkscape:current-layer="layer1" />
  <defs
     id="defs1" />
  <g
     inkscape:label="Layer 1"
     inkscape:groupmode="layer"
     id="layer1"
     transform="translate(-16.923067,-56.725699)">
    <path
       style="font-size:48px;font-family:'Gill Sans MT';-inkscape-font-specification:'Gill Sans MT';white-space:pre;fill:#6123c4;stroke-width:1.91395"
       d="m 35.596863,61.652259 h 1.128614 v 3.736479 h -1.128614 z"
       id="path9" />
    <path
       style="font-size:48px;font-family:'Gill Sans MT';-inkscape-font-specification:'Gill Sans MT';white-space:pre;fill:#6123c4;stroke-width:8.93858"
       d="m 172.26172,250.57699 h 4.28906 v 32.74219 h -9.11719 q -4.78125,0 -7.64062,-3.02344 -2.83594,-3.02344 -2.83594,-8.10937 0,-4.75782 2.97656,-7.82813 3,-3.07031 7.64063,-3.07031 2.15625,0 4.6875,0.91406 z m 0,29.08594 v -13.66406 q -1.99219,-1.00782 -4.03125,-1.00782 -3.1875,0 -5.08594,2.08594 -1.875,2.08594 -1.875,5.625 0,3.32813 1.64063,5.13281 0.98437,1.07813 2.08593,1.45313 1.10157,0.375 3.96094,0.375 z"
       transform="matrix(0.26458333,0,0,0.26458333,-13.201191,-9.5727937)"
       id="path7" />
    <path
       id="path12"
       style="font-size:48px;font-family:'Gill Sans MT';-inkscape-font-specification:'Gill Sans MT';white-space:pre;fill:#6123c4;stroke-width:8.93858"
       d="m 26.108484,59.352966 c -0.135575,0.04745 -0.257415,0.130334 -0.390674,0.185519 -0.573945,0.268143 -1.200182,0.393556 -1.820044,0.503845 -0.221875,0.07941 0.004,0.267642 0.107487,0.348299 0.46849,0.422182 0.916984,0.879101 1.239201,1.425753 0.05325,0.07205 0.07907,0.194168 0.188102,0.19637 0.123166,0.01663 0.235242,-0.06568 0.266134,-0.183451 0.04371,-0.175537 0.02493,-0.354835 -0.0072,-0.531751 0.318186,0.342746 0.47749,0.766064 0.47749,1.26969 0,0.545703 -0.177768,0.994257 -0.5333,1.345655 -0.351399,0.347264 -0.804087,0.520898 -1.358057,0.520898 -0.558104,0 -1.014926,-0.171567 -1.370459,-0.514697 -0.355534,-0.347265 -0.533301,-0.793754 -0.533301,-1.339453 0,-0.549838 0.173633,-1.002523 0.520899,-1.358057 0.258221,-0.264371 0.570201,-0.430375 0.93586,-0.498161 -0.115792,-0.113789 -0.234314,-0.224491 -0.354501,-0.332796 -0.10348,-0.08066 -0.32936,-0.26889 -0.107487,-0.348299 0.504848,-0.21012 0.955457,-0.178714 1.412317,-0.338997 -0.158114,-0.02138 -0.321651,-0.03204 -0.490926,-0.03204 -0.876428,0 -1.606106,0.279053 -2.189013,0.837158 -0.578776,0.553968 -0.868165,1.248505 -0.868165,2.083594 0,0.826821 0.287324,1.517222 0.861963,2.071191 0.574643,0.549836 1.289847,0.824756 2.145606,0.824756 0.884698,0 1.618505,-0.270787 2.201416,-0.812353 0.582907,-0.545703 0.874365,-1.229902 0.874365,-2.052588 0,-0.84749 -0.287323,-1.550293 -0.861963,-2.108398 -0.142279,-0.139209 -0.293953,-0.2607 -0.454236,-0.365353 0.108479,-0.119657 0.208494,-0.246444 0.282154,-0.390674 0.09749,-0.15092 0.02519,-0.397853 -0.173633,-0.40566 z" />
    <path
       style="font-size:48px;font-family:'Gill Sans MT';-inkscape-font-specification:'Gill Sans MT';white-space:pre;fill:#6123c4;stroke-width:8.93858"
       d="m 118.14453,261.7567 v 4.94531 l 0.23438,-0.375 q 3.09375,-4.99219 6.1875,-4.99219 2.41406,0 5.03906,2.4375 l -2.25,3.75 q -2.22656,-2.10937 -4.125,-2.10937 -2.0625,0 -3.58594,1.96875 -1.5,1.96875 -1.5,4.66406 v 11.27344 h -4.28906 v -21.5625 z"
       transform="matrix(0.26458333,0,0,0.26458333,-13.201191,-9.5727937)"
       id="text1" />
    <path
       id="path3"
       style="color:#000000;fill:#bced09;fill-opacity:1;fill-rule:evenodd;stroke-width:0.0789013;stroke-linecap:round;stroke-linejoin:round;-inkscape-stroke:none"
       d="m 38.6878,56.820665 c -0.05755,0.0023 -0.116084,0.01904 -0.17229,0.0413 -0.112411,0.04451 -0.232289,0.119144 -0.362916,0.214976 -0.261257,0.191666 -0.56267,0.470017 -0.858827,0.76621 -0.550229,0.550298 -1.042259,1.120352 -1.218816,1.335781 -0.164957,-0.08746 -0.425209,-0.224163 -0.684842,-0.322542 -0.149767,-0.05674 -0.290018,-0.100156 -0.41901,-0.101553 -0.0645,-7.18e-4 -0.131614,0.0085 -0.191707,0.05239 -0.06009,0.04392 -0.09416,0.124596 -0.09416,0.198797 a 0.1232962,0.1232962 0 0 0 0.04022,0.09108 c 0.500738,0.455689 0.815542,0.853823 1.35643,1.81366 a 0.1232962,0.1232962 0 0 0 0.222065,-0.0151 c 0.585365,-1.47759 1.275979,-2.401121 1.795014,-2.973607 0.259517,-0.286242 0.475414,-0.483683 0.619348,-0.6232 0.07197,-0.06976 0.125462,-0.122108 0.164583,-0.179378 0.01956,-0.02864 0.03967,-0.05943 0.04299,-0.111418 0.0033,-0.05161 -0.0338,-0.117192 -0.0732,-0.143162 -0.05178,-0.03437 -0.10778,-0.04657 -0.164891,-0.04423 z" />
  </g>
</svg>
