<?xml version="1.0" encoding="UTF-8" standalone="no"?>
<!DOCTYPE svg PUBLIC "-//W3C//DTD SVG 1.1//EN" "http://www.w3.org/Graphics/SVG/1.1/DTD/svg11.dtd">
<svg width="100%" height="100%" viewBox="0 0 391 71" version="1.1" xmlns="http://www.w3.org/2000/svg" xmlns:xlink="http://www.w3.org/1999/xlink" xml:space="preserve" xmlns:serif="http://www.serif.com/" style="fill-rule:evenodd;clip-rule:evenodd;stroke-linejoin:round;stroke-miterlimit:2;">
    <g transform="matrix(1,0,0,1,-771.532,-174.616)">
        <g id="Page-2" serif:id="Page 2" transform="matrix(1,0,0,1,669.375,0)">
            <rect x="0" y="0" width="595" height="420" style="fill:none;"/>
            <g id="Laag-1" serif:id="Laag 1">
                <g transform="matrix(1,0,0,1,165.728,218.345)">
                    <path d="M0,-18.893L0,-24.435L24.561,-24.435L24.561,-18.893L15.577,-18.893L15.577,5.542L8.985,5.542L8.985,-18.893L0,-18.893Z" style="fill:rgb(7,98,66);fill-rule:nonzero;"/>
                </g>
                <g transform="matrix(1,0,0,1,194.088,210.431)">
                    <path d="M0,5.164C0.168,5.99 0.455,6.732 0.861,7.389C1.266,8.047 1.805,8.572 2.477,8.964C3.149,9.356 3.989,9.551 4.996,9.551C6.004,9.551 6.85,9.356 7.536,8.964C8.222,8.572 8.768,8.047 9.174,7.389C9.579,6.732 9.867,5.99 10.035,5.164C10.202,4.339 10.286,3.492 10.286,2.624C10.286,1.757 10.202,0.903 10.035,0.063C9.867,-0.777 9.579,-1.518 9.174,-2.162C8.768,-2.806 8.222,-3.331 7.536,-3.737C6.85,-4.142 6.004,-4.346 4.996,-4.346C3.989,-4.346 3.149,-4.142 2.477,-3.737C1.805,-3.331 1.266,-2.806 0.861,-2.162C0.455,-1.518 0.168,-0.777 0,0.063C-0.168,0.903 -0.252,1.757 -0.252,2.624C-0.252,3.492 -0.168,4.339 0,5.164M-5.416,-2.099C-4.885,-3.512 -4.129,-4.716 -3.149,-5.71C-2.169,-6.703 -0.994,-7.473 0.378,-8.019C1.749,-8.565 3.289,-8.838 4.996,-8.838C6.703,-8.838 8.25,-8.565 9.636,-8.019C11.021,-7.473 12.203,-6.703 13.183,-5.71C14.163,-4.716 14.919,-3.512 15.45,-2.099C15.982,-0.686 16.248,0.889 16.248,2.624C16.248,4.36 15.982,5.927 15.45,7.326C14.919,8.726 14.163,9.923 13.183,10.916C12.203,11.91 11.021,12.673 9.636,13.204C8.25,13.735 6.703,14.002 4.996,14.002C3.289,14.002 1.749,13.735 0.378,13.204C-0.994,12.673 -2.169,11.91 -3.149,10.916C-4.129,9.923 -4.885,8.726 -5.416,7.326C-5.948,5.927 -6.214,4.36 -6.214,2.624C-6.214,0.889 -5.948,-0.686 -5.416,-2.099" style="fill:rgb(7,98,66);fill-rule:nonzero;"/>
                </g>
                <g transform="matrix(1,0,0,1,226.798,218.765)">
                    <path d="M0,-11.504C-0.714,-12.287 -1.799,-12.68 -3.254,-12.68C-4.206,-12.68 -4.996,-12.518 -5.626,-12.197C-6.256,-11.875 -6.76,-11.476 -7.138,-11C-7.515,-10.524 -7.782,-10.02 -7.935,-9.489C-8.089,-8.957 -8.181,-8.481 -8.208,-8.061L1.49,-8.061C1.21,-9.573 0.714,-10.72 0,-11.504M-6.739,-0.084C-5.843,0.784 -4.555,1.217 -2.876,1.217C-1.673,1.217 -0.637,0.917 0.231,0.315C1.098,-0.287 1.63,-0.924 1.826,-1.595L7.074,-1.595C6.235,1.007 4.947,2.869 3.212,3.988C1.476,5.108 -0.623,5.668 -3.086,5.668C-4.793,5.668 -6.333,5.395 -7.704,4.849C-9.076,4.303 -10.238,3.527 -11.189,2.519C-12.141,1.511 -12.876,0.308 -13.393,-1.092C-13.911,-2.491 -14.17,-4.031 -14.17,-5.71C-14.17,-7.333 -13.904,-8.844 -13.372,-10.244C-12.841,-11.644 -12.085,-12.854 -11.105,-13.876C-10.126,-14.897 -8.957,-15.703 -7.599,-16.29C-6.242,-16.878 -4.738,-17.172 -3.086,-17.172C-1.239,-17.172 0.371,-16.815 1.742,-16.101C3.113,-15.388 4.24,-14.428 5.122,-13.225C6.004,-12.022 6.64,-10.65 7.032,-9.111C7.424,-7.571 7.564,-5.962 7.452,-4.283L-8.208,-4.283C-8.124,-2.351 -7.635,-0.951 -6.739,-0.084" style="fill:rgb(7,98,66);fill-rule:nonzero;"/>
                </g>
                <g transform="matrix(1,0,0,1,249.02,217.589)">
                    <path d="M0,-15.408L0,-11.42L-4.366,-11.42L-4.366,-0.672C-4.366,0.336 -4.198,1.008 -3.862,1.344C-3.527,1.68 -2.855,1.848 -1.847,1.848C-1.511,1.848 -1.19,1.834 -0.882,1.806C-0.574,1.778 -0.28,1.736 0,1.68L0,6.298C-0.504,6.382 -1.064,6.438 -1.679,6.466C-2.295,6.493 -2.897,6.508 -3.485,6.508C-4.408,6.508 -5.283,6.445 -6.109,6.319C-6.935,6.193 -7.662,5.948 -8.292,5.584C-8.922,5.221 -9.419,4.703 -9.782,4.031C-10.147,3.359 -10.328,2.477 -10.328,1.386L-10.328,-11.42L-13.939,-11.42L-13.939,-15.408L-10.328,-15.408L-10.328,-21.916L-4.366,-21.916L-4.366,-15.408L0,-15.408Z" style="fill:rgb(7,98,66);fill-rule:nonzero;"/>
                </g>
                <g transform="matrix(1,0,0,1,256.808,207.534)">
                    <path d="M0,10.958C0.266,11.42 0.609,11.798 1.029,12.092C1.449,12.385 1.932,12.603 2.477,12.742C3.023,12.883 3.59,12.952 4.178,12.952C4.597,12.952 5.038,12.904 5.5,12.805C5.962,12.708 6.382,12.553 6.76,12.344C7.138,12.134 7.452,11.854 7.704,11.504C7.956,11.154 8.082,10.713 8.082,10.181C8.082,9.286 7.487,8.614 6.298,8.166C5.108,7.719 3.449,7.27 1.323,6.823C0.455,6.627 -0.392,6.396 -1.217,6.13C-2.043,5.864 -2.778,5.514 -3.422,5.08C-4.066,4.646 -4.584,4.101 -4.975,3.443C-5.368,2.785 -5.563,1.98 -5.563,1.029C-5.563,-0.371 -5.29,-1.518 -4.744,-2.414C-4.198,-3.31 -3.478,-4.016 -2.582,-4.534C-1.687,-5.052 -0.679,-5.416 0.441,-5.626C1.56,-5.836 2.708,-5.941 3.884,-5.941C5.059,-5.941 6.2,-5.829 7.305,-5.605C8.411,-5.381 9.398,-5.003 10.266,-4.472C11.133,-3.939 11.854,-3.233 12.428,-2.351C13.001,-1.469 13.344,-0.357 13.456,0.987L7.788,0.987C7.704,-0.161 7.27,-0.937 6.487,-1.344C5.703,-1.749 4.779,-1.952 3.716,-1.952C3.38,-1.952 3.016,-1.932 2.624,-1.89C2.232,-1.848 1.875,-1.756 1.553,-1.617C1.232,-1.476 0.959,-1.273 0.735,-1.008C0.51,-0.741 0.399,-0.384 0.399,0.063C0.399,0.595 0.594,1.029 0.987,1.364C1.378,1.7 1.89,1.973 2.519,2.183C3.149,2.393 3.869,2.582 4.681,2.75C5.493,2.918 6.319,3.1 7.159,3.296C8.026,3.492 8.873,3.73 9.699,4.01C10.524,4.289 11.258,4.66 11.903,5.122C12.546,5.584 13.064,6.158 13.456,6.843C13.848,7.53 14.044,8.376 14.044,9.383C14.044,10.811 13.757,12.008 13.183,12.973C12.609,13.939 11.861,14.716 10.937,15.303C10.013,15.891 8.957,16.304 7.767,16.542C6.577,16.779 5.367,16.899 4.136,16.899C2.876,16.899 1.644,16.773 0.441,16.521C-0.763,16.269 -1.833,15.849 -2.771,15.261C-3.709,14.674 -4.478,13.897 -5.08,12.931C-5.682,11.966 -6.011,10.755 -6.067,9.299L-0.399,9.299C-0.399,9.944 -0.266,10.496 0,10.958" style="fill:rgb(7,98,66);fill-rule:nonzero;"/>
                </g>
                <g transform="matrix(1,0,0,1,286.932,219.605)">
                    <path d="M0,-21.203C-0.546,-21.763 -1.183,-22.043 -1.91,-22.043C-2.639,-22.043 -3.268,-21.797 -3.8,-21.308C-4.332,-20.818 -4.597,-20.181 -4.597,-19.398C-4.597,-18.446 -4.346,-17.634 -3.842,-16.962C-3.338,-16.291 -2.807,-15.604 -2.246,-14.905C-1.407,-15.437 -0.686,-16.011 -0.084,-16.627C0.517,-17.242 0.819,-18.096 0.819,-19.188C0.819,-19.971 0.546,-20.643 0,-21.203M-5.563,-8.146C-6.067,-7.837 -6.515,-7.474 -6.907,-7.054C-7.299,-6.634 -7.614,-6.172 -7.851,-5.669C-8.089,-5.165 -8.208,-4.604 -8.208,-3.989C-8.208,-3.457 -8.089,-2.946 -7.851,-2.457C-7.614,-1.967 -7.299,-1.547 -6.907,-1.197C-6.515,-0.847 -6.06,-0.567 -5.542,-0.358C-5.024,-0.147 -4.486,-0.043 -3.926,-0.043C-2.862,-0.043 -1.932,-0.287 -1.134,-0.777C-0.336,-1.267 0.413,-1.904 1.113,-2.688L-4.01,-8.943C-4.542,-8.719 -5.059,-8.453 -5.563,-8.146M0.42,3.946C-0.938,4.534 -2.471,4.828 -4.178,4.828C-5.521,4.828 -6.788,4.632 -7.977,4.24C-9.167,3.848 -10.196,3.268 -11.063,2.497C-11.931,1.728 -12.616,0.791 -13.121,-0.316C-13.624,-1.421 -13.876,-2.688 -13.876,-4.115C-13.876,-5.179 -13.694,-6.151 -13.33,-7.033C-12.967,-7.915 -12.47,-8.712 -11.84,-9.426C-11.21,-10.14 -10.49,-10.776 -9.678,-11.336C-8.866,-11.896 -8.027,-12.386 -7.159,-12.806C-7.971,-13.786 -8.649,-14.765 -9.195,-15.745C-9.741,-16.724 -10.014,-17.872 -10.014,-19.188C-10.014,-20.223 -9.797,-21.161 -9.363,-22.001C-8.929,-22.84 -8.348,-23.561 -7.62,-24.163C-6.893,-24.764 -6.06,-25.226 -5.122,-25.548C-4.185,-25.87 -3.212,-26.031 -2.204,-26.031C-1.057,-26.031 0.014,-25.877 1.007,-25.569C2.001,-25.261 2.869,-24.806 3.611,-24.205C4.352,-23.603 4.94,-22.854 5.374,-21.959C5.808,-21.063 6.025,-20.027 6.025,-18.852C6.025,-17.088 5.514,-15.604 4.492,-14.401C3.47,-13.198 2.204,-12.19 0.693,-11.378L4.555,-6.634C4.863,-7.194 5.101,-7.774 5.269,-8.377C5.437,-8.978 5.563,-9.587 5.647,-10.203L10.811,-10.203C10.671,-8.859 10.363,-7.558 9.887,-6.298C9.411,-5.039 8.754,-3.877 7.914,-2.814L14.002,4.282L6.696,4.282L4.261,1.301C3.058,2.477 1.777,3.358 0.42,3.946" style="fill:rgb(7,98,66);fill-rule:nonzero;"/>
                </g>
                <g transform="matrix(1,0,0,1,324.156,223.887)">
                    <path d="M0,-29.977L0,-24.435L-14.485,-24.435L-14.485,-17.508L-1.931,-17.508L-1.931,-12.385L-14.485,-12.385L-14.485,0L-21.076,0L-21.076,-29.977L0,-29.977Z" style="fill:rgb(7,98,66);fill-rule:nonzero;"/>
                </g>
                <g transform="matrix(1,0,0,1,339.278,218.765)">
                    <path d="M0,-11.504C-0.714,-12.287 -1.799,-12.68 -3.254,-12.68C-4.206,-12.68 -4.996,-12.518 -5.626,-12.197C-6.256,-11.875 -6.76,-11.476 -7.138,-11C-7.515,-10.524 -7.782,-10.02 -7.935,-9.489C-8.089,-8.957 -8.181,-8.481 -8.208,-8.061L1.49,-8.061C1.21,-9.573 0.714,-10.72 0,-11.504M-6.739,-0.084C-5.843,0.784 -4.556,1.217 -2.876,1.217C-1.673,1.217 -0.637,0.917 0.231,0.315C1.098,-0.287 1.63,-0.924 1.826,-1.595L7.074,-1.595C6.235,1.007 4.947,2.869 3.212,3.988C1.476,5.108 -0.623,5.668 -3.086,5.668C-4.793,5.668 -6.333,5.395 -7.704,4.849C-9.076,4.303 -10.238,3.527 -11.189,2.519C-12.141,1.511 -12.876,0.308 -13.393,-1.092C-13.911,-2.491 -14.17,-4.031 -14.17,-5.71C-14.17,-7.333 -13.904,-8.844 -13.372,-10.244C-12.841,-11.644 -12.085,-12.854 -11.105,-13.876C-10.126,-14.897 -8.957,-15.703 -7.599,-16.29C-6.242,-16.878 -4.738,-17.172 -3.086,-17.172C-1.239,-17.172 0.371,-16.815 1.742,-16.101C3.113,-15.388 4.24,-14.428 5.122,-13.225C6.004,-12.022 6.64,-10.65 7.032,-9.111C7.424,-7.571 7.564,-5.962 7.452,-4.283L-8.208,-4.283C-8.124,-2.351 -7.635,-0.951 -6.739,-0.084" style="fill:rgb(7,98,66);fill-rule:nonzero;"/>
                </g>
                <g transform="matrix(1,0,0,1,363.066,218.765)">
                    <path d="M0,-11.504C-0.714,-12.287 -1.799,-12.68 -3.254,-12.68C-4.206,-12.68 -4.996,-12.518 -5.626,-12.197C-6.256,-11.875 -6.76,-11.476 -7.138,-11C-7.515,-10.524 -7.782,-10.02 -7.935,-9.489C-8.089,-8.957 -8.181,-8.481 -8.208,-8.061L1.49,-8.061C1.21,-9.573 0.714,-10.72 0,-11.504M-6.739,-0.084C-5.843,0.784 -4.556,1.217 -2.876,1.217C-1.673,1.217 -0.637,0.917 0.231,0.315C1.098,-0.287 1.63,-0.924 1.826,-1.595L7.074,-1.595C6.235,1.007 4.947,2.869 3.212,3.988C1.476,5.108 -0.623,5.668 -3.086,5.668C-4.793,5.668 -6.333,5.395 -7.704,4.849C-9.076,4.303 -10.238,3.527 -11.189,2.519C-12.141,1.511 -12.876,0.308 -13.393,-1.092C-13.911,-2.491 -14.17,-4.031 -14.17,-5.71C-14.17,-7.333 -13.904,-8.844 -13.372,-10.244C-12.841,-11.644 -12.085,-12.854 -11.105,-13.876C-10.126,-14.897 -8.957,-15.703 -7.599,-16.29C-6.242,-16.878 -4.738,-17.172 -3.086,-17.172C-1.239,-17.172 0.371,-16.815 1.742,-16.101C3.113,-15.388 4.24,-14.428 5.122,-13.225C6.004,-12.022 6.64,-10.65 7.032,-9.111C7.424,-7.571 7.564,-5.962 7.452,-4.283L-8.208,-4.283C-8.124,-2.351 -7.635,-0.951 -6.739,-0.084" style="fill:rgb(7,98,66);fill-rule:nonzero;"/>
                </g>
                <g transform="matrix(1,0,0,1,388.819,207.954)">
                    <path d="M0,2.435C-0.168,1.61 -0.455,0.882 -0.861,0.252C-1.267,-0.378 -1.792,-0.888 -2.435,-1.281C-3.079,-1.672 -3.891,-1.869 -4.87,-1.869C-5.85,-1.869 -6.676,-1.672 -7.347,-1.281C-8.019,-0.888 -8.558,-0.371 -8.964,0.273C-9.37,0.917 -9.664,1.652 -9.845,2.477C-10.028,3.303 -10.118,4.164 -10.118,5.059C-10.118,5.899 -10.021,6.738 -9.825,7.578C-9.629,8.418 -9.314,9.167 -8.88,9.824C-8.446,10.482 -7.901,11.014 -7.243,11.42C-6.585,11.826 -5.794,12.028 -4.87,12.028C-3.891,12.028 -3.072,11.833 -2.414,11.441C-1.757,11.049 -1.232,10.524 -0.84,9.866C-0.448,9.209 -0.168,8.46 0,7.62C0.168,6.78 0.252,5.913 0.252,5.017C0.252,4.122 0.168,3.261 0,2.435M0.252,13.162C-0.448,14.338 -1.365,15.184 -2.498,15.702C-3.632,16.22 -4.912,16.479 -6.34,16.479C-7.963,16.479 -9.391,16.164 -10.622,15.534C-11.854,14.904 -12.868,14.051 -13.666,12.973C-14.464,11.896 -15.066,10.657 -15.472,9.258C-15.878,7.858 -16.08,6.403 -16.08,4.891C-16.08,3.436 -15.878,2.029 -15.472,0.671C-15.066,-0.686 -14.464,-1.882 -13.666,-2.918C-12.868,-3.953 -11.868,-4.786 -10.664,-5.416C-9.461,-6.046 -8.061,-6.361 -6.466,-6.361C-5.179,-6.361 -3.954,-6.088 -2.792,-5.542C-1.631,-4.996 -0.714,-4.192 -0.042,-3.128L0.042,-3.128L0.042,-14.044L6.004,-14.044L6.004,15.933L0.336,15.933L0.336,13.162L0.252,13.162Z" style="fill:rgb(7,98,66);fill-rule:nonzero;"/>
                </g>
                <g transform="matrix(1,0,0,1,414.61,207.933)">
                    <path d="M0,2.477C-0.196,1.637 -0.504,0.896 -0.924,0.252C-1.344,-0.392 -1.868,-0.903 -2.498,-1.281C-3.128,-1.658 -3.891,-1.847 -4.786,-1.847C-5.654,-1.847 -6.41,-1.658 -7.054,-1.281C-7.698,-0.903 -8.229,-0.392 -8.649,0.252C-9.069,0.896 -9.377,1.637 -9.573,2.477C-9.769,3.317 -9.867,4.198 -9.867,5.122C-9.867,6.018 -9.769,6.885 -9.573,7.725C-9.377,8.565 -9.069,9.307 -8.649,9.95C-8.229,10.594 -7.698,11.105 -7.054,11.483C-6.41,11.861 -5.654,12.049 -4.786,12.049C-3.891,12.049 -3.128,11.861 -2.498,11.483C-1.868,11.105 -1.344,10.594 -0.924,9.95C-0.504,9.307 -0.196,8.565 0,7.725C0.195,6.885 0.294,6.018 0.294,5.122C0.294,4.198 0.195,3.317 0,2.477M-9.657,-14.023L-9.657,-3.107L-9.573,-3.107C-8.845,-4.226 -7.858,-5.045 -6.613,-5.563C-5.368,-6.081 -4.073,-6.34 -2.729,-6.34C-1.637,-6.34 -0.56,-6.116 0.504,-5.668C1.567,-5.22 2.526,-4.535 3.38,-3.611C4.233,-2.687 4.926,-1.504 5.458,-0.063C5.989,1.379 6.256,3.093 6.256,5.08C6.256,7.068 5.989,8.782 5.458,10.223C4.926,11.665 4.233,12.847 3.38,13.771C2.526,14.695 1.567,15.381 0.504,15.828C-0.56,16.276 -1.637,16.5 -2.729,16.5C-4.324,16.5 -5.752,16.248 -7.012,15.744C-8.271,15.241 -9.223,14.387 -9.867,13.183L-9.951,13.183L-9.951,15.954L-15.619,15.954L-15.619,-14.023L-9.657,-14.023Z" style="fill:rgb(7,98,66);fill-rule:nonzero;"/>
                </g>
                <g transform="matrix(1,0,0,1,437.538,212.761)">
                    <path d="M0,0.504C-0.252,0.728 -0.567,0.903 -0.945,1.029C-1.322,1.155 -1.729,1.26 -2.162,1.344C-2.596,1.428 -3.051,1.498 -3.527,1.554C-4.003,1.61 -4.478,1.68 -4.954,1.764C-5.402,1.848 -5.843,1.96 -6.277,2.099C-6.711,2.24 -7.089,2.429 -7.41,2.666C-7.732,2.904 -7.992,3.206 -8.187,3.569C-8.383,3.933 -8.481,4.395 -8.481,4.954C-8.481,5.487 -8.383,5.934 -8.187,6.298C-7.992,6.662 -7.725,6.949 -7.389,7.159C-7.053,7.369 -6.662,7.516 -6.214,7.6C-5.766,7.683 -5.304,7.725 -4.828,7.725C-3.653,7.725 -2.743,7.53 -2.099,7.137C-1.456,6.746 -0.98,6.277 -0.672,5.731C-0.364,5.185 -0.175,4.633 -0.105,4.073C-0.035,3.513 0,3.065 0,2.729L0,0.504ZM-13.771,-3.904C-13.687,-5.304 -13.337,-6.466 -12.721,-7.389C-12.106,-8.313 -11.322,-9.054 -10.37,-9.614C-9.419,-10.174 -8.348,-10.573 -7.158,-10.811C-5.969,-11.048 -4.772,-11.168 -3.569,-11.168C-2.477,-11.168 -1.372,-11.09 -0.252,-10.937C0.867,-10.783 1.89,-10.481 2.813,-10.034C3.737,-9.586 4.492,-8.964 5.08,-8.166C5.668,-7.368 5.962,-6.311 5.962,-4.996L5.962,6.298C5.962,7.278 6.018,8.216 6.13,9.111C6.242,10.007 6.438,10.679 6.718,11.126L0.672,11.126C0.56,10.79 0.468,10.448 0.399,10.098C0.329,9.748 0.28,9.391 0.252,9.027C-0.7,10.007 -1.82,10.693 -3.107,11.084C-4.395,11.476 -5.71,11.672 -7.053,11.672C-8.089,11.672 -9.055,11.546 -9.95,11.294C-10.847,11.042 -11.63,10.651 -12.302,10.118C-12.973,9.587 -13.498,8.915 -13.876,8.103C-14.254,7.292 -14.443,6.326 -14.443,5.206C-14.443,3.975 -14.226,2.96 -13.792,2.163C-13.358,1.365 -12.799,0.728 -12.112,0.252C-11.427,-0.223 -10.643,-0.58 -9.761,-0.818C-8.88,-1.056 -7.992,-1.245 -7.095,-1.385C-6.2,-1.525 -5.318,-1.637 -4.45,-1.721C-3.583,-1.805 -2.813,-1.931 -2.141,-2.099C-1.469,-2.267 -0.938,-2.512 -0.546,-2.834C-0.154,-3.155 0.028,-3.624 0,-4.24C0,-4.884 -0.105,-5.395 -0.315,-5.773C-0.525,-6.151 -0.805,-6.444 -1.154,-6.654C-1.505,-6.864 -1.91,-7.004 -2.372,-7.074C-2.834,-7.144 -3.331,-7.179 -3.862,-7.179C-5.038,-7.179 -5.962,-6.927 -6.633,-6.424C-7.305,-5.92 -7.698,-5.08 -7.809,-3.904L-13.771,-3.904Z" style="fill:rgb(7,98,66);fill-rule:nonzero;"/>
                </g>
                <g transform="matrix(1,0,0,1,457.761,219.94)">
                    <path d="M0,-13.855C-0.952,-13.855 -1.749,-13.638 -2.393,-13.204C-3.037,-12.77 -3.562,-12.21 -3.968,-11.525C-4.373,-10.838 -4.66,-10.083 -4.828,-9.258C-4.996,-8.432 -5.08,-7.613 -5.08,-6.801C-5.08,-6.017 -4.996,-5.22 -4.828,-4.408C-4.66,-3.596 -4.387,-2.861 -4.009,-2.204C-3.632,-1.546 -3.121,-1.007 -2.477,-0.588C-1.833,-0.168 -1.049,0.042 -0.126,0.042C1.302,0.042 2.4,-0.357 3.17,-1.155C3.939,-1.952 4.422,-3.023 4.618,-4.366L10.37,-4.366C9.978,-1.483 8.859,0.714 7.012,2.225C5.164,3.737 2.799,4.492 -0.084,4.492C-1.707,4.492 -3.198,4.22 -4.555,3.674C-5.913,3.128 -7.068,2.366 -8.019,1.385C-8.971,0.406 -9.713,-0.762 -10.244,-2.12C-10.776,-3.477 -11.042,-4.968 -11.042,-6.592C-11.042,-8.271 -10.797,-9.831 -10.307,-11.273C-9.818,-12.714 -9.097,-13.96 -8.145,-15.01C-7.194,-16.059 -6.032,-16.878 -4.66,-17.466C-3.289,-18.054 -1.721,-18.347 0.042,-18.347C1.329,-18.347 2.568,-18.179 3.758,-17.843C4.947,-17.508 6.011,-16.997 6.948,-16.311C7.886,-15.625 8.649,-14.771 9.237,-13.75C9.825,-12.728 10.16,-11.518 10.244,-10.118L4.408,-10.118C4.016,-12.609 2.547,-13.855 0,-13.855" style="fill:rgb(7,98,66);fill-rule:nonzero;"/>
                </g>
                <g transform="matrix(1,0,0,1,477.351,223.887)">
                    <path d="M0,-29.977L0,-13.897L7.515,-21.706L14.569,-21.706L6.382,-13.729L15.492,0L8.271,0L2.309,-9.698L0,-7.473L0,0L-5.962,0L-5.962,-29.977L0,-29.977Z" style="fill:rgb(7,98,66);fill-rule:nonzero;"/>
                </g>
                <g transform="matrix(1,0,0,1,122.991,211.71)">
                    <path d="M0,24.861C0.191,24.751 0.308,24.547 0.308,24.327L0.308,0.534C0.308,0.314 0.191,0.11 0,-0L-8.525,-4.922L-8.525,29.783L0,24.861Z" style="fill:rgb(255,180,26);fill-rule:nonzero;"/>
                </g>
                <g transform="matrix(1,0,0,1,102.465,184.994)">
                    <path d="M0,18.524C-0.191,18.634 -0.308,18.838 -0.308,19.058L-0.308,28.902L12.002,21.794L49.751,0C49.942,-0.11 50.06,-0.314 50.06,-0.535L50.06,-10.378L0,18.524Z" style="fill:rgb(255,180,26);fill-rule:nonzero;"/>
                </g>
                <g transform="matrix(1,0,0,1,132.132,219.163)">
                    <path d="M0,-12.019L0,12.13L8.525,7.208C8.715,7.098 8.833,6.894 8.833,6.674L8.833,-7.275L20.084,-13.771C20.275,-13.881 20.392,-14.085 20.392,-14.305L20.392,-24.149L0.308,-12.553C0.118,-12.443 0,-12.239 0,-12.019" style="fill:rgb(255,180,26);fill-rule:nonzero;"/>
                </g>
                <g transform="matrix(1,0,0,1,379.857,233.901)">
                    <path d="M0,11.309L-3.976,0L-2.361,0L0.871,9.805L0.903,9.805L4.166,0L5.734,0L1.711,11.309L0,11.309Z" style="fill:rgb(7,98,66);fill-rule:nonzero;"/>
                </g>
                <g transform="matrix(-1,0,0,1,774.65,59.111)">
                    <rect x="386.652" y="174.79" width="1.346" height="11.309" style="fill:rgb(7,98,66);"/>
                </g>
                <g transform="matrix(1,0,0,1,395.159,241.233)">
                    <path d="M0,-0.252C-0.169,-0.127 -0.391,-0.034 -0.665,0.024C-0.94,0.081 -1.228,0.129 -1.529,0.165C-1.829,0.202 -2.133,0.244 -2.44,0.292C-2.746,0.339 -3.02,0.415 -3.263,0.521C-3.506,0.625 -3.704,0.775 -3.857,0.97C-4.011,1.164 -4.087,1.43 -4.087,1.765C-4.087,1.986 -4.042,2.172 -3.952,2.325C-3.863,2.477 -3.747,2.602 -3.604,2.695C-3.461,2.79 -3.295,2.858 -3.105,2.901C-2.915,2.943 -2.714,2.964 -2.503,2.964C-2.06,2.964 -1.679,2.903 -1.362,2.782C-1.045,2.661 -0.787,2.509 -0.586,2.325C-0.386,2.142 -0.238,1.941 -0.143,1.726C-0.048,1.511 0,1.308 0,1.119L0,-0.252ZM2.186,3.945C1.953,4.083 1.631,4.151 1.219,4.151C0.871,4.151 0.594,4.053 0.388,3.858C0.182,3.663 0.079,3.343 0.079,2.9C-0.291,3.343 -0.721,3.663 -1.212,3.858C-1.703,4.053 -2.233,4.151 -2.804,4.151C-3.174,4.151 -3.525,4.109 -3.857,4.024C-4.19,3.94 -4.478,3.809 -4.72,3.628C-4.964,3.449 -5.156,3.214 -5.299,2.924C-5.441,2.633 -5.513,2.282 -5.513,1.871C-5.513,1.405 -5.434,1.026 -5.275,0.73C-5.117,0.435 -4.908,0.194 -4.649,0.009C-4.391,-0.176 -4.095,-0.316 -3.762,-0.41C-3.43,-0.506 -3.089,-0.585 -2.741,-0.648C-2.371,-0.722 -2.02,-0.778 -1.687,-0.814C-1.355,-0.852 -1.061,-0.905 -0.808,-0.973C-0.555,-1.041 -0.354,-1.142 -0.206,-1.274C-0.058,-1.406 0.016,-1.599 0.016,-1.852C0.016,-2.148 -0.04,-2.386 -0.151,-2.565C-0.261,-2.745 -0.404,-2.882 -0.578,-2.977C-0.753,-3.071 -0.948,-3.135 -1.164,-3.167C-1.381,-3.199 -1.595,-3.214 -1.806,-3.214C-2.376,-3.214 -2.851,-3.106 -3.232,-2.89C-3.612,-2.673 -3.818,-2.264 -3.849,-1.662L-5.196,-1.662C-5.175,-2.169 -5.069,-2.597 -4.879,-2.945C-4.689,-3.294 -4.435,-3.576 -4.118,-3.792C-3.802,-4.009 -3.44,-4.165 -3.033,-4.26C-2.627,-4.355 -2.192,-4.403 -1.727,-4.403C-1.357,-4.403 -0.99,-4.375 -0.626,-4.324C-0.261,-4.271 0.068,-4.163 0.364,-3.999C0.66,-3.836 0.897,-3.606 1.077,-3.311C1.256,-3.016 1.346,-2.632 1.346,-2.158L1.346,2.047C1.346,2.363 1.365,2.595 1.402,2.742C1.439,2.89 1.563,2.964 1.774,2.964C1.89,2.964 2.028,2.943 2.186,2.9L2.186,3.945Z" style="fill:rgb(7,98,66);fill-rule:nonzero;"/>
                </g>
                <g transform="matrix(1,0,0,1,403.665,241.233)">
                    <path d="M0,-0.252C-0.169,-0.127 -0.391,-0.034 -0.665,0.024C-0.94,0.081 -1.228,0.129 -1.529,0.165C-1.829,0.202 -2.133,0.244 -2.44,0.292C-2.746,0.339 -3.02,0.415 -3.263,0.521C-3.506,0.625 -3.704,0.775 -3.857,0.97C-4.011,1.164 -4.087,1.43 -4.087,1.765C-4.087,1.986 -4.042,2.172 -3.952,2.325C-3.863,2.477 -3.747,2.602 -3.604,2.695C-3.461,2.79 -3.295,2.858 -3.105,2.901C-2.915,2.943 -2.714,2.964 -2.503,2.964C-2.06,2.964 -1.679,2.903 -1.362,2.782C-1.045,2.661 -0.787,2.509 -0.586,2.325C-0.386,2.142 -0.238,1.941 -0.142,1.726C-0.048,1.511 0,1.308 0,1.119L0,-0.252ZM2.186,3.945C1.953,4.083 1.631,4.151 1.219,4.151C0.871,4.151 0.594,4.053 0.388,3.858C0.182,3.663 0.079,3.343 0.079,2.9C-0.29,3.343 -0.721,3.663 -1.212,3.858C-1.703,4.053 -2.233,4.151 -2.804,4.151C-3.174,4.151 -3.525,4.109 -3.857,4.024C-4.19,3.94 -4.478,3.809 -4.72,3.628C-4.964,3.449 -5.156,3.214 -5.299,2.924C-5.441,2.633 -5.513,2.282 -5.513,1.871C-5.513,1.405 -5.434,1.026 -5.275,0.73C-5.117,0.435 -4.908,0.194 -4.649,0.009C-4.391,-0.176 -4.095,-0.316 -3.762,-0.41C-3.43,-0.506 -3.089,-0.585 -2.741,-0.648C-2.371,-0.722 -2.02,-0.778 -1.687,-0.814C-1.355,-0.852 -1.061,-0.905 -0.808,-0.973C-0.555,-1.041 -0.354,-1.142 -0.206,-1.274C-0.058,-1.406 0.016,-1.599 0.016,-1.852C0.016,-2.148 -0.04,-2.386 -0.151,-2.565C-0.261,-2.745 -0.404,-2.882 -0.578,-2.977C-0.753,-3.071 -0.948,-3.135 -1.164,-3.167C-1.381,-3.199 -1.595,-3.214 -1.806,-3.214C-2.376,-3.214 -2.851,-3.106 -3.231,-2.89C-3.612,-2.673 -3.817,-2.264 -3.849,-1.662L-5.196,-1.662C-5.175,-2.169 -5.069,-2.597 -4.879,-2.945C-4.689,-3.294 -4.435,-3.576 -4.118,-3.792C-3.802,-4.009 -3.44,-4.165 -3.033,-4.26C-2.627,-4.355 -2.192,-4.403 -1.727,-4.403C-1.357,-4.403 -0.99,-4.375 -0.626,-4.324C-0.261,-4.271 0.068,-4.163 0.364,-3.999C0.66,-3.836 0.897,-3.606 1.077,-3.311C1.256,-3.016 1.346,-2.632 1.346,-2.158L1.346,2.047C1.346,2.363 1.365,2.595 1.402,2.742C1.439,2.89 1.563,2.964 1.774,2.964C1.89,2.964 2.028,2.943 2.186,2.9L2.186,3.945Z" style="fill:rgb(7,98,66);fill-rule:nonzero;"/>
                </g>
                <g transform="matrix(1,0,0,1,408.369,245.021)">
                    <path d="M0,-8L0,-6.7L0.031,-6.7C0.591,-7.693 1.478,-8.19 2.693,-8.19C3.231,-8.19 3.68,-8.116 4.039,-7.968C4.398,-7.821 4.689,-7.614 4.91,-7.351C5.132,-7.087 5.288,-6.772 5.377,-6.408C5.467,-6.043 5.512,-5.64 5.512,-5.196L5.512,0.19L4.166,0.19L4.166,-5.354C4.166,-5.862 4.018,-6.262 3.722,-6.558C3.426,-6.853 3.02,-7.002 2.502,-7.002C2.091,-7.002 1.734,-6.938 1.433,-6.812C1.132,-6.685 0.881,-6.506 0.681,-6.273C0.48,-6.041 0.33,-5.768 0.229,-5.458C0.129,-5.145 0.079,-4.805 0.079,-4.436L0.079,0.19L-1.268,0.19L-1.268,-8L0,-8Z" style="fill:rgb(7,98,66);fill-rule:nonzero;"/>
                </g>
                <g transform="matrix(1,0,0,1,417.041,236.981)">
                    <path d="M0,5.323C0.1,5.687 0.253,6.012 0.459,6.297C0.665,6.582 0.929,6.809 1.251,6.978C1.573,7.146 1.951,7.231 2.384,7.231C2.838,7.231 3.223,7.142 3.54,6.962C3.857,6.782 4.116,6.548 4.317,6.257C4.517,5.967 4.662,5.637 4.752,5.267C4.841,4.897 4.887,4.523 4.887,4.142C4.887,3.742 4.839,3.353 4.744,2.978C4.649,2.604 4.499,2.274 4.292,1.989C4.087,1.704 3.82,1.474 3.493,1.3C3.165,1.125 2.769,1.038 2.305,1.038C1.85,1.038 1.465,1.128 1.148,1.307C0.831,1.487 0.578,1.724 0.388,2.019C0.198,2.315 0.061,2.653 -0.024,3.034C-0.108,3.414 -0.151,3.804 -0.151,4.206C-0.151,4.586 -0.101,4.959 0,5.323M4.839,8.229L4.839,7.12L4.807,7.12C4.586,7.575 4.237,7.902 3.762,8.103C3.287,8.303 2.764,8.403 2.194,8.403C1.56,8.403 1.008,8.288 0.539,8.055C0.068,7.823 -0.322,7.512 -0.634,7.12C-0.945,6.729 -1.18,6.276 -1.339,5.759C-1.497,5.24 -1.576,4.691 -1.576,4.111C-1.576,3.53 -1.5,2.981 -1.346,2.464C-1.193,1.946 -0.961,1.494 -0.649,1.109C-0.338,0.724 0.053,0.417 0.523,0.19C0.993,-0.036 1.539,-0.151 2.162,-0.151C2.373,-0.151 2.6,-0.129 2.843,-0.087C3.086,-0.044 3.329,0.026 3.572,0.127C3.815,0.228 4.044,0.36 4.261,0.523C4.477,0.687 4.659,0.89 4.807,1.132L4.839,1.132L4.839,-3.08L6.186,-3.08L6.186,8.229L4.839,8.229Z" style="fill:rgb(7,98,66);fill-rule:nonzero;"/>
                </g>
                <g transform="matrix(1,0,0,1,430.774,242.787)">
                    <path d="M0,-3.358C-0.122,-3.643 -0.285,-3.888 -0.491,-4.094C-0.697,-4.3 -0.94,-4.464 -1.22,-4.585C-1.5,-4.707 -1.809,-4.768 -2.146,-4.768C-2.495,-4.768 -2.809,-4.707 -3.089,-4.585C-3.369,-4.464 -3.609,-4.298 -3.81,-4.087C-4.011,-3.875 -4.169,-3.63 -4.285,-3.35C-4.401,-3.07 -4.47,-2.771 -4.491,-2.455L0.214,-2.455C0.193,-2.771 0.121,-3.073 0,-3.358M0.325,1.901C-0.288,2.365 -1.059,2.598 -1.988,2.598C-2.643,2.598 -3.211,2.492 -3.691,2.281C-4.171,2.071 -4.576,1.775 -4.903,1.394C-5.23,1.014 -5.475,0.56 -5.639,0.031C-5.803,-0.496 -5.895,-1.071 -5.917,-1.694C-5.917,-2.318 -5.821,-2.888 -5.631,-3.405C-5.441,-3.923 -5.175,-4.372 -4.832,-4.752C-4.488,-5.132 -4.082,-5.428 -3.612,-5.639C-3.142,-5.849 -2.627,-5.956 -2.067,-5.956C-1.339,-5.956 -0.734,-5.805 -0.254,-5.504C0.227,-5.203 0.612,-4.821 0.903,-4.356C1.193,-3.891 1.394,-3.384 1.505,-2.835C1.615,-2.286 1.661,-1.763 1.639,-1.267L-4.491,-1.267C-4.501,-0.908 -4.459,-0.567 -4.364,-0.245C-4.269,0.077 -4.116,0.363 -3.904,0.61C-3.694,0.858 -3.424,1.056 -3.097,1.205C-2.77,1.352 -2.384,1.426 -1.941,1.426C-1.37,1.426 -0.903,1.294 -0.539,1.03C-0.174,0.767 0.065,0.365 0.182,-0.174L1.513,-0.174C1.333,0.745 0.937,1.437 0.325,1.901" style="fill:rgb(7,98,66);fill-rule:nonzero;"/>
                </g>
                <g transform="matrix(1,0,0,1,435.027,245)">
                    <path d="M0,-7.979L0,-6.252L0.032,-6.252C0.359,-6.917 0.76,-7.409 1.236,-7.725C1.711,-8.042 2.313,-8.19 3.042,-8.169L3.042,-6.743C2.503,-6.743 2.044,-6.669 1.663,-6.522C1.283,-6.373 0.977,-6.157 0.744,-5.872C0.512,-5.587 0.343,-5.241 0.238,-4.835C0.132,-4.428 0.079,-3.96 0.079,-3.433L0.079,0.211L-1.267,0.211L-1.267,-7.979L0,-7.979Z" style="fill:rgb(7,98,66);fill-rule:nonzero;"/>
                </g>
                <g transform="matrix(1,0,0,1,444.27,242.787)">
                    <path d="M0,-3.358C-0.122,-3.643 -0.285,-3.888 -0.491,-4.094C-0.697,-4.3 -0.94,-4.464 -1.22,-4.585C-1.5,-4.707 -1.809,-4.768 -2.146,-4.768C-2.495,-4.768 -2.809,-4.707 -3.089,-4.585C-3.369,-4.464 -3.609,-4.298 -3.81,-4.087C-4.011,-3.875 -4.169,-3.63 -4.285,-3.35C-4.401,-3.07 -4.47,-2.771 -4.491,-2.455L0.214,-2.455C0.193,-2.771 0.121,-3.073 0,-3.358M0.325,1.901C-0.288,2.365 -1.059,2.598 -1.988,2.598C-2.643,2.598 -3.211,2.492 -3.691,2.281C-4.171,2.071 -4.576,1.775 -4.903,1.394C-5.23,1.014 -5.475,0.56 -5.639,0.031C-5.803,-0.496 -5.895,-1.071 -5.917,-1.694C-5.917,-2.318 -5.821,-2.888 -5.631,-3.405C-5.441,-3.923 -5.175,-4.372 -4.832,-4.752C-4.488,-5.132 -4.082,-5.428 -3.612,-5.639C-3.142,-5.849 -2.627,-5.956 -2.067,-5.956C-1.339,-5.956 -0.734,-5.805 -0.254,-5.504C0.227,-5.203 0.612,-4.821 0.903,-4.356C1.193,-3.891 1.394,-3.384 1.505,-2.835C1.615,-2.286 1.661,-1.763 1.639,-1.267L-4.491,-1.267C-4.501,-0.908 -4.459,-0.567 -4.364,-0.245C-4.269,0.077 -4.116,0.363 -3.904,0.61C-3.694,0.858 -3.424,1.056 -3.097,1.205C-2.77,1.352 -2.384,1.426 -1.941,1.426C-1.37,1.426 -0.903,1.294 -0.539,1.03C-0.174,0.767 0.065,0.365 0.182,-0.174L1.513,-0.174C1.333,0.745 0.937,1.437 0.325,1.901" style="fill:rgb(7,98,66);fill-rule:nonzero;"/>
                </g>
                <g transform="matrix(1,0,0,1,448.571,245.021)">
                    <path d="M0,-8L0,-6.7L0.031,-6.7C0.591,-7.693 1.478,-8.19 2.693,-8.19C3.231,-8.19 3.68,-8.116 4.039,-7.968C4.398,-7.821 4.689,-7.614 4.91,-7.351C5.132,-7.087 5.288,-6.772 5.377,-6.408C5.467,-6.043 5.512,-5.64 5.512,-5.196L5.512,0.19L4.166,0.19L4.166,-5.354C4.166,-5.862 4.018,-6.262 3.722,-6.558C3.426,-6.853 3.02,-7.002 2.502,-7.002C2.091,-7.002 1.734,-6.938 1.433,-6.812C1.132,-6.685 0.881,-6.506 0.681,-6.273C0.48,-6.041 0.33,-5.768 0.229,-5.458C0.129,-5.145 0.079,-4.805 0.079,-4.436L0.079,0.19L-1.268,0.19L-1.268,-8L0,-8Z" style="fill:rgb(7,98,66);fill-rule:nonzero;"/>
                </g>
                <g transform="matrix(1,0,0,1,463.127,233.901)">
                    <path d="M0,11.309L-3.976,0L-2.361,0L0.871,9.805L0.903,9.805L4.166,0L5.734,0L1.711,11.309L0,11.309Z" style="fill:rgb(7,98,66);fill-rule:nonzero;"/>
                </g>
                <g transform="matrix(1,0,0,1,488.25,233.901)">
                    <path d="M0,11.309L-2.582,1.804L-2.614,1.804L-5.227,11.309L-6.795,11.309L-9.695,0L-8.158,0L-5.94,9.409L-5.908,9.409L-3.374,0L-1.743,0L0.76,9.409L0.792,9.409L3.089,0L4.594,0L1.568,11.309L0,11.309Z" style="fill:rgb(7,98,66);fill-rule:nonzero;"/>
                </g>
                <g transform="matrix(1,0,0,1,476.053,243.944)">
                    <path d="M0,-8.776L-6.494,-8.776L-6.494,-10.043L1.774,-10.043L1.774,-8.776L-5.243,-0.001L1.964,-0.001L1.964,1.267L-7.033,1.267L-7.033,-0.001L0,-8.776Z" style="fill:rgb(7,98,66);fill-rule:nonzero;"/>
                </g>
            </g>
        </g>
    </g>
</svg>
