<?xml version="1.0" encoding="UTF-8" standalone="no"?>
<!-- Created with Inkscape (http://www.inkscape.org/) -->

<svg
   width="110"
   height="100"
   viewBox="0 0 29.103801 26.458001"
   version="1.1"
   id="svg1"
   xmlns="http://www.w3.org/2000/svg"
   xmlns:svg="http://www.w3.org/2000/svg">
  <defs
     id="defs1">
        
        
        
        
        
        
        
        
        
        
        
        
        
        
        
        
        
        
        
        
        
        
        
        
        
        
        
        
        
    </defs>
  <g
     id="layer1">
    <g
       transform="matrix(0.09928941,0,0,0.09928941,-469.26747,-40.825389)"
       id="g3"
       style="clip-rule:evenodd;fill-rule:evenodd;stroke-linejoin:round;stroke-miterlimit:2">
            <path
   d="m 4948.61,557.58 c 0,5.459 -4.43,9.886 -9.89,9.886 -5.46,0 -9.88,-4.427 -9.88,-9.886 0,-5.456 4.42,-9.881 9.88,-9.881 5.46,0 9.89,4.425 9.89,9.881 z m -4.87,-31.745 h -8.92 l -0.66,7.919 c -2.91,0.556 -5.64,1.629 -8.09,3.127 l -6.25,-5.291 -6.3,6.301 5.13,6.065 c -1.62,2.379 -2.82,5.056 -3.51,7.932 l -8.16,0.68 v 8.911 l 7.92,0.662 c 0.55,2.914 1.62,5.647 3.12,8.092 l -5.29,6.253 6.3,6.301 6.07,-5.135 c 2.37,1.617 5.05,2.817 7.93,3.509 l 0.68,8.166 8.91,0.002 0.66,-7.923 c 2.92,-0.555 5.65,-1.625 8.09,-3.123 l 6.26,5.292 6.3,-6.301 -5.14,-6.069 c 1.62,-2.374 2.82,-5.051 3.51,-7.931 l 8.17,-0.681 v -8.911 l -7.92,-0.661 c -0.56,-2.915 -1.63,-5.645 -3.13,-8.09 l 5.29,-6.25 -6.3,-6.305 -6.06,5.134 c -2.38,-1.618 -5.06,-2.817 -7.93,-3.51 z"
   style="fill:#000010;fill-rule:nonzero"
   id="path1" />

        </g>
    <g
       transform="matrix(0.09928941,0,0,0.09928941,-469.26747,-40.825389)"
       id="g4"
       style="clip-rule:evenodd;fill-rule:evenodd;stroke-linejoin:round;stroke-miterlimit:2">
            <path
   d="m 4764.8,544.312 c 3.11,-3.109 6.89,-4.669 11.32,-4.669 4.37,0 8.13,1.56 11.27,4.669 3.14,3.107 4.71,6.876 4.71,11.312 0,4.435 -1.57,8.205 -4.71,11.315 -3.14,3.112 -6.9,4.665 -11.27,4.665 -4.43,0 -8.21,-1.553 -11.32,-4.665 -3.11,-3.11 -4.66,-6.88 -4.66,-11.315 0,-4.436 1.55,-8.205 4.66,-11.312 z m -14.27,-97.127 c 5.85,-5.663 14.72,-8.497 26.6,-8.497 11.89,0 21.17,2.912 27.86,8.731 6.67,5.817 10.02,13.255 10.02,22.302 0,4.25 -0.68,8.039 -2.04,11.366 -2.46,6.096 -7.11,11.423 -13.94,15.98 -2.71,1.723 -4.56,2.907 -5.55,3.556 -0.98,0.645 -2.97,1.89 -5.95,3.741 -2.99,1.844 -5.11,3.938 -6.38,6.28 -1.26,2.339 -2.07,7.173 -2.44,14.498 h -5.64 l -0.18,-8.035 c 0,-5.417 2.32,-12.345 6.97,-20.781 4.65,-8.436 6.97,-17.364 6.97,-26.786 0,-7.635 -1.32,-13.547 -3.97,-17.737 -2.65,-4.183 -6.9,-6.277 -12.74,-6.277 -3.82,0 -6.55,0.815 -8.18,2.444 -1.63,1.635 -2.45,3.374 -2.45,5.22 0,0.803 0.13,1.448 0.37,1.94 0.25,0.495 0.71,1.143 1.39,1.939 l 1.29,1.572 c 1.42,1.722 2.42,3.292 3,4.71 0.59,1.415 0.88,3.203 0.88,5.356 0,3.512 -1.17,6.313 -3.51,8.404 -2.34,2.096 -5.14,3.144 -8.4,3.144 -3.45,0 -6.44,-1.251 -8.96,-3.743 -2.53,-2.495 -3.79,-6.11 -3.79,-10.853 0,-6.65 2.92,-12.803 8.77,-18.474 z"
   style="fill-rule:nonzero"
   id="path2" />

        </g>
    <g
       transform="matrix(0.09928941,0,0,0.09928941,-469.26747,-40.825389)"
       id="g5"
       style="clip-rule:evenodd;fill-rule:evenodd;stroke-linejoin:round;stroke-miterlimit:2">
            <path
   d="m 4888.13,510.195 h -74.49 c -11.14,0 -20.17,-9.033 -20.17,-20.175 0,-11.141 9.03,-20.174 20.17,-20.174 h 74.49 c 11.14,0 20.18,9.033 20.18,20.174 0,11.142 -9.04,20.175 -20.18,20.175 z"
   style="fill:#bced09;fill-rule:nonzero"
   id="path3" />

        </g>
    <g
       transform="matrix(0.09928941,0,0,0.09928941,-469.26747,-40.825389)"
       id="g6"
       style="clip-rule:evenodd;fill-rule:evenodd;stroke-linejoin:round;stroke-miterlimit:2">
            <path
   d="m 4903.43,661.722 -15.74,-25.273 -16.14,-4.654 c -11.93,-3.442 -22.31,-10.899 -29.38,-21.109 l -20.15,-29.113 c -2.21,-3.195 -0.27,-7.598 3.58,-8.123 3.99,-0.544 8.03,0.495 11.27,2.895 l 20.82,15.448 c 6.79,5.042 16.5,0.788 17.39,-7.626 0.85,-8.026 -0.32,-16.137 -3.41,-23.593 l -25.46,-61.405 c -1.69,-4.08 -1.67,-8.668 0.05,-12.736 1.02,-2.4 4.19,-2.922 5.92,-0.974 l 3.36,3.785 v -4.478 c 0,-2.711 2.12,-4.95 4.83,-5.101 1.93,-0.107 3.76,0.888 4.72,2.57 l 32.57,57.112 -19.8,-48.324 c -1.38,-3.373 -0.24,-7.254 2.74,-9.344 1.98,-1.384 4.72,-0.68 5.79,1.485 l 29.01,58.844 -1.76,-30.892 c -0.28,-4.974 2.29,-9.675 6.64,-12.117 l 35.02,121.932 48.33,42.565 z"
   style="fill:#ffffff;fill-rule:nonzero"
   id="path4" />

        </g>
    <g
       transform="matrix(0.09928941,0,0,0.09928941,-469.26747,-40.825389)"
       id="g7"
       style="clip-rule:evenodd;fill-rule:evenodd;stroke-linejoin:round;stroke-miterlimit:2">
            <path
   d="m 5003.63,664.496 c -0.23,0 -0.47,-0.082 -0.66,-0.25 l -48.33,-42.565 c -0.14,-0.126 -0.24,-0.291 -0.3,-0.474 L 4919.69,500.56 c -3.33,2.379 -5.28,6.371 -5.05,10.499 l 1.76,30.892 c 0.02,0.474 -0.29,0.903 -0.75,1.024 -0.46,0.12 -0.94,-0.1 -1.15,-0.525 l -29,-58.844 c -0.38,-0.77 -1.08,-1.334 -1.91,-1.547 -0.83,-0.213 -1.71,-0.054 -2.41,0.439 -2.63,1.835 -3.61,5.185 -2.4,8.145 l 19.81,48.325 c 0.2,0.488 -0.01,1.047 -0.49,1.278 -0.47,0.229 -1.04,0.054 -1.3,-0.403 l -32.58,-57.112 c -0.78,-1.363 -2.24,-2.159 -3.8,-2.067 -2.17,0.12 -3.88,1.923 -3.88,4.102 v 4.478 c 0,0.415 -0.26,0.787 -0.64,0.935 -0.39,0.148 -0.83,0.041 -1.11,-0.271 l -3.36,-3.785 c -0.58,-0.657 -1.45,-0.965 -2.32,-0.821 -0.86,0.143 -1.59,0.712 -1.93,1.521 -1.6,3.795 -1.62,8.156 -0.04,11.964 l 25.46,61.405 c 3.14,7.586 4.34,15.913 3.47,24.081 -0.45,4.313 -3.1,7.927 -7.07,9.669 -3.98,1.743 -8.42,1.238 -11.91,-1.346 l -20.82,-15.448 c -3.04,-2.259 -6.78,-3.219 -10.54,-2.707 -1.46,0.199 -2.69,1.124 -3.28,2.473 -0.59,1.349 -0.45,2.878 0.39,4.09 l 20.16,29.113 c 6.91,9.992 17.15,17.349 28.83,20.717 l 16.14,4.654 c 0.23,0.069 0.44,0.223 0.57,0.433 l 15.74,25.272 c 0.29,0.469 0.15,1.086 -0.32,1.378 -0.47,0.292 -1.09,0.149 -1.38,-0.32 l -15.54,-24.947 -15.77,-4.549 c -12.11,-3.495 -22.74,-11.13 -29.92,-21.5 l -20.15,-29.113 c -1.24,-1.788 -1.46,-4.044 -0.58,-6.034 0.88,-1.991 2.69,-3.354 4.84,-3.648 4.27,-0.585 8.54,0.511 12,3.082 l 20.82,15.448 c 2.91,2.152 6.61,2.57 9.92,1.12 3.3,-1.45 5.5,-4.459 5.89,-8.049 0.83,-7.836 -0.32,-15.825 -3.34,-23.104 l -25.46,-61.405 c -1.78,-4.299 -1.76,-9.223 0.05,-13.508 0.61,-1.445 1.9,-2.46 3.45,-2.715 1.54,-0.255 3.09,0.292 4.13,1.465 l 1.62,1.819 v -1.847 c 0,-3.24 2.54,-5.92 5.77,-6.099 2.32,-0.133 4.49,1.047 5.65,3.073 l 24.93,43.705 -13.96,-34.043 c -1.57,-3.832 -0.29,-8.168 3.1,-10.543 1.18,-0.827 2.66,-1.097 4.06,-0.737 1.39,0.358 2.56,1.305 3.2,2.599 l 26.83,54.433 -1.47,-25.982 c -0.31,-5.314 2.5,-10.435 7.14,-13.044 0.26,-0.15 0.58,-0.169 0.87,-0.054 0.28,0.116 0.49,0.355 0.58,0.649 l 34.94,121.651 48.11,42.371 c 0.42,0.365 0.46,0.997 0.09,1.412 -0.19,0.224 -0.47,0.339 -0.75,0.339 z"
   style="fill-rule:nonzero"
   id="path5" />

        </g>
    <g
       transform="matrix(0.09928941,0,0,0.09928941,-469.26747,-40.825389)"
       id="g8"
       style="clip-rule:evenodd;fill-rule:evenodd;stroke-linejoin:round;stroke-miterlimit:2">
            <path
   d="m 4884.36,542.564 c -0.38,0 -0.74,-0.216 -0.91,-0.582 l -15.03,-32.727 -13.7,-19.435 c -0.31,-0.451 -0.21,-1.075 0.25,-1.393 0.45,-0.318 1.07,-0.21 1.39,0.241 l 13.74,19.509 c 0.04,0.051 0.07,0.103 0.09,0.159 l 15.08,32.811 c 0.23,0.502 0.01,1.095 -0.49,1.326 -0.14,0.062 -0.28,0.091 -0.42,0.091 z"
   style="fill-rule:nonzero"
   id="path6" />

        </g>
    <g
       transform="matrix(0.09928941,0,0,0.09928941,-469.26747,-40.825389)"
       id="g9"
       style="clip-rule:evenodd;fill-rule:evenodd;stroke-linejoin:round;stroke-miterlimit:2">
            <path
   d="m 4959.06,481.918 c -11.18,0 -20.28,9.095 -20.28,20.275 0,11.18 9.1,20.276 20.28,20.276 11.18,0 20.28,-9.096 20.28,-20.276 0,-11.18 -9.1,-20.275 -20.28,-20.275 z m 0,42.551 c -12.28,0 -22.28,-9.993 -22.28,-22.276 0,-12.283 10,-22.275 22.28,-22.275 12.28,0 22.28,9.992 22.28,22.275 0,12.283 -10,22.276 -22.28,22.276 z"
   style="fill-rule:nonzero"
   id="path7" />

        </g>
    <g
       transform="matrix(0.09928941,0,0,0.09928941,-469.26747,-40.825389)"
       id="g10"
       style="clip-rule:evenodd;fill-rule:evenodd;stroke-linejoin:round;stroke-miterlimit:2">
            <path
   d="m 4959.06,481.918 c -6.24,0 -11.31,9.095 -11.31,20.275 0,11.18 5.07,20.276 11.31,20.276 6.23,0 11.3,-9.096 11.3,-20.276 0,-11.18 -5.07,-20.275 -11.3,-20.275 z m 0,42.551 c -7.34,0 -13.31,-9.993 -13.31,-22.276 0,-12.283 5.97,-22.275 13.31,-22.275 7.33,0 13.3,9.992 13.3,22.275 0,12.283 -5.97,22.276 -13.3,22.276 z"
   style="fill-rule:nonzero"
   id="path8" />

        </g>
    <g
       transform="matrix(0.09928941,0,0,0.09928941,-469.26747,-40.825389)"
       id="g11"
       style="clip-rule:evenodd;fill-rule:evenodd;stroke-linejoin:round;stroke-miterlimit:2">
            <path
   d="m 4960.06,481.943 v 40.501 c 10.72,-0.522 19.28,-9.406 19.28,-20.251 0,-10.845 -8.56,-19.728 -19.28,-20.25 z m -1,42.526 c -0.55,0 -1,-0.448 -1,-1 v -42.551 c 0,-0.552 0.45,-1 1,-1 12.28,0 22.28,9.992 22.28,22.275 0,12.283 -10,22.276 -22.28,22.276 z"
   style="fill-rule:nonzero"
   id="path9" />

        </g>
    <g
       transform="matrix(0.09928941,0,0,0.09928941,-469.26747,-40.825389)"
       id="g12"
       style="clip-rule:evenodd;fill-rule:evenodd;stroke-linejoin:round;stroke-miterlimit:2">
            <path
   d="m 4939.87,508.692 h 38.37 c 0.73,-2.122 1.1,-4.305 1.1,-6.499 0,-2.194 -0.37,-4.377 -1.1,-6.5 h -38.37 c -0.72,2.12 -1.09,4.304 -1.09,6.5 0,2.193 0.37,4.376 1.09,6.499 z m 39.08,2 h -39.79 c -0.41,0 -0.79,-0.258 -0.93,-0.648 -0.96,-2.552 -1.45,-5.193 -1.45,-7.851 0,-2.663 0.49,-5.305 1.45,-7.854 0.15,-0.389 0.52,-0.646 0.94,-0.646 h 39.78 c 0.41,0 0.79,0.257 0.93,0.646 0.97,2.552 1.46,5.194 1.46,7.854 0,2.66 -0.49,5.302 -1.46,7.853 -0.14,0.389 -0.52,0.646 -0.93,0.646 z"
   style="fill-rule:nonzero"
   id="path10" />

        </g>
    <g
       transform="matrix(0.09928941,0,0,0.09928941,-469.26747,-40.825389)"
       id="g13"
       style="clip-rule:evenodd;fill-rule:evenodd;stroke-linejoin:round;stroke-miterlimit:2">
            <path
   d="m 4787.26,554.083 h 55.39 v -33.057 h -8.77 v -10.384 l -11.48,10.384 h -35.14 z"
   style="fill:#ffffff;fill-rule:nonzero"
   id="path11" />

        </g>
    <g
       transform="matrix(0.09928941,0,0,0.09928941,-469.26747,-40.825389)"
       id="g14"
       style="clip-rule:evenodd;fill-rule:evenodd;stroke-linejoin:round;stroke-miterlimit:2">
            <path
   d="m 4788.26,553.083 h 53.39 v -31.057 h -7.77 c -0.55,0 -1,-0.448 -1,-1 v -8.131 l -9.81,8.872 c -0.18,0.166 -0.42,0.259 -0.67,0.259 h -34.14 z m 54.39,2 h -55.39 c -0.55,0 -1,-0.448 -1,-1 v -33.057 c 0,-0.553 0.45,-1 1,-1 h 34.76 l 11.19,-10.126 c 0.29,-0.266 0.71,-0.332 1.07,-0.172 0.37,0.16 0.6,0.518 0.6,0.914 v 9.384 h 7.77 c 0.55,0 1,0.447 1,1 v 33.057 c 0,0.552 -0.45,1 -1,1 z"
   style="fill-rule:nonzero"
   id="path12" />

        </g>
    <g
       transform="matrix(0.09928941,0,0,0.09928941,-469.26747,-40.825389)"
       id="g15"
       style="clip-rule:evenodd;fill-rule:evenodd;stroke-linejoin:round;stroke-miterlimit:2">
            <path
   d="m 4831.83,541.508 h -33.75 z"
   style="fill:#ffffff;fill-rule:nonzero"
   id="path13" />

        </g>
    <g
       transform="matrix(0.09928941,0,0,0.09928941,-469.26747,-40.825389)"
       id="g16"
       style="clip-rule:evenodd;fill-rule:evenodd;stroke-linejoin:round;stroke-miterlimit:2">
            <path
   d="m 4831.83,542.508 h -33.75 c -0.55,0 -1,-0.447 -1,-1 0,-0.552 0.45,-1 1,-1 h 33.75 c 0.55,0 1,0.448 1,1 0,0.553 -0.45,1 -1,1 z"
   style="fill-rule:nonzero"
   id="path14" />

        </g>
    <g
       transform="matrix(0.09928941,0,0,0.09928941,-469.26747,-40.825389)"
       id="g17"
       style="clip-rule:evenodd;fill-rule:evenodd;stroke-linejoin:round;stroke-miterlimit:2">
            <path
   d="m 4831.83,533.002 h -33.75 z"
   style="fill:#ffffff;fill-rule:nonzero"
   id="path15" />

        </g>
    <g
       transform="matrix(0.09928941,0,0,0.09928941,-469.26747,-40.825389)"
       id="g18"
       style="clip-rule:evenodd;fill-rule:evenodd;stroke-linejoin:round;stroke-miterlimit:2">
            <path
   d="m 4831.83,534.002 h -33.75 c -0.55,0 -1,-0.448 -1,-1 0,-0.552 0.45,-1 1,-1 h 33.75 c 0.55,0 1,0.448 1,1 0,0.552 -0.45,1 -1,1 z"
   style="fill-rule:nonzero"
   id="path16" />

        </g>
    <g
       transform="matrix(0.09928941,0,0,0.09928941,-469.26747,-40.825389)"
       id="g19"
       style="clip-rule:evenodd;fill-rule:evenodd;stroke-linejoin:round;stroke-miterlimit:2">
            <path
   d="m 4829.5,437.05 h 42.56 v 19.13 h -7.57 v 8.955 l -9.89,-8.955 h -25.1 z"
   style="fill:#ffffff;fill-rule:nonzero"
   id="path17" />

        </g>
    <g
       transform="matrix(0.09928941,0,0,0.09928941,-469.26747,-40.825389)"
       id="g20"
       style="clip-rule:evenodd;fill-rule:evenodd;stroke-linejoin:round;stroke-miterlimit:2">
            <path
   d="m 4830.5,455.18 h 24.1 c 0.24,0 0.48,0.092 0.67,0.258 l 8.22,7.443 v -6.701 c 0,-0.552 0.45,-1 1,-1 h 6.57 v -17.13 h -40.56 z m 33.99,10.955 c -0.24,0 -0.48,-0.089 -0.67,-0.258 l -9.61,-8.697 h -24.71 c -0.55,0 -1,-0.448 -1,-1 v -19.13 c 0,-0.552 0.45,-1 1,-1 h 42.56 c 0.55,0 1,0.448 1,1 v 19.13 c 0,0.552 -0.45,1 -1,1 h -6.57 v 7.955 c 0,0.395 -0.23,0.754 -0.59,0.914 -0.13,0.058 -0.27,0.086 -0.41,0.086 z"
   style="fill-rule:nonzero"
   id="path18" />

        </g>
    <g
       transform="matrix(0.09928941,0,0,0.09928941,-469.26747,-40.825389)"
       id="g21"
       style="clip-rule:evenodd;fill-rule:evenodd;stroke-linejoin:round;stroke-miterlimit:2">
            <path
   d="m 4864.81,446.851 h -29.1 z"
   style="fill:#ffffff;fill-rule:nonzero"
   id="path19" />

        </g>
    <g
       transform="matrix(0.09928941,0,0,0.09928941,-469.26747,-40.825389)"
       id="g22"
       style="clip-rule:evenodd;fill-rule:evenodd;stroke-linejoin:round;stroke-miterlimit:2">
            <path
   d="m 4864.81,447.851 h -29.1 c -0.56,0 -1,-0.448 -1,-1 0,-0.552 0.44,-1 1,-1 h 29.1 c 0.55,0 1,0.448 1,1 0,0.552 -0.45,1 -1,1 z"
   style="fill-rule:nonzero"
   id="path20" />

        </g>
    <g
       transform="matrix(0.09928941,0,0,0.09928941,-469.26747,-40.825389)"
       id="g23"
       style="clip-rule:evenodd;fill-rule:evenodd;stroke-linejoin:round;stroke-miterlimit:2">
            <path
   d="m 4950.21,451.597 h -36.37 c -0.55,0 -1,-0.448 -1,-1 0,-0.552 0.45,-1 1,-1 h 36.37 c 0.56,0 1,0.448 1,1 0,0.552 -0.44,1 -1,1 z"
   style="fill-rule:nonzero"
   id="path21" />

        </g>
    <g
       transform="matrix(0.09928941,0,0,0.09928941,-469.26747,-40.825389)"
       id="g24"
       style="clip-rule:evenodd;fill-rule:evenodd;stroke-linejoin:round;stroke-miterlimit:2">
            <path
   d="m 4950.21,458.568 h -36.37 c -0.55,0 -1,-0.448 -1,-1 0,-0.553 0.45,-1 1,-1 h 36.37 c 0.56,0 1,0.447 1,1 0,0.552 -0.44,1 -1,1 z"
   style="fill-rule:nonzero"
   id="path22" />

        </g>
    <g
       transform="matrix(0.09928941,0,0,0.09928941,-469.26747,-40.825389)"
       id="g25"
       style="clip-rule:evenodd;fill-rule:evenodd;stroke-linejoin:round;stroke-miterlimit:2">
            <path
   d="m 4901.36,458.111 c -0.18,0 -0.37,-0.052 -0.54,-0.16 l -4.11,-2.656 c -0.47,-0.3 -0.6,-0.919 -0.3,-1.383 0.3,-0.464 0.92,-0.597 1.38,-0.298 l 3.36,2.166 5.69,-7.137 c 0.35,-0.432 0.98,-0.502 1.41,-0.159 0.43,0.345 0.5,0.974 0.16,1.406 l -6.26,7.844 c -0.2,0.247 -0.49,0.377 -0.79,0.377 z"
   style="fill-rule:nonzero"
   id="path23" />

        </g>
    <g
       transform="matrix(0.09928941,0,0,0.09928941,-469.26747,-40.825389)"
       id="g26"
       style="clip-rule:evenodd;fill-rule:evenodd;stroke-linejoin:round;stroke-miterlimit:2">
            <path
   d="m 4755.17,513.363 c -0.29,0 -0.58,-0.125 -0.77,-0.366 -0.36,-0.427 -0.29,-1.057 0.13,-1.407 l 2.95,-2.412 c 0.03,-0.026 0.06,-0.049 0.1,-0.071 0.85,-0.543 1.87,-1.396 1.87,-2.38 v -2.816 c 0,-1.729 -1.4,-3.136 -3.13,-3.136 H 4753 c -1.73,0 -3.14,1.407 -3.14,3.136 v 1.316 c 0,0.552 -0.44,1 -1,1 -0.55,0 -1,-0.448 -1,-1 v -1.316 c 0,-2.832 2.31,-5.136 5.14,-5.136 h 3.32 c 2.83,0 5.13,2.304 5.13,5.136 v 2.816 c 0,1.506 -0.92,2.863 -2.75,4.035 l -2.9,2.375 c -0.18,0.152 -0.41,0.226 -0.63,0.226 z"
   style="fill-rule:nonzero"
   id="path24" />

        </g>
    <g
       transform="matrix(0.09928941,0,0,0.09928941,-469.26747,-40.825389)"
       id="g27"
       style="clip-rule:evenodd;fill-rule:evenodd;stroke-linejoin:round;stroke-miterlimit:2">
            <path
   d="m 4753.54,518.621 h -2 v -2.815 c 0,-1.505 0.92,-2.862 2.75,-4.033 l 2.9,-2.378 1.27,1.546 -2.95,2.416 c -0.03,0.025 -0.06,0.049 -0.1,0.071 -0.85,0.542 -1.87,1.395 -1.87,2.378 z"
   style="fill-rule:nonzero"
   id="path25" />

        </g>
    <g
       transform="matrix(0.09928941,0,0,0.09928941,-469.26747,-40.825389)"
       id="g28"
       style="clip-rule:evenodd;fill-rule:evenodd;stroke-linejoin:round;stroke-miterlimit:2">
            <rect
   x="4751.54"
   y="521.29901"
   width="2"
   height="2.217"
   style="fill-rule:nonzero"
   id="rect26" />

        </g>
    <g
       transform="matrix(0.09928941,0,0,0.09928941,-469.26747,-40.825389)"
       id="g29"
       style="clip-rule:evenodd;fill-rule:evenodd;stroke-linejoin:round;stroke-miterlimit:2">
            <rect
   x="4911.0098"
   y="477.96799"
   width="24.15"
   height="3"
   style="fill:#9735ff;fill-rule:nonzero"
   id="rect27" />

        </g>
    <g
       transform="matrix(0.09928941,0,0,0.09928941,-469.26747,-40.825389)"
       id="g30"
       style="clip-rule:evenodd;fill-rule:evenodd;stroke-linejoin:round;stroke-miterlimit:2">
            <path
   d="m 4931.75,486.444 -2.12,-2.121 4.85,-4.855 -4.85,-4.854 2.12,-2.121 6.97,6.975 z"
   style="fill:#9735ff;fill-rule:nonzero"
   id="path28" />

        </g>
  </g>
</svg>
