<?xml version="1.0" encoding="UTF-8" standalone="no"?>
<!-- Created with Inkscape (http://www.inkscape.org/) -->

<svg
   width="100"
   height="100"
   viewBox="0 0 26.458001 26.458001"
   version="1.1"
   id="svg1"
   xmlns="http://www.w3.org/2000/svg"
   xmlns:svg="http://www.w3.org/2000/svg">
  <defs
     id="defs1" />
  <g
     id="layer1">
    <g
       transform="matrix(0.02626483,0,0,0.02579297,-2.1992461,-6.0808823)"
       id="g39"
       style="clip-rule:evenodd;fill-rule:evenodd;stroke-linejoin:round;stroke-miterlimit:2">
        <g
   transform="matrix(4.16667,0,0,4.16667,-25630.2,-1525.8)"
   id="g2">
            <path
   d="m 6389.21,659.25 h -193.85 c -5.13,0 -9.29,-4.155 -9.29,-9.281 V 497.685 c 0,-5.126 4.16,-9.282 9.29,-9.282 h 193.85 c 5.13,0 9.28,4.156 9.28,9.282 v 152.284 c 0,5.126 -4.15,9.281 -9.28,9.281 z"
   style="fill:#ffffff;fill-rule:nonzero"
   id="path1" />

        </g>

        <g
   transform="matrix(4.16667,0,0,4.16667,-25630.2,-1525.8)"
   id="g3">
            <path
   d="m 6195.36,489.403 c -4.57,0 -8.29,3.716 -8.29,8.282 v 152.284 c 0,4.566 3.72,8.281 8.29,8.281 h 193.85 c 4.57,0 8.29,-3.715 8.29,-8.281 V 497.685 c 0,-4.566 -3.72,-8.282 -8.29,-8.282 z m 193.85,170.847 h -193.85 c -5.67,0 -10.29,-4.612 -10.29,-10.281 V 497.685 c 0,-5.669 4.62,-10.282 10.29,-10.282 h 193.85 c 5.67,0 10.29,4.613 10.29,10.282 v 152.284 c 0,5.669 -4.62,10.281 -10.29,10.281 z"
   style="fill:#000010;fill-rule:nonzero"
   id="path2" />

        </g>

        <g
   transform="matrix(4.16667,0,0,4.16667,-25630.2,-1525.8)"
   id="g4">
            <path
   d="m 6195.25,494.593 c -0.88,0 -1.6,0.716 -1.6,1.595 0,0.88 0.72,1.595 1.6,1.595 0.88,0 1.59,-0.715 1.59,-1.595 0,-0.879 -0.71,-1.595 -1.59,-1.595 z m 0,5.19 c -1.98,0 -3.6,-1.613 -3.6,-3.595 0,-1.982 1.62,-3.595 3.6,-3.595 1.98,0 3.59,1.613 3.59,3.595 0,1.982 -1.61,3.595 -3.59,3.595 z"
   style="fill:#000010;fill-rule:nonzero"
   id="path3" />

        </g>

        <g
   transform="matrix(4.16667,0,0,4.16667,-25630.2,-1525.8)"
   id="g5">
            <path
   d="m 6203.98,494.593 c -0.88,0 -1.59,0.716 -1.59,1.595 0,0.88 0.71,1.595 1.59,1.595 0.88,0 1.6,-0.715 1.6,-1.595 0,-0.879 -0.72,-1.595 -1.6,-1.595 z m 0,5.19 c -1.98,0 -3.59,-1.613 -3.59,-3.595 0,-1.982 1.61,-3.595 3.59,-3.595 1.98,0 3.6,1.613 3.6,3.595 0,1.982 -1.62,3.595 -3.6,3.595 z"
   style="fill:#000010;fill-rule:nonzero"
   id="path4" />

        </g>

        <g
   transform="matrix(4.16667,0,0,4.16667,-25630.2,-1525.8)"
   id="g6">
            <path
   d="m 6212.71,494.593 c -0.88,0 -1.59,0.716 -1.59,1.595 0,0.88 0.71,1.595 1.59,1.595 0.88,0 1.6,-0.715 1.6,-1.595 0,-0.879 -0.72,-1.595 -1.6,-1.595 z m 0,5.19 c -1.98,0 -3.59,-1.613 -3.59,-3.595 0,-1.982 1.61,-3.595 3.59,-3.595 1.99,0 3.6,1.613 3.6,3.595 0,1.982 -1.61,3.595 -3.6,3.595 z"
   style="fill:#000010;fill-rule:nonzero"
   id="path5" />

        </g>

        <g
   transform="matrix(4.16667,0,0,4.16667,-25630.2,-1525.8)"
   id="g7">
            <path
   d="m 6214.83,659.352 37.02,-53.077 c 10.21,-14.371 28.38,-20.741 45.33,-15.897 l 63.29,18.081 c 9.22,2.636 17.25,8.378 22.73,16.256 l 8.49,34.637 v -1 z"
   style="fill:#000010;fill-rule:nonzero"
   id="path6" />

        </g>

        <g
   transform="matrix(4.16667,0,0,4.16667,-25630.2,-1525.8)"
   id="g8">
            <path
   d="m 6242.92,588.579 v -40.715 c 0,-4.548 -2.46,-8.759 -6.43,-10.989 -1.38,-0.777 -3.02,-0.764 -4.39,0.036 -1.37,0.802 -2.19,2.227 -2.19,3.813 v 29.332 c -1.32,-0.78 -2.86,-1.236 -4.5,-1.236 h -0.34 c -2.93,0 -5.62,1.423 -7.29,3.807 -0.53,-0.1 -1.07,-0.158 -1.63,-0.158 h -0.35 c -3.05,0 -5.86,1.537 -7.5,4.112 -0.02,0.026 -0.02,0.054 -0.03,0.081 -0.73,-0.167 -1.48,-0.263 -2.26,-0.263 -5.55,0 -10.06,4.512 -10.06,10.058 v 71.895 c 0,0.285 0.23,0 0.52,0 h 43.33 c 0.28,0 0.51,0.285 0.51,0 v -36.526 l 0.54,-0.535 c 4.96,-4.956 7.68,-11.544 7.68,-18.552 v -4.98 c 0,-3.996 -2.28,-7.463 -5.61,-9.18 z"
   style="fill:#ffffff;fill-rule:nonzero"
   id="path7" />

        </g>

        <g
   transform="matrix(4.16667,0,0,4.16667,-25630.2,-1525.8)"
   id="g9">
            <path
   d="m 6227.81,634.6 c -0.26,0 -0.51,-0.097 -0.71,-0.293 -0.39,-0.39 -0.39,-1.023 0,-1.414 l 12.68,-12.675 c 4.67,-4.669 7.24,-10.877 7.24,-17.48 v -4.98 c 0,-4.859 -3.96,-8.813 -8.82,-8.813 h -18.42 c -1.06,0 -2.06,0.465 -2.74,1.275 -0.68,0.811 -0.97,1.875 -0.79,2.92 0.49,2.86 2.75,5.089 5.62,5.544 l 10.96,1.745 c 0.48,0.076 0.83,0.483 0.84,0.967 0.01,0.484 -0.32,0.905 -0.8,1.001 -0.03,0.006 -3.17,0.659 -6.25,2.653 -4.01,2.596 -6.04,6.158 -6.04,10.587 0,0.553 -0.45,1 -1,1 -0.56,0 -1,-0.447 -1,-1 0,-5.1 2.42,-9.354 7,-12.301 1.01,-0.647 2.01,-1.163 2.93,-1.569 l -6.96,-1.107 c -3.71,-0.591 -6.63,-3.476 -7.27,-7.18 -0.28,-1.627 0.17,-3.285 1.23,-4.548 1.06,-1.263 2.62,-1.987 4.27,-1.987 h 18.42 c 5.97,0 10.82,4.851 10.82,10.813 v 4.98 c 0,7.137 -2.78,13.847 -7.83,18.894 l -12.67,12.675 c -0.2,0.196 -0.45,0.293 -0.71,0.293 z"
   style="fill:#000010;fill-rule:nonzero"
   id="path8" />

        </g>

        <g
   transform="matrix(4.16667,0,0,4.16667,-25630.2,-1525.8)"
   id="g10">
            <path
   d="m 6242.4,589.691 c -0.55,0 -1,-0.448 -1,-1 v -40.826 c 0,-4.002 -2.16,-7.707 -5.65,-9.668 -0.91,-0.511 -1.99,-0.502 -2.88,0.024 -0.9,0.526 -1.44,1.461 -1.44,2.503 v 29.362 c 0,0.552 -0.45,1 -1,1 -0.55,0 -1,-0.448 -1,-1 v -29.362 c 0,-1.76 0.91,-3.341 2.43,-4.23 1.52,-0.888 3.34,-0.902 4.87,-0.04 4.12,2.315 6.67,6.688 6.67,11.411 v 40.826 c 0,0.552 -0.44,1 -1,1 z"
   style="fill:#000010;fill-rule:nonzero"
   id="path9" />

        </g>

        <g
   transform="matrix(4.16667,0,0,4.16667,-25630.2,-1525.8)"
   id="g11">
            <path
   d="m 6233.8,588.568 c -0.55,0 -1,-0.447 -1,-1 v -9.841 c 0,-4.075 -3.32,-7.39 -7.39,-7.39 h -0.34 c -2.54,0 -4.87,1.276 -6.23,3.413 -0.3,0.465 -0.92,0.601 -1.38,0.304 -0.47,-0.298 -0.61,-0.916 -0.31,-1.381 1.74,-2.715 4.7,-4.336 7.92,-4.336 h 0.34 c 5.18,0 9.39,4.212 9.39,9.39 v 9.841 c 0,0.553 -0.45,1 -1,1 z"
   style="fill:#000010;fill-rule:nonzero"
   id="path10" />

        </g>

        <g
   transform="matrix(4.16667,0,0,4.16667,-25630.2,-1525.8)"
   id="g12">
            <path
   d="m 6224.54,588.841 c -0.56,0 -1,-0.447 -1,-1 v -6.466 c 0,-4.074 -3.32,-7.389 -7.39,-7.389 h -0.35 c -2.53,0 -4.86,1.276 -6.23,3.413 -0.29,0.465 -0.91,0.601 -1.38,0.303 -0.46,-0.298 -0.6,-0.916 -0.3,-1.381 1.74,-2.714 4.69,-4.335 7.91,-4.335 h 0.35 c 5.17,0 9.39,4.212 9.39,9.389 v 6.466 c 0,0.553 -0.45,1 -1,1 z"
   style="fill:#000010;fill-rule:nonzero"
   id="path11" />

        </g>

        <g
   transform="matrix(4.16667,0,0,4.16667,-25630.2,-1525.8)"
   id="g13">
            <path
   d="m 6239.8,659.352 c -0.55,0 -1,-0.448 -1,-1 v -35.149 c 0,-0.552 0.45,-1 1,-1 0.55,0 1,0.448 1,1 v 35.149 c 0,0.552 -0.45,1 -1,1 z"
   style="fill:#000010;fill-rule:nonzero"
   id="path12" />

        </g>

        <g
   transform="matrix(4.16667,0,0,4.16667,-25630.2,-1525.8)"
   id="g14">
            <path
   d="m 6196.47,659.352 c -0.55,0 -1,-0.448 -1,-1 v -71.894 c 0,-5.813 4.73,-10.543 10.54,-10.543 5.81,0 10.54,4.73 10.54,10.543 v 13.738 c 0,1.947 -1.58,3.531 -3.53,3.531 -4.11,0 -7.45,-3.344 -7.45,-7.453 v -6.46 c 0,-0.552 0.45,-1 1,-1 0.55,0 1,0.448 1,1 v 6.46 c 0,3.006 2.45,5.453 5.45,5.453 0.85,0 1.53,-0.687 1.53,-1.531 v -13.738 c 0,-4.71 -3.83,-8.543 -8.54,-8.543 -4.71,0 -8.54,3.833 -8.54,8.543 v 71.894 c 0,0.552 -0.45,1 -1,1 z"
   style="fill:#000010;fill-rule:nonzero"
   id="path13" />

        </g>

        <g
   transform="matrix(4.16667,0,0,4.16667,-25630.2,-1525.8)"
   id="g15">
            <path
   d="m 6208.82,590.818 h -4.77 c -0.56,0 -1,-0.448 -1,-1 0,-0.552 0.44,-1 1,-1 h 4.77 c 0.55,0 1,0.448 1,1 0,0.552 -0.45,1 -1,1 z"
   style="fill:#000010;fill-rule:nonzero"
   id="path14" />

        </g>

        <g
   transform="matrix(4.16667,0,0,4.16667,-25630.2,-1525.8)"
   id="g16">
            <path
   d="m 6301.36,534.89 c -3.41,15.527 6.41,30.876 21.94,34.283 15.53,3.408 30.88,-6.416 34.28,-21.943 3.41,-15.526 -6.41,-30.875 -21.94,-34.282 -15.53,-3.408 -30.87,6.416 -34.28,21.942 z"
   style="fill:#000010;fill-rule:nonzero"
   id="path15" />

        </g>

        <g
   transform="matrix(4.16667,0,0,4.16667,-25630.2,-1525.8)"
   id="g17">
            <path
   d="m 6294.57,526.361 c -2.04,9.29 3.84,18.474 13.13,20.513 9.29,2.039 18.47,-3.839 20.51,-13.129 2.04,-9.29 -3.84,-18.474 -13.13,-20.513 -9.29,-2.039 -18.47,3.839 -20.51,13.129 z"
   style="fill:#000010;fill-rule:nonzero"
   id="path16" />

        </g>

        <g
   transform="matrix(4.16667,0,0,4.16667,-25630.2,-1525.8)"
   id="g18">
            <path
   d="m 6301.74,586.681 c -13.72,-6.048 -18.56,-25.207 -10.81,-42.793 7.75,-17.586 25.16,-26.94 38.88,-20.892 11.46,5.049 16.72,19.237 13.63,34.019 2.71,-3.08 6.97,-4.632 11.26,-3.666 5.97,1.345 9.95,7.325 8.88,13.348 -1.17,6.522 -7.5,10.71 -13.91,9.303 -1.38,-0.302 -2.63,-0.846 -3.75,-1.56 l -2,31.351 c 3.65,0.974 -46.8,18.89 -39.63,-7.7 l 3.59,-9.742 c -2.1,-0.253 -4.16,-0.795 -6.14,-1.668 z"
   style="fill:#ffffff;fill-rule:nonzero"
   id="path17" />

        </g>

        <g
   transform="matrix(4.16667,0,0,4.16667,-25630.2,-1525.8)"
   id="g19">
            <path
   d="m 6302.15,585.766 c 1.83,0.808 3.8,1.343 5.85,1.59 0.3,0.037 0.57,0.21 0.73,0.471 0.16,0.261 0.19,0.58 0.09,0.867 l -3.59,9.742 c -1.48,5.513 -0.46,9.235 3.15,11.295 8.99,5.128 31.15,-1.881 34.54,-3.998 v -0.005 l 2,-31.352 c 0.02,-0.353 0.23,-0.668 0.55,-0.828 0.31,-0.161 0.69,-0.142 0.99,0.049 1.07,0.682 2.22,1.162 3.42,1.426 2.85,0.623 5.74,0.076 8.16,-1.541 2.42,-1.616 4.04,-4.088 4.55,-6.961 0.98,-5.496 -2.65,-10.967 -8.11,-12.196 -3.78,-0.851 -7.72,0.432 -10.29,3.351 -0.3,0.342 -0.79,0.436 -1.19,0.234 -0.41,-0.203 -0.63,-0.655 -0.54,-1.099 3.06,-14.637 -2.31,-28.166 -13.05,-32.9 -13.2,-5.815 -30.05,3.326 -37.57,20.38 -7.51,17.053 -2.89,35.658 10.31,41.475 z m 15.44,27.832 c -4.52,0 -8.63,-0.797 -11.41,-2.93 -3.47,-2.67 -4.43,-6.989 -2.85,-12.837 l 3.18,-8.673 c -1.79,-0.316 -3.53,-0.84 -5.17,-1.562 -14.21,-6.26 -19.29,-26.048 -11.33,-44.112 7.96,-18.062 26,-27.665 40.2,-21.403 10.9,4.803 16.72,17.824 14.71,32.277 2.87,-2.019 6.5,-2.774 10,-1.984 6.49,1.461 10.81,7.964 9.64,14.499 -0.61,3.413 -2.53,6.351 -5.4,8.272 -2.88,1.923 -6.33,2.573 -9.71,1.831 -0.91,-0.199 -1.79,-0.5 -2.63,-0.9 l -1.87,29.297 c 0.08,0.129 0.13,0.275 0.15,0.433 0.12,0.893 -0.78,1.415 -1.27,1.696 -3.18,1.835 -15.79,6.096 -26.24,6.096 z"
   style="fill:#000010;fill-rule:nonzero"
   id="path18" />

        </g>

        <g
   transform="matrix(4.16667,0,0,4.16667,-25630.2,-1525.8)"
   id="g20">
            <path
   d="m 6346.59,568.102 c -0.04,0 -0.08,-0.002 -0.12,-0.008 -0.55,-0.069 -0.94,-0.569 -0.87,-1.117 0.43,-3.418 1.74,-5.96 3.88,-7.557 3.08,-2.299 6.73,-1.727 6.89,-1.703 0.54,0.09 0.91,0.604 0.82,1.149 -0.09,0.544 -0.6,0.918 -1.15,0.825 -0.07,-0.01 -3.01,-0.435 -5.39,1.345 -1.67,1.261 -2.71,3.344 -3.07,6.191 -0.06,0.506 -0.49,0.875 -0.99,0.875 z"
   style="fill:#000010;fill-rule:nonzero"
   id="path19" />

        </g>

        <g
   transform="matrix(4.16667,0,0,4.16667,-25630.2,-1525.8)"
   id="g21">
            <path
   d="m 6310.59,589.521 c -0.71,0 -1.42,-0.031 -2.13,-0.095 -0.55,-0.049 -0.96,-0.535 -0.91,-1.085 0.05,-0.549 0.53,-0.946 1.09,-0.907 7.82,0.694 16.13,-2.842 22.81,-9.713 0.39,-0.396 1.02,-0.405 1.42,-0.019 0.39,0.385 0.4,1.018 0.02,1.414 -6.51,6.69 -14.52,10.405 -22.3,10.405 z"
   style="fill:#000010;fill-rule:nonzero"
   id="path20" />

        </g>

        <g
   transform="matrix(4.16667,0,0,4.16667,-25630.2,-1525.8)"
   id="g22">
            <path
   d="m 6299,540.288 c 0.29,0.923 -1.54,2.33 -4.1,3.142 -2.56,0.812 -4.87,0.722 -5.16,-0.201 -0.29,-0.923 1.54,-2.33 4.1,-3.142 2.55,-0.812 4.86,-0.722 5.16,0.201 z"
   style="fill:#000010;fill-rule:nonzero"
   id="path21" />

        </g>

        <g
   transform="matrix(4.16667,0,0,4.16667,-25630.2,-1525.8)"
   id="g23">
            <path
   d="m 6321.32,549.141 c -0.5,1.093 -3.36,0.864 -6.38,-0.513 -3.03,-1.377 -5.09,-3.38 -4.59,-4.473 0.5,-1.094 3.36,-0.865 6.39,0.512 3.02,1.377 5.08,3.38 4.58,4.474 z"
   style="fill:#000010;fill-rule:nonzero"
   id="path22" />

        </g>

        <g
   transform="matrix(4.16667,0,0,4.16667,-25630.2,-1525.8)"
   id="g24">
            <path
   d="m 6300.15,558.025 c -0.32,0 -0.62,-0.146 -0.82,-0.42 -1.01,-1.416 -1.2,-3.282 -0.49,-4.868 l 3.21,-7.185 c 0.22,-0.503 0.81,-0.73 1.32,-0.505 0.5,0.225 0.73,0.816 0.5,1.321 l -3.2,7.184 c -0.43,0.956 -0.32,2.038 0.29,2.892 0.32,0.45 0.21,1.074 -0.24,1.395 -0.17,0.125 -0.37,0.186 -0.57,0.186 z"
   style="fill:#000010;fill-rule:nonzero"
   id="path23" />

        </g>

        <g
   transform="matrix(4.16667,0,0,4.16667,-25630.2,-1525.8)"
   id="g25">
            <path
   d="m 6304.22,570.957 c -0.81,0 -1.65,-0.062 -2.54,-0.202 -0.55,-0.087 -0.92,-0.6 -0.83,-1.145 0.09,-0.545 0.6,-0.917 1.14,-0.831 6.77,1.075 10.85,-3.05 11.02,-3.227 0.38,-0.394 1.01,-0.408 1.41,-0.025 0.4,0.382 0.41,1.013 0.03,1.411 -0.17,0.183 -3.93,4.019 -10.23,4.019 z"
   style="fill:#000010;fill-rule:nonzero"
   id="path24" />

        </g>

        <g
   transform="matrix(4.16667,0,0,4.16667,-25630.2,-1525.8)"
   id="g26">
            <path
   d="m 6314.13,523.738 c 1.19,6.233 7.21,10.317 13.45,9.124 6.23,-1.194 10.31,-7.215 9.12,-13.448 -1.19,-6.232 -7.21,-10.317 -13.45,-9.123 -6.23,1.194 -10.31,7.214 -9.12,13.447 z"
   style="fill:#000010;fill-rule:nonzero"
   id="path25" />

        </g>

        <g
   transform="matrix(4.16667,0,0,4.16667,-25630.2,-1525.8)"
   id="g27">
            <path
   d="m 6329.05,534.055 c 1.2,6.233 7.22,10.317 13.45,9.124 6.23,-1.194 10.32,-7.215 9.13,-13.447 -1.2,-6.233 -7.22,-10.318 -13.45,-9.124 -6.23,1.194 -10.32,7.214 -9.13,13.447 z"
   style="fill:#000010;fill-rule:nonzero"
   id="path26" />

        </g>

        <g
   transform="matrix(4.16667,0,0,4.16667,-25630.2,-1525.8)"
   id="g28">
            <path
   d="m 6333.69,557.083 c 0.57,2.928 3.39,4.846 6.32,4.285 2.93,-0.56 4.85,-3.388 4.29,-6.316 -0.57,-2.927 4.78,-21.994 -3.54,-20.399 -9.87,1.889 -7.63,19.503 -7.07,22.43 z"
   style="fill:#000010;fill-rule:nonzero"
   id="path27" />

        </g>

        <g
   transform="matrix(4.16667,0,0,4.16667,-25630.2,-1525.8)"
   id="g29">
            <path
   d="m 6354.43,527.582 c -0.32,0 -0.64,-0.155 -0.83,-0.441 -0.31,-0.457 -0.19,-1.079 0.27,-1.388 1.7,-1.15 4.24,-0.701 4.52,-0.647 0.54,0.105 0.89,0.629 0.79,1.171 -0.11,0.542 -0.63,0.898 -1.17,0.792 -0.55,-0.103 -2.16,-0.242 -3.02,0.341 -0.17,0.116 -0.37,0.172 -0.56,0.172 z"
   style="fill:#000010;fill-rule:nonzero"
   id="path28" />

        </g>

        <g
   transform="matrix(4.16667,0,0,4.16667,-25630.2,-1525.8)"
   id="g30">
            <path
   d="m 6353.47,526.289 c -0.35,0 -0.69,-0.189 -0.88,-0.522 -0.26,-0.483 -0.08,-1.087 0.4,-1.353 0.06,-0.039 1.41,-0.826 1.41,-2.392 0,-0.552 0.45,-0.999 1,-0.999 0.56,0 1,0.448 1,1.001 0,2.776 -2.35,4.088 -2.45,4.143 -0.15,0.083 -0.32,0.122 -0.48,0.122 z"
   style="fill:#000010;fill-rule:nonzero"
   id="path29" />

        </g>

        <g
   transform="matrix(4.16667,0,0,4.16667,-25630.2,-1525.8)"
   id="g31">
            <path
   d="m 6310.96,555.309 c -0.12,1.977 0.81,3.644 2.08,3.722 1.27,0.079 2.4,-1.46 2.53,-3.436 0.12,-1.977 -0.81,-3.644 -2.08,-3.722 -1.27,-0.079 -2.4,1.459 -2.53,3.436 z"
   style="fill:#000010;fill-rule:nonzero"
   id="path30" />

        </g>

        <g
   transform="matrix(4.16667,0,0,4.16667,-25630.2,-1525.8)"
   id="g32">
            <path
   d="m 6291.7,552.506 c -0.12,1.977 0.81,3.643 2.08,3.722 1.27,0.079 2.4,-1.46 2.53,-3.436 0.12,-1.977 -0.81,-3.644 -2.08,-3.722 -1.27,-0.079 -2.4,1.459 -2.53,3.436 z"
   style="fill:#000010;fill-rule:nonzero"
   id="path31" />

        </g>

        <g
   transform="matrix(4.16667,0,0,4.16667,-25630.2,-1525.8)"
   id="g33">
            <path
   d="m 6261.45,432.204 v 10e-4 c -14.5,5.537 -23.31,20.296 -21.3,35.685 l 0.76,5.795 c 1.86,14.233 -0.26,28.702 -6.12,41.804 l -0.48,1.071 25.67,11.478 0.48,-1.07 c 5.86,-13.103 15.23,-24.328 27.08,-32.431 l 4.82,-3.299 c 12.81,-8.762 17.94,-25.166 12.4,-39.664 -6.61,-17.309 -26,-25.981 -43.31,-19.37 z"
   style="fill:#bced09;fill-rule:nonzero"
   id="path32" />

        </g>

        <g
   transform="matrix(4.16667,0,0,4.16667,-25630.2,-1525.8)"
   id="g34">
            <path
   d="m 6250.28,532.914 -13.86,-6.199 c -4.65,-2.08 -6.73,-7.537 -4.65,-12.188 l 6.74,-15.086 30.71,13.731 -6.75,15.086 c -2.08,4.651 -7.53,6.736 -12.19,4.656 z"
   style="fill:#000010;fill-rule:nonzero"
   id="path33" />

        </g>

        <g
   transform="matrix(4.16667,0,0,4.16667,-25630.2,-1525.8)"
   id="g35">
            <path
   d="m 6256.55,468.964 c -0.49,0 -0.96,0.172 -1.31,0.654 -1.21,1.625 -0.69,5.798 3.37,9.092 0.68,0.55 1.43,1.052 2.23,1.502 l 0.02,-0.041 c 0.17,-0.911 1.4,-8.011 -2.1,-10.371 -0.47,-0.314 -1.37,-0.836 -2.21,-0.836 z m 14.01,13.937 c 5,0.233 9.98,-1.219 12.91,-4.77 1.3,-1.576 1.46,-3.933 0.36,-5.366 -1.16,-1.522 -3.48,-1.647 -6.37,-0.344 -2.89,1.303 -4.24,3.205 -6.27,8.847 -0.16,0.442 -0.37,0.992 -0.63,1.633 z m -13.16,27.748 c -0.14,0 -0.28,-0.031 -0.42,-0.095 -0.5,-0.234 -0.72,-0.829 -0.48,-1.329 0.09,-0.193 7.54,-16.121 11.16,-24.591 -2.03,-0.328 -4.02,-0.905 -5.85,-1.703 l -10.5,23.482 c -0.23,0.504 -0.81,0.73 -1.32,0.505 -0.5,-0.225 -0.73,-0.817 -0.51,-1.321 l 10.54,-23.55 c -0.96,-0.53 -1.85,-1.126 -2.66,-1.783 -4.67,-3.78 -5.7,-9.172 -3.73,-11.835 1.07,-1.452 3.28,-2.288 6.25,-0.288 4.85,3.266 2.99,12.169 2.91,12.546 -0.01,0.068 -0.03,0.134 -0.06,0.198 l -0.1,0.216 c 1.81,0.786 3.81,1.333 5.84,1.612 0.36,-0.859 0.64,-1.58 0.84,-2.123 1.98,-5.521 3.51,-8.274 7.32,-9.993 5.41,-2.439 7.95,-0.145 8.79,0.954 1.66,2.176 1.49,5.552 -0.41,7.852 -3.55,4.308 -9.48,5.915 -15.28,5.477 -3.51,8.274 -11.04,24.389 -11.42,25.192 -0.17,0.364 -0.53,0.577 -0.91,0.577 z"
   style="fill:#000010;fill-rule:nonzero"
   id="path34" />

        </g>

        <g
   transform="matrix(4.16667,0,0,4.16667,-25630.2,-1525.8)"
   id="g36">
            <path
   d="m 6233.12,456.465 c -0.05,0 -0.1,-0.003 -0.15,-0.012 l -12.73,-2.129 c -0.5,-0.082 -0.83,-0.551 -0.75,-1.047 0.08,-0.496 0.54,-0.833 1.05,-0.747 l 12.73,2.129 c 0.5,0.082 0.83,0.551 0.75,1.047 -0.07,0.445 -0.46,0.759 -0.9,0.759 z"
   style="fill:#000010;fill-rule:nonzero"
   id="path35" />

        </g>

        <g
   transform="matrix(4.16667,0,0,4.16667,-25630.2,-1525.8)"
   id="g37">
            <path
   d="m 6236.32,444.331 c -0.17,0 -0.35,-0.052 -0.51,-0.159 l -6.28,-4.279 c -0.41,-0.283 -0.52,-0.848 -0.24,-1.263 0.29,-0.415 0.85,-0.524 1.27,-0.24 l 6.28,4.28 c 0.41,0.282 0.52,0.848 0.24,1.263 -0.18,0.259 -0.47,0.398 -0.76,0.398 z"
   style="fill:#000010;fill-rule:nonzero"
   id="path36" />

        </g>

        <g
   transform="matrix(4.16667,0,0,4.16667,-25630.2,-1525.8)"
   id="g38">
            <path
   d="m 6223.78,472.779 c -0.45,0 -0.84,-0.327 -0.9,-0.78 -0.08,-0.497 0.27,-0.958 0.77,-1.03 l 7.02,-1.007 c 0.5,-0.074 0.96,0.274 1.03,0.771 0.07,0.497 -0.27,0.958 -0.77,1.029 l -7.02,1.008 c -0.05,0.006 -0.09,0.009 -0.13,0.009 z"
   style="fill:#000010;fill-rule:nonzero"
   id="path37" />

        </g>

    </g>
  </g>
</svg>
