<?xml version="1.0" encoding="UTF-8" standalone="no"?>
<!-- Created with Inkscape (http://www.inkscape.org/) -->

<svg
   width="29.546679mm"
   height="23.69626mm"
   viewBox="0 0 29.546679 23.69626"
   version="1.1"
   id="svg1"
   xmlns:inkscape="http://www.inkscape.org/namespaces/inkscape"
   xmlns:sodipodi="http://sodipodi.sourceforge.net/DTD/sodipodi-0.dtd"
   xmlns="http://www.w3.org/2000/svg"
   xmlns:svg="http://www.w3.org/2000/svg">
  <sodipodi:namedview
     id="namedview1"
     pagecolor="#ffffff"
     bordercolor="#000000"
     borderopacity="0.25"
     inkscape:showpageshadow="2"
     inkscape:pageopacity="0.0"
     inkscape:pagecheckerboard="0"
     inkscape:deskcolor="#d1d1d1"
     inkscape:document-units="mm" />
  <defs
     id="defs1" />
  <g
     inkscape:label="Layer 1"
     inkscape:groupmode="layer"
     id="layer1"
     transform="translate(-97.366663,-214.31251)">
    <g
       transform="matrix(0.09226444,0,0,0.10075862,-336.83992,142.00076)"
       id="g2"
       style="clip-rule:evenodd;fill-rule:evenodd;stroke-linejoin:round;stroke-miterlimit:2">
        <rect
   x="4716.8799"
   y="717.67297"
   width="302.92999"
   height="234.10899"
   style="fill:#ffffff;fill-rule:nonzero"
   id="rect1" />

    </g>
    <g
       transform="matrix(0.09226444,0,0,0.10075862,-336.83992,142.00076)"
       id="g3"
       style="clip-rule:evenodd;fill-rule:evenodd;stroke-linejoin:round;stroke-miterlimit:2">
        <path
   d="m 4965.52,773.005 c 0,0 8.46,-18.18 3.32,-27.353 -5.13,-9.173 -17.93,-5.149 -22.81,-7.815 -4.87,-2.667 -8.14,-11.132 -12.06,-12.068 -3.92,-0.937 -10.63,4.948 -16.24,2.49 -5.62,-2.458 -13.68,-9.48 -23.1,-7.989 -9.42,1.491 -18.2,5.647 -22.43,12.405 -4.22,6.758 -10.84,19.764 -4.55,29.997 6.29,10.234 28.32,34.419 24.41,42.932 -3.9,8.512 50.18,6.843 73.46,-32.599 z"
   style="fill-rule:nonzero"
   id="path1" />

    </g>
    <g
       transform="matrix(0.09226444,0,0,0.10075862,-336.83992,142.00076)"
       id="g4"
       style="clip-rule:evenodd;fill-rule:evenodd;stroke-linejoin:round;stroke-miterlimit:2">
        <path
   d="m 4971.58,769.225 h 0.01 z m -70.36,-47.598 c -1.14,0 -2.3,0.116 -3.47,0.377 -9.95,2.22 -17.58,7.062 -20.95,13.286 -4.62,8.523 -8.84,20.501 -2.73,29.17 1.85,2.615 4.85,6.124 8.33,10.188 10.08,11.781 21.51,25.132 18.84,32.068 -0.11,0.3 -0.33,0.858 1,1.452 4.41,1.961 17.4,0.539 30.71,-5.182 11.86,-5.103 28.03,-15.172 37.71,-34.169 0.38,-0.998 6.91,-18.455 1.68,-26.558 -3.44,-5.34 -9.67,-5.256 -15.16,-5.182 -3.08,0.044 -5.74,0.078 -7.68,-0.827 -2.64,-1.237 -4.83,-3.824 -6.96,-6.325 -2,-2.361 -3.89,-4.593 -5.58,-4.885 -1.37,-0.244 -3.36,0.665 -5.46,1.619 -3.3,1.497 -7.05,3.194 -10.76,1.837 -1.51,-0.551 -3.19,-1.388 -4.97,-2.273 -4.18,-2.088 -9.21,-4.596 -14.55,-4.596 z m 6.82,89.412 c -2.81,0 -5.07,-0.359 -6.61,-1.044 -1.92,-0.856 -2.69,-2.35 -2.06,-3.998 2.24,-5.822 -9.74,-19.824 -18.49,-30.049 -3.51,-4.101 -6.55,-7.644 -8.44,-10.336 -5.3,-7.525 -4.4,-18.339 2.6,-31.275 3.65,-6.732 11.76,-11.939 22.27,-14.284 7.3,-1.633 13.99,1.701 19.36,4.38 1.72,0.86 3.35,1.673 4.75,2.184 2.95,1.077 6.15,-0.374 9.25,-1.779 2.4,-1.085 4.66,-2.112 6.63,-1.769 2.4,0.416 4.52,2.915 6.77,5.562 1.98,2.338 4.03,4.755 6.28,5.809 1.52,0.709 4.09,0.673 6.8,0.638 5.71,-0.081 12.83,-0.175 16.88,6.097 5.9,9.159 -1.22,27.632 -1.52,28.414 -0.01,0.03 -0.03,0.06 -0.04,0.089 -15.13,29.738 -48.47,41.361 -64.43,41.361 z"
   style="fill:#000010;fill-rule:nonzero"
   id="path2" />

    </g>
    <g
       transform="matrix(0.09226444,0,0,0.10075862,-336.83992,142.00076)"
       id="g5"
       style="clip-rule:evenodd;fill-rule:evenodd;stroke-linejoin:round;stroke-miterlimit:2">
        <path
   d="m 4942.87,856.932 35.54,6.27 c 19.83,3.498 35.54,-16.536 27.41,-34.958 l -26.65,-46.916 c -4.72,-8.303 -14.05,-12.858 -23.5,-11.472 l -26.02,3.82 -27.8,11.898 c -8.13,5.215 -14.3,12.971 -17.56,22.06 l -18.02,50.266 c -3.9,10.892 3.85,22.456 15.4,22.987 6.16,0.283 12.01,-2.754 15.31,-7.959 l 13.44,-26.63 5.25,9.495 c 4.54,8.209 15.34,10.412 22.73,4.636 z"
   style="fill:#9735ff;fill-rule:nonzero"
   id="path3" />

    </g>
    <g
       transform="matrix(0.09226444,0,0,0.10075862,-336.83992,142.00076)"
       id="g6"
       style="clip-rule:evenodd;fill-rule:evenodd;stroke-linejoin:round;stroke-miterlimit:2">
        <path
   d="m 4916.22,791.605 20.91,-14.508 -21.5,-30.999 -20.91,14.508 z"
   style="fill:#ffffff;fill-rule:nonzero"
   id="path4" />

    </g>
    <g
       transform="matrix(0.09226444,0,0,0.10075862,-336.83992,142.00076)"
       id="g7"
       style="clip-rule:evenodd;fill-rule:evenodd;stroke-linejoin:round;stroke-miterlimit:2">
        <path
   d="m 4880.31,736.332 0.19,0.144 c 8.62,6.497 19.49,9.266 30.17,7.687 l 5.52,16.946 -12.64,11.544 c -1.9,1.736 -4.19,2.987 -6.68,3.649 -8.47,2.252 -17.18,-2.738 -19.52,-11.187 l -3.2,-11.529 c -1.79,-6.474 0.67,-13.378 6.16,-17.254 z"
   style="fill:#ffffff;fill-rule:nonzero"
   id="path5" />

    </g>
    <g
       transform="matrix(0.09226444,0,0,0.10075862,-336.83992,142.00076)"
       id="g8"
       style="clip-rule:evenodd;fill-rule:evenodd;stroke-linejoin:round;stroke-miterlimit:2">
        <path
   d="m 4918.96,743.26 c 1.85,3.19 0.77,7.277 -2.42,9.127 -3.19,1.851 -7.28,0.764 -9.13,-2.427 -1.85,-3.191 -0.76,-7.277 2.43,-9.128 3.19,-1.85 7.27,-0.763 9.12,2.428 z"
   style="fill:#ffffff;fill-rule:nonzero"
   id="path6" />

    </g>
    <g
       transform="matrix(0.09226444,0,0,0.10075862,-336.83992,142.00076)"
       id="g9"
       style="clip-rule:evenodd;fill-rule:evenodd;stroke-linejoin:round;stroke-miterlimit:2">
        <path
   d="m 4900.41,776.946 c -0.34,0 -0.68,-0.178 -0.86,-0.498 -0.28,-0.478 -0.12,-1.09 0.36,-1.367 13.15,-7.628 12.12,-16.208 12.07,-16.569 -0.07,-0.545 0.31,-1.052 0.85,-1.131 0.54,-0.076 1.05,0.293 1.13,0.838 0.06,0.414 1.36,10.236 -13.05,18.593 -0.16,0.091 -0.33,0.134 -0.5,0.134 z"
   style="fill:#000010;fill-rule:nonzero"
   id="path7" />

    </g>
    <g
       transform="matrix(0.09226444,0,0,0.10075862,-336.83992,142.00076)"
       id="g10"
       style="clip-rule:evenodd;fill-rule:evenodd;stroke-linejoin:round;stroke-miterlimit:2">
        <path
   d="m 4911.81,749.2 c -0.45,0 -0.85,-0.298 -0.97,-0.748 -0.05,-0.184 -1.15,-4.542 1.34,-6.595 0.43,-0.353 1.06,-0.292 1.4,0.133 0.36,0.426 0.3,1.056 -0.13,1.408 -1.25,1.034 -0.9,3.698 -0.68,4.55 0.14,0.534 -0.18,1.08 -0.71,1.22 -0.09,0.022 -0.17,0.032 -0.25,0.032 z"
   style="fill:#000010;fill-rule:nonzero"
   id="path8" />

    </g>
    <g
       transform="matrix(0.09226444,0,0,0.10075862,-336.83992,142.00076)"
       id="g11"
       style="clip-rule:evenodd;fill-rule:evenodd;stroke-linejoin:round;stroke-miterlimit:2">
        <path
   d="m 4893.85,764.436 c 1.83,0.605 4.55,1.137 5.64,-0.151 1.16,-1.37 0.27,-3.681 -0.43,-5.023 z m 3.37,2.655 c -2.53,0 -5.15,-1.174 -5.59,-1.376 -0.29,-0.139 -0.5,-0.413 -0.56,-0.735 -0.05,-0.322 0.05,-0.651 0.28,-0.881 l 7.22,-7.167 c 0.21,-0.208 0.51,-0.314 0.8,-0.286 0.29,0.026 0.56,0.181 0.73,0.424 0.15,0.214 3.63,5.297 0.92,8.506 -0.97,1.14 -2.37,1.515 -3.8,1.515 z"
   style="fill:#000010;fill-rule:nonzero"
   id="path9" />

    </g>
    <g
       transform="matrix(0.09226444,0,0,0.10075862,-336.83992,142.00076)"
       id="g12"
       style="clip-rule:evenodd;fill-rule:evenodd;stroke-linejoin:round;stroke-miterlimit:2">
        <path
   d="m 4879.33,757.407 c -0.41,-0.284 -0.98,-0.136 -1.26,0.258 -0.37,0.532 -0.48,1.248 -0.32,1.873 0.01,0.054 0.04,0.099 0.05,0.151 -0.02,0.182 -0.01,0.371 0.05,0.552 0.08,0.263 0.2,0.519 0.4,0.71 0.26,0.234 0.55,0.405 0.9,0.429 0.38,0.026 0.72,-0.115 1.02,-0.335 0.24,-0.178 0.4,-0.439 0.52,-0.709 0.22,-0.509 0.17,-1.127 -0.08,-1.618 -0.27,-0.563 -0.78,-0.962 -1.28,-1.311 z"
   style="fill-rule:nonzero"
   id="path10" />

    </g>
    <g
       transform="matrix(0.09226444,0,0,0.10075862,-336.83992,142.00076)"
       id="g13"
       style="clip-rule:evenodd;fill-rule:evenodd;stroke-linejoin:round;stroke-miterlimit:2">
        <path
   d="m 4889.82,750.033 c -0.27,-0.094 -0.56,-0.034 -0.78,0.126 -0.11,0.06 -0.19,0.143 -0.26,0.249 -0.08,0.134 -0.13,0.279 -0.14,0.437 -0.09,0.525 0.04,1.113 0.28,1.581 0.11,0.192 0.24,0.375 0.38,0.539 0.07,0.092 0.14,0.18 0.21,0.261 0.28,0.314 0.69,0.579 1.11,0.663 0.15,0.048 0.3,0.056 0.46,0.024 0.12,-0.021 0.23,-0.071 0.32,-0.15 0.24,-0.167 0.36,-0.398 0.4,-0.686 0.14,-1.316 -0.74,-2.616 -1.98,-3.044 z"
   style="fill-rule:nonzero"
   id="path11" />

    </g>
    <g
       transform="matrix(0.09226444,0,0,0.10075862,-336.83992,142.00076)"
       id="g14"
       style="clip-rule:evenodd;fill-rule:evenodd;stroke-linejoin:round;stroke-miterlimit:2">
        <path
   d="m 4886.5,762.408 c -0.06,0 -0.13,-0.006 -0.19,-0.016 -0.54,-0.102 -0.9,-0.624 -0.8,-1.167 0,0 0.24,-2.311 -3.61,-5.996 -1.4,-1.341 -2.73,-1.882 -3.96,-1.602 -2.42,0.551 -4.27,4.163 -4.78,5.508 -0.19,0.516 -0.77,0.778 -1.28,0.584 -0.52,-0.195 -0.78,-0.77 -0.59,-1.286 0.09,-0.239 2.23,-5.848 6.2,-6.755 1.92,-0.439 3.88,0.268 5.79,2.105 4.67,4.463 4.26,7.48 4.2,7.809 -0.09,0.48 -0.51,0.816 -0.98,0.816 z"
   style="fill:#000010;fill-rule:nonzero"
   id="path12" />

    </g>
    <g
       transform="matrix(0.09226444,0,0,0.10075862,-336.83992,142.00076)"
       id="g15"
       style="clip-rule:evenodd;fill-rule:evenodd;stroke-linejoin:round;stroke-miterlimit:2">
        <path
   d="m 4884.06,749.283 c -0.1,0 -0.2,-0.014 -0.3,-0.046 -0.53,-0.165 -0.82,-0.72 -0.66,-1.246 0.07,-0.231 1.83,-5.677 8.8,-6.052 0.54,-0.039 1.03,0.393 1.06,0.945 0.03,0.552 -0.4,1.022 -0.95,1.053 -5.54,0.297 -6.94,4.471 -7,4.649 -0.14,0.425 -0.53,0.697 -0.95,0.697 z"
   style="fill:#000010;fill-rule:nonzero"
   id="path13" />

    </g>
    <g
       transform="matrix(0.09226444,0,0,0.10075862,-336.83992,142.00076)"
       id="g16"
       style="clip-rule:evenodd;fill-rule:evenodd;stroke-linejoin:round;stroke-miterlimit:2">
        <path
   d="m 4816.73,801.729 -20.85,-20.213 3.93,-5.365 11.07,8.628 c 4,3.12 6.25,7.983 6.02,13.052 z"
   style="fill:#ffffff;fill-rule:nonzero"
   id="path14" />

    </g>
    <g
       transform="matrix(0.09226444,0,0,0.10075862,-336.83992,142.00076)"
       id="g17"
       style="clip-rule:evenodd;fill-rule:evenodd;stroke-linejoin:round;stroke-miterlimit:2">
        <path
   d="m 4797.21,781.404 18.62,18.059 0.07,-1.676 c 0.21,-4.736 -1.89,-9.305 -5.63,-12.219 l -10.26,-7.996 z m 19.52,21.325 c -0.25,0 -0.51,-0.098 -0.7,-0.283 l -20.84,-20.213 c -0.36,-0.347 -0.41,-0.906 -0.11,-1.308 l 3.93,-5.365 c 0.16,-0.218 0.4,-0.363 0.66,-0.4 0.27,-0.04 0.54,0.035 0.76,0.201 l 11.07,8.629 c 4.25,3.313 6.64,8.503 6.4,13.885 l -0.17,3.898 c -0.02,0.393 -0.26,0.74 -0.63,0.885 -0.12,0.047 -0.25,0.071 -0.37,0.071 z"
   style="fill:#000010;fill-rule:nonzero"
   id="path15" />

    </g>
    <g
       transform="matrix(0.09226444,0,0,0.10075862,-336.83992,142.00076)"
       id="g18"
       style="clip-rule:evenodd;fill-rule:evenodd;stroke-linejoin:round;stroke-miterlimit:2">
        <path
   d="m 4891.79,851.749 4.1,-5.035 -33.76,-68.834 -32.02,10.252 c -5.17,1.655 -9.64,4.977 -12.72,9.445 l -0.04,0.05 34.32,62.658 z"
   style="fill:#ffffff;fill-rule:nonzero"
   id="path16" />

    </g>
    <g
       transform="matrix(0.09226444,0,0,0.10075862,-336.83992,142.00076)"
       id="g19"
       style="clip-rule:evenodd;fill-rule:evenodd;stroke-linejoin:round;stroke-miterlimit:2">
        <path
   d="m 4891.79,851.749 h 0.01 z m -73.26,-54.056 33.66,61.459 39.05,-8.307 3.47,-4.265 -33.1,-67.484 -31.19,9.988 c -4.76,1.523 -8.96,4.57 -11.89,8.609 z m 33.14,63.592 c -0.36,0 -0.7,-0.194 -0.88,-0.519 l -34.31,-62.659 c -0.19,-0.331 -0.17,-0.735 0.05,-1.045 3.22,-4.678 7.93,-8.169 13.28,-9.882 l 32.01,-10.252 c 0.47,-0.152 0.99,0.065 1.21,0.512 l 33.76,68.834 c 0.17,0.351 0.12,0.77 -0.13,1.073 l -4.1,5.034 c -0.14,0.177 -0.34,0.299 -0.56,0.347 l -40.12,8.536 c -0.07,0.014 -0.14,0.021 -0.21,0.021 z"
   style="fill:#000010;fill-rule:nonzero"
   id="path17" />

    </g>
    <g
       transform="matrix(0.09226444,0,0,0.10075862,-336.83992,142.00076)"
       id="g20"
       style="clip-rule:evenodd;fill-rule:evenodd;stroke-linejoin:round;stroke-miterlimit:2">
        <path
   d="m 4793.25,778.13 33.24,62.892 23.66,21.239 43.94,-9.466 -35.24,-68.527 -42.17,12.913 z"
   style="fill:#000010;fill-rule:nonzero"
   id="path18" />

    </g>
    <g
       transform="matrix(0.09226444,0,0,0.10075862,-336.83992,142.00076)"
       id="g21"
       style="clip-rule:evenodd;fill-rule:evenodd;stroke-linejoin:round;stroke-miterlimit:2">
        <path
   d="m 4850.15,863.262 c -0.36,0 -0.71,-0.198 -0.89,-0.543 l -33.47,-65.081 c -0.26,-0.491 -0.06,-1.094 0.43,-1.347 0.49,-0.254 1.09,-0.058 1.34,0.433 l 33.48,65.081 c 0.25,0.491 0.06,1.093 -0.43,1.346 -0.15,0.076 -0.31,0.111 -0.46,0.111 z"
   style="fill:#ffffff;fill-rule:nonzero"
   id="path19" />

    </g>
    <g
       transform="matrix(0.09226444,0,0,0.10075862,-336.83992,142.00076)"
       id="g22"
       style="clip-rule:evenodd;fill-rule:evenodd;stroke-linejoin:round;stroke-miterlimit:2">
        <path
   d="m 4858.85,784.268 3.28,-6.388 z"
   style="fill:#ffffff;fill-rule:nonzero"
   id="path20" />

    </g>
    <g
       transform="matrix(0.09226444,0,0,0.10075862,-336.83992,142.00076)"
       id="g23"
       style="clip-rule:evenodd;fill-rule:evenodd;stroke-linejoin:round;stroke-miterlimit:2">
        <path
   d="m 4858.84,785.269 c -0.15,0 -0.3,-0.036 -0.45,-0.111 -0.49,-0.253 -0.69,-0.855 -0.43,-1.346 l 3.28,-6.389 c 0.25,-0.49 0.85,-0.685 1.35,-0.433 0.49,0.253 0.68,0.856 0.43,1.347 l -3.28,6.389 c -0.18,0.344 -0.53,0.543 -0.9,0.543 z"
   style="fill:#000010;fill-rule:nonzero"
   id="path21" />

    </g>
    <g
       transform="matrix(0.09226444,0,0,0.10075862,-336.83992,142.00076)"
       id="g24"
       style="clip-rule:evenodd;fill-rule:evenodd;stroke-linejoin:round;stroke-miterlimit:2">
        <path
   d="m 4943.42,831.196 -44.15,-1.826 -17.36,-25.887 -21.32,-3.752 -13.3,-2.544 c -1.64,2.283 -2.49,4.973 0.85,7.433 l 5.8,1.406 -12.74,1.552 c -1.28,0.618 -0.67,4.619 3.42,5.654 l 8.97,0.351 -9.63,4.924 c -0.53,0.286 -0.68,0.977 -0.32,1.456 1.78,2.319 4.82,3.264 7.59,2.355 l 10.01,-3.28 -8.44,8.012 0.44,0.422 c 1.85,1.811 4.65,2.241 6.97,1.068 l 9,-4.563 8.44,12.943 c 2.78,4.256 7.08,7.284 12.03,8.457 l 7.95,1.889 41.56,7.626 z"
   style="fill:#ffffff;fill-rule:nonzero"
   id="path22" />

    </g>
    <g
       transform="matrix(0.09226444,0,0,0.10075862,-336.83992,142.00076)"
       id="g25"
       style="clip-rule:evenodd;fill-rule:evenodd;stroke-linejoin:round;stroke-miterlimit:2">
        <path
   d="m 4939.19,855.892 c -0.06,0 -0.12,-0.005 -0.18,-0.017 l -41.56,-7.625 -8.01,-1.9 c -5.21,-1.238 -9.7,-4.393 -12.63,-8.884 l -7.95,-12.192 -8.2,4.158 c -2.7,1.366 -5.96,0.868 -8.12,-1.243 l -0.43,-0.424 c -0.2,-0.19 -0.31,-0.45 -0.31,-0.722 0.01,-0.271 0.12,-0.531 0.32,-0.718 l 5.21,-4.953 -5.79,1.897 c -3.17,1.043 -6.66,-0.045 -8.69,-2.699 -0.35,-0.461 -0.48,-1.05 -0.36,-1.617 0.12,-0.566 0.48,-1.05 0.99,-1.326 l 6.25,-3.194 -5.15,-0.202 c -0.06,-0.003 -0.13,-0.013 -0.2,-0.03 -3.02,-0.763 -4.57,-3.024 -4.76,-4.925 -0.12,-1.204 0.32,-2.2 1.15,-2.599 0.1,-0.047 0.2,-0.078 0.31,-0.091 l 7.27,-0.886 -0.45,-0.108 c -0.13,-0.031 -0.25,-0.088 -0.36,-0.167 -3.2,-2.363 -3.56,-5.331 -1.06,-8.82 0.22,-0.319 0.61,-0.473 1,-0.401 l 13.3,2.545 21.3,3.748 c 0.27,0.048 0.5,0.202 0.66,0.429 l 17.08,25.466 43.64,1.804 c 0.55,0.023 0.98,0.489 0.96,1.04 -0.02,0.553 -0.52,1.006 -1.04,0.958 l -44.15,-1.825 c -0.32,-0.012 -0.61,-0.178 -0.79,-0.442 l -17.13,-25.533 -20.89,-3.677 -12.67,-2.425 c -1.43,2.256 -1.18,3.859 0.83,5.405 l 5.59,1.358 c 0.47,0.113 0.79,0.548 0.77,1.03 -0.03,0.482 -0.4,0.876 -0.88,0.934 l -12.44,1.515 c -0.03,0.145 -0.07,0.544 0.12,1.113 0.15,0.46 0.82,1.992 3.03,2.589 l 8.86,0.348 c 0.45,0.018 0.84,0.34 0.93,0.784 0.1,0.445 -0.11,0.899 -0.52,1.106 l -9.63,4.924 c 1.54,1.937 4.14,2.747 6.51,1.97 l 10,-3.28 c 0.45,-0.149 0.93,0.036 1.17,0.437 0.24,0.402 0.17,0.915 -0.17,1.238 l -7.66,7.284 c 1.54,1.265 3.69,1.517 5.49,0.601 l 9,-4.563 c 0.46,-0.23 1.02,-0.081 1.29,0.346 l 8.45,12.943 c 2.64,4.06 6.7,6.911 11.42,8.03 l 7.96,1.89 41.5,7.614 c 0.55,0.1 0.91,0.621 0.81,1.164 -0.09,0.483 -0.51,0.82 -0.99,0.82 z"
   style="fill:#000010;fill-rule:nonzero"
   id="path23" />

    </g>
    <g
       transform="matrix(0.09226444,0,0,0.10075862,-336.83992,142.00076)"
       id="g26"
       style="clip-rule:evenodd;fill-rule:evenodd;stroke-linejoin:round;stroke-miterlimit:2">
        <path
   d="m 4873.34,807.695 c -0.03,0 -0.06,-0.001 -0.09,-0.004 l -12.01,-1.079 -7.95,0.413 c -0.55,0.023 -1.02,-0.395 -1.05,-0.947 -0.03,-0.552 0.39,-1.021 0.94,-1.051 l 8.03,-0.416 c 0.05,-0.002 0.09,-0.002 0.14,0.003 l 12.08,1.085 c 0.55,0.05 0.95,0.535 0.9,1.086 -0.04,0.52 -0.48,0.91 -0.99,0.91 z"
   style="fill:#000010;fill-rule:nonzero"
   id="path24" />

    </g>
    <g
       transform="matrix(0.09226444,0,0,0.10075862,-336.83992,142.00076)"
       id="g27"
       style="clip-rule:evenodd;fill-rule:evenodd;stroke-linejoin:round;stroke-miterlimit:2">
        <path
   d="m 4853.14,814.773 c -0.38,0 -0.74,-0.216 -0.91,-0.583 -0.23,-0.502 -0.01,-1.096 0.49,-1.327 l 6.1,-2.797 c 0.18,-0.08 0.37,-0.107 0.57,-0.08 l 11.47,1.714 c 0.55,0.082 0.92,0.591 0.84,1.137 -0.08,0.546 -0.59,0.919 -1.14,0.842 l -11.17,-1.67 -5.83,2.673 c -0.14,0.061 -0.28,0.091 -0.42,0.091 z"
   style="fill:#000010;fill-rule:nonzero"
   id="path25" />

    </g>
    <g
       transform="matrix(0.09226444,0,0,0.10075862,-336.83992,142.00076)"
       id="g28"
       style="clip-rule:evenodd;fill-rule:evenodd;stroke-linejoin:round;stroke-miterlimit:2">
        <path
   d="m 4860.94,820.176 c -0.29,0 -0.58,-0.125 -0.77,-0.365 -0.35,-0.428 -0.29,-1.058 0.13,-1.409 l 3,-2.456 c 0.13,-0.106 0.28,-0.178 0.45,-0.209 l 4.98,-0.934 c 0.55,-0.104 1.07,0.256 1.17,0.798 0.1,0.543 -0.26,1.065 -0.8,1.167 l -4.73,0.887 -2.8,2.294 c -0.18,0.153 -0.41,0.227 -0.63,0.227 z"
   style="fill:#000010;fill-rule:nonzero"
   id="path26" />

    </g>
    <g
       transform="matrix(0.09226444,0,0,0.10075862,-336.83992,142.00076)"
       id="g29"
       style="clip-rule:evenodd;fill-rule:evenodd;stroke-linejoin:round;stroke-miterlimit:2">
        <path
   d="m 4870.47,847.963 3,7.823 c 0,0 7.99,-1.289 8.32,-0.592 0.82,1.685 -5,9.988 -9.37,11.099 -8.56,2.179 -22.14,2.898 -24.89,-4.104 -2.76,-7.001 -4.91,-18.433 -4.91,-18.433 0,0 5.43,-1.756 6.67,2.191 1.74,5.525 4.9,10.862 4.9,10.862 l -0.1,-17.191 c 0,0 3.02,-0.748 5.75,0.096 2.74,0.845 7.21,0.904 10.63,8.249 z"
   style="fill:#ffffff;fill-rule:nonzero"
   id="path27" />

    </g>
    <g
       transform="matrix(0.09226444,0,0,0.10075862,-336.83992,142.00076)"
       id="g30"
       style="clip-rule:evenodd;fill-rule:evenodd;stroke-linejoin:round;stroke-miterlimit:2">
        <path
   d="m 4860.52,868.728 c -5.96,0 -11.66,-1.396 -13.9,-6.109 -3.37,-7.086 -4.89,-18.704 -4.96,-19.195 -0.06,-0.513 0.27,-0.991 0.78,-1.104 0.23,-0.053 5.69,-1.224 7.52,2.624 0.59,1.24 1.17,2.864 1.78,4.582 0.99,2.797 2.23,6.277 3.37,7.208 0.43,0.35 0.49,0.98 0.14,1.408 -0.34,0.427 -0.97,0.494 -1.4,0.143 -1.58,-1.285 -2.75,-4.59 -3.99,-8.089 -0.6,-1.67 -1.16,-3.246 -1.7,-4.392 -0.8,-1.683 -3.08,-1.762 -4.37,-1.654 0.44,2.967 1.96,11.97 4.64,17.61 3.38,7.125 17.76,4.859 23.78,3.555 0.54,-0.117 1.07,0.227 1.19,0.766 0.12,0.54 -0.23,1.072 -0.76,1.19 -3.38,0.731 -7.82,1.457 -12.12,1.457 z"
   style="fill:#000010;fill-rule:nonzero"
   id="path28" />

    </g>
    <g
       transform="matrix(0.09226444,0,0,0.10075862,-336.83992,142.00076)"
       id="g31"
       style="clip-rule:evenodd;fill-rule:evenodd;stroke-linejoin:round;stroke-miterlimit:2">
        <path
   d="m 4855.02,863.679 c -0.53,0 -0.97,-0.414 -1,-0.948 l -1.19,-22.975 c -0.02,-0.378 0.18,-0.735 0.5,-0.922 1.52,-0.862 4.85,-1.767 6.55,0.987 0.29,0.47 0.15,1.086 -0.32,1.377 -0.47,0.291 -1.09,0.146 -1.38,-0.324 -0.82,-1.33 -2.46,-0.899 -3.32,-0.552 l 1.16,22.305 c 0.03,0.552 -0.4,1.021 -0.95,1.051 -0.02,10e-4 -0.03,10e-4 -0.05,10e-4 z"
   style="fill:#000010;fill-rule:nonzero"
   id="path29" />

    </g>
    <g
       transform="matrix(0.09226444,0,0,0.10075862,-336.83992,142.00076)"
       id="g32"
       style="clip-rule:evenodd;fill-rule:evenodd;stroke-linejoin:round;stroke-miterlimit:2">
        <path
   d="m 4861.58,863.549 c -0.51,0 -0.94,-0.384 -1,-0.9 l -2.35,-23.361 c -0.03,-0.278 0.06,-0.556 0.25,-0.765 0.18,-0.208 0.45,-0.331 0.73,-0.335 0.2,-0.002 5.09,-0.055 6.14,3.132 0.85,2.569 3.59,18.808 3.7,19.497 0.1,0.545 -0.27,1.061 -0.82,1.153 -0.55,0.082 -1.06,-0.277 -1.15,-0.821 -0.97,-5.792 -2.98,-17.26 -3.63,-19.2 -0.36,-1.085 -1.92,-1.532 -3.11,-1.689 l 2.24,22.188 c 0.05,0.55 -0.35,1.04 -0.9,1.096 -0.03,0.003 -0.07,0.005 -0.1,0.005 z"
   style="fill:#000010;fill-rule:nonzero"
   id="path30" />

    </g>
    <g
       transform="matrix(0.09226444,0,0,0.10075862,-336.83992,142.00076)"
       id="g33"
       style="clip-rule:evenodd;fill-rule:evenodd;stroke-linejoin:round;stroke-miterlimit:2">
        <path
   d="m 4873.42,859.767 c -0.51,0 -0.94,-0.38 -1,-0.893 -0.47,-4.373 -2.82,-15.777 -7.91,-16.022 -0.55,-0.027 -0.98,-0.495 -0.95,-1.047 0.02,-0.552 0.5,-0.975 1.04,-0.951 3.4,0.164 6.08,3.286 7.99,9.28 1.35,4.233 1.8,8.351 1.82,8.525 0.06,0.549 -0.33,1.042 -0.88,1.102 -0.04,0.004 -0.08,0.006 -0.11,0.006 z"
   style="fill:#000010;fill-rule:nonzero"
   id="path31" />

    </g>
    <g
       transform="matrix(0.09226444,0,0,0.10075862,-336.83992,142.00076)"
       id="g34"
       style="clip-rule:evenodd;fill-rule:evenodd;stroke-linejoin:round;stroke-miterlimit:2">
        <path
   d="m 4860.52,868.728 c -5.96,0 -11.66,-1.396 -13.9,-6.109 -0.24,-0.499 -0.02,-1.096 0.48,-1.333 0.5,-0.236 1.09,-0.025 1.33,0.474 3.38,7.125 17.76,4.859 23.78,3.555 4.77,-1.031 7.52,-6.159 8.99,-10.278 0.19,-0.52 0.76,-0.795 1.28,-0.605 0.52,0.185 0.79,0.758 0.61,1.277 -1.64,4.598 -4.79,10.335 -10.45,11.562 -3.38,0.731 -7.82,1.457 -12.12,1.457 z"
   style="fill:#000010;fill-rule:nonzero"
   id="path32" />

    </g>
    <g
       transform="matrix(0.09226444,0,0,0.10075862,-336.83992,142.00076)"
       id="g35"
       style="clip-rule:evenodd;fill-rule:evenodd;stroke-linejoin:round;stroke-miterlimit:2">
        <path
   d="m 4944.11,833.754 c -0.54,0 -0.98,-0.433 -1,-0.977 -0.01,-0.552 0.43,-1.01 0.98,-1.023 l 35.9,-0.836 c 0.52,0.013 1.01,0.425 1.03,0.977 0.01,0.552 -0.43,1.01 -0.98,1.023 l -35.9,0.836 z"
   style="fill:#ffffff;fill-rule:nonzero"
   id="path33" />

    </g>
    <g
       transform="matrix(0.09226444,0,0,0.10075862,-336.83992,142.00076)"
       id="g36"
       style="clip-rule:evenodd;fill-rule:evenodd;stroke-linejoin:round;stroke-miterlimit:2">
        <path
   d="m 4969.57,833.325 c -0.34,0 -0.68,-0.177 -0.86,-0.495 l -9.76,-16.693 c -0.28,-0.478 -0.12,-1.09 0.36,-1.368 0.48,-0.279 1.09,-0.118 1.37,0.358 l 9.75,16.693 c 0.28,0.478 0.12,1.09 -0.36,1.369 -0.16,0.092 -0.33,0.136 -0.5,0.136 z"
   style="fill:#ffffff;fill-rule:nonzero"
   id="path34" />

    </g>
    <g
       transform="matrix(0.09226444,0,0,0.10075862,-336.83992,142.00076)"
       id="g37"
       style="clip-rule:evenodd;fill-rule:evenodd;stroke-linejoin:round;stroke-miterlimit:2">
        <path
   d="m 4941.31,785.613 c 1.14,-4.743 0.74,-9.447 -0.82,-13.528 l -10.84,1.591 -26.41,11.304 c 1.03,8.203 6.46,15.096 14.27,16.971 10.38,2.492 21.04,-4.823 23.8,-16.338 z"
   style="fill:#ffffff;fill-rule:nonzero"
   id="path35" />

    </g>
    <g
       transform="matrix(0.09226444,0,0,0.10075862,-336.83992,142.00076)"
       id="g38"
       style="clip-rule:evenodd;fill-rule:evenodd;stroke-linejoin:round;stroke-miterlimit:2">
        <path
   d="m 4717.41,950.856 h 84.14 l -8.33,-74.681 c -0.99,-8.854 -7.45,-16.126 -16.12,-18.15 -3.59,-0.837 -7.34,-0.717 -10.87,0.348 l -26.54,8.018 -23.94,17.624 c 0,0 2,67.174 1.66,66.841 z"
   style="fill:#bced09;fill-rule:nonzero"
   id="path36" />

    </g>
    <g
       transform="matrix(0.09226444,0,0,0.10075862,-336.83992,142.00076)"
       id="g39"
       style="clip-rule:evenodd;fill-rule:evenodd;stroke-linejoin:round;stroke-miterlimit:2">
        <path
   d="m 4730.26,872.137 -5.18,-56.588 28.63,-2.618 4.42,48.304 3.18,-0.564 c 8.51,5.507 13.06,14.228 10.56,21.969 -3.19,9.896 -16.64,14.416 -30.06,10.095 -8.44,-2.719 -14.84,-8.292 -17.64,-14.517 z"
   style="fill:#ffffff;fill-rule:nonzero"
   id="path37" />

    </g>
    <g
       transform="matrix(0.09226444,0,0,0.10075862,-336.83992,142.00076)"
       id="g40"
       style="clip-rule:evenodd;fill-rule:evenodd;stroke-linejoin:round;stroke-miterlimit:2">
        <path
   d="m 4725.37,878.429 c 2.93,5.94 9.14,10.902 16.75,13.354 6.29,2.025 12.76,2.126 18.24,0.288 5.37,-1.803 9.12,-5.261 10.56,-9.738 2.24,-6.961 -1.7,-15.202 -9.83,-20.608 l -2.79,0.495 c -0.27,0.052 -0.56,-0.02 -0.78,-0.19 -0.22,-0.17 -0.36,-0.424 -0.39,-0.704 l -4.32,-47.308 -26.64,2.435 5.08,55.594 c 0.03,0.296 -0.08,0.589 -0.29,0.799 z m 26.64,16.95 c -3.44,0 -7.01,-0.565 -10.5,-1.691 -8.41,-2.708 -15.23,-8.338 -18.26,-15.059 -0.17,-0.379 -0.08,-0.824 0.21,-1.118 l 5.76,-5.749 -5.14,-56.122 c -0.04,-0.55 0.36,-1.036 0.91,-1.087 l 28.63,-2.618 c 0.54,-0.046 1.04,0.355 1.09,0.905 l 4.31,47.221 2.11,-0.374 c 0.25,-0.046 0.51,0.006 0.72,0.144 9.12,5.9 13.53,15.189 10.97,23.115 -1.64,5.096 -5.84,9.01 -11.82,11.021 -2.81,0.941 -5.85,1.412 -8.99,1.412 z"
   style="fill:#000010;fill-rule:nonzero"
   id="path38" />

    </g>
    <g
       transform="matrix(0.09226444,0,0,0.10075862,-336.83992,142.00076)"
       id="g41"
       style="clip-rule:evenodd;fill-rule:evenodd;stroke-linejoin:round;stroke-miterlimit:2">
        <path
   d="m 4724.98,792.775 2.8,3.568 c 0.59,-0.247 1.19,-0.457 1.79,-0.636 3.07,3.51 5.72,7.592 7.75,12.169 6.32,14.204 4.69,36.75 -7.28,42.558 -0.81,0.36 -14.8,-6.051 -18.9,-15.889 l -1.68,-4.032 c -6.11,-14.648 0.88,-31.63 15.52,-37.738 z"
   style="fill:#000010;fill-rule:nonzero"
   id="path39" />

    </g>
    <g
       transform="matrix(0.09226444,0,0,0.10075862,-336.83992,142.00076)"
       id="g42"
       style="clip-rule:evenodd;fill-rule:evenodd;stroke-linejoin:round;stroke-miterlimit:2">
        <path
   d="m 4730.62,826.175 c -2.55,-7.896 -0.17,-16.879 6.26,-21.621 4,-2.956 8.78,-3.673 13.17,-2.432 -2.22,0.48 -8.38,2.185 -9.14,6.477 -0.92,5.248 0.01,14.952 -10.29,17.576 z"
   style="fill:#000010;fill-rule:nonzero"
   id="path40" />

    </g>
    <g
       transform="matrix(0.09226444,0,0,0.10075862,-336.83992,142.00076)"
       id="g43"
       style="clip-rule:evenodd;fill-rule:evenodd;stroke-linejoin:round;stroke-miterlimit:2">
        <path
   d="m 4762.39,798.662 c 2.46,5.897 -0.33,12.672 -6.23,15.131 -5.9,2.459 -12.67,-0.328 -15.13,-6.225 -2.46,-5.898 0.33,-12.672 6.22,-15.132 5.9,-2.459 12.68,0.328 15.14,6.226 z"
   style="fill:#000010;fill-rule:nonzero"
   id="path41" />

    </g>
    <g
       transform="matrix(0.09226444,0,0,0.10075862,-336.83992,142.00076)"
       id="g44"
       style="clip-rule:evenodd;fill-rule:evenodd;stroke-linejoin:round;stroke-miterlimit:2">
        <path
   d="m 4722.11,797.858 c -10.94,6.284 -15.9,19.689 -11.38,31.712 3.32,0.643 6.91,0.34 10.33,-1.085 8.88,-3.704 13.23,-13.557 9.7,-22.007 -1.68,-4.025 -4.84,-7.002 -8.65,-8.62 z"
   style="fill:#000010;fill-rule:nonzero"
   id="path42" />

    </g>
    <g
       transform="matrix(0.09226444,0,0,0.10075862,-336.83992,142.00076)"
       id="g45"
       style="clip-rule:evenodd;fill-rule:evenodd;stroke-linejoin:round;stroke-miterlimit:2">
        <path
   d="m 4740.7,798.764 c 2.46,5.898 -0.33,12.672 -6.23,15.132 -5.9,2.459 -12.67,-0.328 -15.13,-6.225 -2.46,-5.898 0.33,-12.672 6.22,-15.132 5.9,-2.459 12.68,0.328 15.14,6.225 z"
   style="fill:#000010;fill-rule:nonzero"
   id="path43" />

    </g>
    <g
       transform="matrix(0.09226444,0,0,0.10075862,-336.83992,142.00076)"
       id="g46"
       style="clip-rule:evenodd;fill-rule:evenodd;stroke-linejoin:round;stroke-miterlimit:2">
        <path
   d="m 4753.37,794.106 c 2.53,6.066 -0.34,13.033 -6.4,15.563 -6.07,2.529 -13.04,-0.337 -15.57,-6.403 -2.52,-6.065 0.34,-13.033 6.41,-15.562 6.06,-2.53 13.03,0.337 15.56,6.402 z"
   style="fill:#000010;fill-rule:nonzero"
   id="path44" />

    </g>
    <g
       transform="matrix(0.09226444,0,0,0.10075862,-336.83992,142.00076)"
       id="g47"
       style="clip-rule:evenodd;fill-rule:evenodd;stroke-linejoin:round;stroke-miterlimit:2">
        <path
   d="m 4713.73,811.41 c -0.3,0 -0.59,-0.131 -0.79,-0.382 -1.94,-2.463 -5.6,-1.762 -5.63,-1.755 -0.54,0.11 -1.07,-0.243 -1.18,-0.785 -0.11,-0.541 0.24,-1.068 0.78,-1.176 0.2,-0.039 4.91,-0.939 7.6,2.48 0.34,0.434 0.27,1.063 -0.17,1.404 -0.18,0.144 -0.4,0.214 -0.61,0.214 z"
   style="fill:#000010;fill-rule:nonzero"
   id="path45" />

    </g>
    <g
       transform="matrix(0.09226444,0,0,0.10075862,-336.83992,142.00076)"
       id="g48"
       style="clip-rule:evenodd;fill-rule:evenodd;stroke-linejoin:round;stroke-miterlimit:2">
        <path
   d="m 4714.05,810.97 c -0.06,0 -0.12,-0.005 -0.17,-0.016 -4.29,-0.755 -5.72,-5.328 -5.78,-5.522 -0.16,-0.529 0.14,-1.087 0.67,-1.247 0.52,-0.159 1.08,0.138 1.24,0.665 0.02,0.065 1.16,3.597 4.21,4.135 0.55,0.096 0.91,0.615 0.81,1.159 -0.08,0.485 -0.5,0.826 -0.98,0.826 z"
   style="fill:#000010;fill-rule:nonzero"
   id="path46" />

    </g>
    <g
       transform="matrix(0.09226444,0,0,0.10075862,-336.83992,142.00076)"
       id="g49"
       style="clip-rule:evenodd;fill-rule:evenodd;stroke-linejoin:round;stroke-miterlimit:2">
        <path
   d="m 4739.62,839.029 -3.61,0.773 c -3.91,0.838 -7.76,-1.654 -8.6,-5.566 -0.74,-3.45 1.11,-6.849 4.24,-8.18 -2.63,-7.558 0.05,-16.227 7.02,-20.872 8.26,-5.507 19.42,-3.273 24.93,4.989 l 1.1,1.653 c 1.76,-0.917 3.96,-0.386 5.08,1.312 1.1,1.682 0.73,3.885 -0.78,5.145 l 2.18,3.275 c -1.53,1.303 -3.39,2.486 -5.5,3.425 -0.97,0.432 -1.95,0.785 -2.91,1.074 2.81,1.106 6.85,1.003 11.02,-0.424 4.26,8.054 1.81,18.183 -5.94,23.344 -6.14,4.097 -13.89,3.91 -19.73,0.143 z"
   style="fill:#ffffff;fill-rule:nonzero"
   id="path47" />

    </g>
    <g
       transform="matrix(0.09226444,0,0,0.10075862,-336.83992,142.00076)"
       id="g50"
       style="clip-rule:evenodd;fill-rule:evenodd;stroke-linejoin:round;stroke-miterlimit:2">
        <path
   d="m 4757.88,852.998 c -3.58,0 -7.16,-1.012 -10.3,-3.038 -0.47,-0.299 -0.6,-0.918 -0.3,-1.382 0.3,-0.464 0.92,-0.598 1.38,-0.298 5.69,3.672 13.01,3.618 18.64,-0.135 7.04,-4.694 9.52,-13.722 5.98,-21.296 -4.04,1.227 -7.97,1.283 -10.88,0.138 -0.4,-0.156 -0.65,-0.547 -0.63,-0.972 0.02,-0.426 0.3,-0.794 0.71,-0.916 0.96,-0.288 1.9,-0.634 2.79,-1.031 1.67,-0.741 3.21,-1.652 4.58,-2.713 l -1.68,-2.517 c -0.28,-0.425 -0.2,-0.994 0.19,-1.321 1.14,-0.952 1.39,-2.599 0.58,-3.83 -0.82,-1.249 -2.45,-1.67 -3.78,-0.973 -0.45,0.236 -1.01,0.092 -1.29,-0.333 l -1.11,-1.652 c -2.51,-3.775 -6.34,-6.343 -10.79,-7.233 -4.45,-0.89 -8.97,0.005 -12.75,2.521 -6.45,4.298 -9.17,12.403 -6.62,19.71 0.17,0.497 -0.07,1.043 -0.56,1.249 -2.74,1.167 -4.28,4.132 -3.65,7.05 0.35,1.631 1.31,3.029 2.71,3.935 1.4,0.905 3.07,1.211 4.7,0.863 l 3.61,-0.772 c 0.54,-0.122 1.07,0.227 1.18,0.767 0.12,0.54 -0.22,1.073 -0.76,1.188 l -3.61,0.772 c -2.15,0.464 -4.35,0.058 -6.2,-1.139 -1.85,-1.197 -3.13,-3.041 -3.59,-5.195 -0.76,-3.549 0.91,-7.153 4.01,-8.903 -2.37,-7.941 0.71,-16.55 7.67,-21.189 4.22,-2.812 9.28,-3.814 14.25,-2.818 4.97,0.995 9.26,3.865 12.07,8.084 l 0.65,0.975 c 2.06,-0.631 4.32,0.143 5.53,1.996 1.2,1.823 1.03,4.181 -0.32,5.815 l 1.73,2.598 c 0.28,0.423 0.2,0.989 -0.19,1.317 -1.61,1.368 -3.45,2.531 -5.48,3.458 2.16,0.122 4.64,-0.245 7.11,-1.091 0.47,-0.159 0.98,0.044 1.21,0.478 4.56,8.63 1.87,19.224 -6.26,24.644 -3.19,2.125 -6.86,3.189 -10.53,3.189 z"
   style="fill:#000010;fill-rule:nonzero"
   id="path48" />

    </g>
    <g
       transform="matrix(0.09226444,0,0,0.10075862,-336.83992,142.00076)"
       id="g51"
       style="clip-rule:evenodd;fill-rule:evenodd;stroke-linejoin:round;stroke-miterlimit:2">
        <path
   d="m 4734.03,841.922 c -3.81,0 -7.23,-2.652 -8.06,-6.518 -0.12,-0.54 0.23,-1.072 0.77,-1.187 0.54,-0.118 1.07,0.228 1.18,0.767 0.73,3.368 4.05,5.516 7.42,4.798 0.54,-0.12 1.07,0.229 1.19,0.768 0.11,0.54 -0.23,1.072 -0.77,1.187 -0.58,0.125 -1.16,0.185 -1.73,0.185 z"
   style="fill:#000010;fill-rule:nonzero"
   id="path49" />

    </g>
    <g
       transform="matrix(0.09226444,0,0,0.10075862,-336.83992,142.00076)"
       id="g52"
       style="clip-rule:evenodd;fill-rule:evenodd;stroke-linejoin:round;stroke-miterlimit:2">
        <path
   d="m 4736,835.417 c -0.41,0 -0.8,-0.259 -0.94,-0.671 -0.76,-2.189 -2.95,-2.335 -3.04,-2.34 -0.55,-0.03 -0.98,-0.498 -0.95,-1.047 0.03,-0.548 0.47,-0.979 1.04,-0.951 0.14,0.006 3.62,0.187 4.84,3.68 0.18,0.521 -0.1,1.092 -0.62,1.273 -0.11,0.038 -0.22,0.056 -0.33,0.056 z"
   style="fill:#000010;fill-rule:nonzero"
   id="path50" />

    </g>
    <g
       transform="matrix(0.09226444,0,0,0.10075862,-336.83992,142.00076)"
       id="g53"
       style="clip-rule:evenodd;fill-rule:evenodd;stroke-linejoin:round;stroke-miterlimit:2">
        <path
   d="m 4760.68,814.026 c 0.42,0.916 0.15,1.94 -0.61,2.287 -0.76,0.348 -1.71,-0.113 -2.13,-1.028 -0.42,-0.916 -0.15,-1.94 0.61,-2.287 0.75,-0.348 1.71,0.113 2.13,1.028 z"
   style="fill:#000010;fill-rule:nonzero"
   id="path51" />

    </g>
    <g
       transform="matrix(0.09226444,0,0,0.10075862,-336.83992,142.00076)"
       id="g54"
       style="clip-rule:evenodd;fill-rule:evenodd;stroke-linejoin:round;stroke-miterlimit:2">
        <path
   d="m 4756.41,809.155 c 0.49,0.392 0.01,1.819 -1.07,3.188 -1.09,1.368 -2.37,2.16 -2.86,1.768 -0.5,-0.392 -0.02,-1.819 1.07,-3.188 1.08,-1.368 2.36,-2.16 2.86,-1.768 z"
   style="fill:#000010;fill-rule:nonzero"
   id="path52" />

    </g>
    <g
       transform="matrix(0.09226444,0,0,0.10075862,-336.83992,142.00076)"
       id="g55"
       style="clip-rule:evenodd;fill-rule:evenodd;stroke-linejoin:round;stroke-miterlimit:2">
        <path
   d="m 4733.87,808.584 c -6.54,3.139 -9.83,11.376 -7.56,19.515 1.91,0.694 4.01,0.8 6.04,0.166 5.27,-1.646 8.09,-7.642 6.29,-13.392 -0.85,-2.739 -2.6,-4.925 -4.77,-6.289 z"
   style="fill:#000010;fill-rule:nonzero"
   id="path53" />

    </g>
    <g
       transform="matrix(0.09226444,0,0,0.10075862,-336.83992,142.00076)"
       id="g56"
       style="clip-rule:evenodd;fill-rule:evenodd;stroke-linejoin:round;stroke-miterlimit:2">
        <path
   d="m 4792.12,855.791 c 0.16,8.351 8.46,14.966 18.55,14.775 10.08,-0.191 18.12,-7.116 17.96,-15.468 -0.15,-8.351 -8.46,-14.966 -18.54,-14.775 -10.08,0.191 -18.12,7.116 -17.97,15.468 z"
   style="fill:#000010;fill-rule:nonzero"
   id="path54" />

    </g>
    <g
       transform="matrix(0.09226444,0,0,0.10075862,-336.83992,142.00076)"
       id="g57"
       style="clip-rule:evenodd;fill-rule:evenodd;stroke-linejoin:round;stroke-miterlimit:2">
        <path
   d="m 4775.07,868.369 c 16.1,-23.564 39.38,-12.221 43.14,-8.481 0.88,0.877 1.73,1.723 2.57,2.535 1.56,1.199 2.98,2.508 4.26,3.909 3.17,2.642 6.04,4.251 8.79,3.924 1.94,-0.23 5.7,6.123 7.05,13.819 -3.97,-0.087 -7.81,-0.651 -11.4,-1.685 2.78,3.794 7,6.38 11.89,7.59 -0.11,7.405 -3.14,14.848 -12.45,18.245 0,0 -5.18,2.709 -11.37,3.213 l -0.11,28.895 -31.08,-0.118 -1.75,-26.316 c -0.49,-0.316 -0.98,-0.644 -1.46,-0.989 -14.59,-10.464 -17.88,-30.178 -8.08,-44.541 z"
   style="fill:#ffffff;fill-rule:nonzero"
   id="path55" />

    </g>
    <g
       transform="matrix(0.09226444,0,0,0.10075862,-336.83992,142.00076)"
       id="g58"
       style="clip-rule:evenodd;fill-rule:evenodd;stroke-linejoin:round;stroke-miterlimit:2">
        <path
   d="m 4787.3,939.219 29.14,0.11 0.11,-27.894 c 0,-0.52 0.4,-0.951 0.92,-0.994 5.9,-0.481 10.94,-3.077 10.99,-3.103 0.04,-0.02 0.08,-0.038 0.12,-0.053 9.18,-3.35 11.51,-10.684 11.76,-16.541 -4.92,-1.378 -8.94,-4.051 -11.67,-7.762 -0.25,-0.345 -0.26,-0.813 -0.01,-1.165 0.24,-0.35 0.68,-0.507 1.09,-0.388 3.13,0.899 6.46,1.437 9.91,1.603 -1.49,-6.988 -4.71,-11.707 -5.73,-11.782 -2.74,0.329 -5.69,-0.951 -9.53,-4.149 -0.03,-0.03 -0.06,-0.06 -0.09,-0.093 -1.26,-1.366 -2.65,-2.642 -4.14,-3.791 -0.03,-0.025 -0.06,-0.05 -0.09,-0.077 -0.84,-0.815 -1.69,-1.664 -2.58,-2.542 -1.76,-1.759 -10.14,-6.563 -20.08,-5.615 -8.51,0.803 -15.75,5.497 -21.52,13.951 -9.65,14.132 -6.21,33.092 7.84,43.164 0.46,0.334 0.94,0.652 1.42,0.96 0.26,0.172 0.43,0.459 0.45,0.775 z m 30.14,2.114 h -0.01 l -31.07,-0.118 c -0.53,-0.002 -0.96,-0.41 -1,-0.934 l -1.71,-25.816 c -0.36,-0.239 -0.72,-0.486 -1.08,-0.741 -14.94,-10.71 -18.59,-30.88 -8.32,-45.919 6.12,-8.967 13.86,-13.951 22.99,-14.813 9.98,-0.938 19.04,3.566 21.68,6.188 0.86,0.859 1.7,1.689 2.51,2.487 1.55,1.196 3,2.522 4.31,3.94 3.35,2.785 5.8,3.909 7.97,3.656 3.07,-0.351 6.91,7.569 8.15,14.639 0.05,0.295 -0.03,0.598 -0.22,0.825 -0.2,0.226 -0.48,0.349 -0.78,0.348 -2.93,-0.064 -5.78,-0.383 -8.52,-0.95 2.44,2.306 5.59,3.974 9.27,4.884 0.45,0.111 0.76,0.519 0.76,0.984 -0.1,6.586 -2.43,15.247 -13.04,19.15 -0.61,0.307 -5.17,2.553 -10.79,3.202 l -0.1,27.992 c -0.01,0.551 -0.45,0.996 -1,0.996 z"
   style="fill:#000010;fill-rule:nonzero"
   id="path56" />

    </g>
    <g
       transform="matrix(0.09226444,0,0,0.10075862,-336.83992,142.00076)"
       id="g59"
       style="clip-rule:evenodd;fill-rule:evenodd;stroke-linejoin:round;stroke-miterlimit:2">
        <path
   d="m 4839.12,930.804 c 0.17,8.924 -6.93,16.296 -15.85,16.465 -8.93,0.169 -16.3,-6.928 -16.47,-15.853 -0.17,-8.924 6.93,-16.296 15.85,-16.465 8.93,-0.169 16.3,6.928 16.47,15.853 z"
   style="fill:#000010;fill-rule:nonzero"
   id="path57" />

    </g>
    <g
       transform="matrix(0.09226444,0,0,0.10075862,-336.83992,142.00076)"
       id="g60"
       style="clip-rule:evenodd;fill-rule:evenodd;stroke-linejoin:round;stroke-miterlimit:2">
        <path
   d="m 4778.73,852.565 c 10.09,-5.771 21.97,-5.652 31.87,-0.769 -3.03,0.786 -6,1.953 -8.82,3.568 -19.16,10.961 -24.68,37.323 -12.35,58.882 0.69,1.197 1.42,2.349 2.18,3.465 -10.07,-1.679 -19.43,-7.823 -25.01,-17.561 -9.67,-16.91 -4.24,-38.214 12.13,-47.585 z"
   style="fill:#000010;fill-rule:nonzero"
   id="path58" />

    </g>
    <g
       transform="matrix(0.09226444,0,0,0.10075862,-336.83992,142.00076)"
       id="g61"
       style="clip-rule:evenodd;fill-rule:evenodd;stroke-linejoin:round;stroke-miterlimit:2">
        <path
   d="m 4812.76,849.548 c 0,0 -2.53,9.261 -10.14,13.872 -4.03,2.438 3.76,1.549 3.25,6.4 -3.8,36.341 -6.56,43.254 -6.56,43.254 -0.62,3.126 -3.2,5.484 -6.37,5.817 l -9.54,1.005 -3.17,-8.716 -5.59,-37.71 c 0,0 19.08,-28.676 38.12,-23.922 z"
   style="fill:#000010;fill-rule:nonzero"
   id="path59" />

    </g>
    <g
       transform="matrix(0.09226444,0,0,0.10075862,-336.83992,142.00076)"
       id="g62"
       style="clip-rule:evenodd;fill-rule:evenodd;stroke-linejoin:round;stroke-miterlimit:2">
        <path
   d="m 4812.49,870.409 c -0.32,0 -0.64,-0.158 -0.84,-0.45 -0.87,-1.329 -0.87,-3.67 -0.01,-5.693 0.94,-2.187 2.67,-3.612 4.88,-4.013 0.55,-0.099 1.06,0.264 1.16,0.806 0.1,0.544 -0.26,1.064 -0.8,1.163 -2.06,0.373 -3.02,1.934 -3.4,2.831 -0.65,1.512 -0.58,3.153 -0.15,3.806 0.3,0.462 0.17,1.082 -0.29,1.386 -0.17,0.112 -0.36,0.164 -0.55,0.164 z"
   style="fill:#000010;fill-rule:nonzero"
   id="path60" />

    </g>
    <g
       transform="matrix(0.09226444,0,0,0.10075862,-336.83992,142.00076)"
       id="g63"
       style="clip-rule:evenodd;fill-rule:evenodd;stroke-linejoin:round;stroke-miterlimit:2">
        <path
   d="m 4820.94,871.074 c 0.86,0.472 1.82,0.358 2.16,-0.255 0.34,-0.613 -0.07,-1.492 -0.92,-1.965 -0.86,-0.472 -1.82,-0.358 -2.16,0.255 -0.34,0.613 0.07,1.492 0.92,1.965 z"
   style="fill:#000010;fill-rule:nonzero"
   id="path61" />

    </g>
    <g
       transform="matrix(0.09226444,0,0,0.10075862,-336.83992,142.00076)"
       id="g64"
       style="clip-rule:evenodd;fill-rule:evenodd;stroke-linejoin:round;stroke-miterlimit:2">
        <path
   d="m 4804.59,866.593 c 0,0 13.26,9.288 11.76,16.13 -1.51,6.843 -13.47,8.432 -11.89,20.122 1.59,11.69 3.64,17.402 17.85,17.86 18.95,0.612 22.82,4.007 23.02,14.633 0.2,10.626 -45.44,-0.789 -45.44,-0.789 0,0 -16.95,-16.85 4.7,-67.956 z"
   style="fill:#000010;fill-rule:nonzero"
   id="path62" />

    </g>
    <g
       transform="matrix(0.09226444,0,0,0.10075862,-336.83992,142.00076)"
       id="g65"
       style="clip-rule:evenodd;fill-rule:evenodd;stroke-linejoin:round;stroke-miterlimit:2">
        <path
   d="m 4815.11,894.673 c 0.09,5.158 -4.01,9.419 -9.17,9.517 -5.15,0.097 -9.41,-4.005 -9.51,-9.163 -0.1,-5.158 4,-9.418 9.16,-9.516 5.16,-0.098 9.42,4.004 9.52,9.162 z"
   style="fill:#ffffff;fill-rule:nonzero"
   id="path63" />

    </g>
    <g
       transform="matrix(0.09226444,0,0,0.10075862,-336.83992,142.00076)"
       id="g66"
       style="clip-rule:evenodd;fill-rule:evenodd;stroke-linejoin:round;stroke-miterlimit:2">
        <path
   d="m 4810,898.025 c -0.55,0 -0.99,-0.435 -1,-0.981 -0.05,-2.55 -4.22,-4.279 -5.82,-4.73 -0.53,-0.15 -0.85,-0.702 -0.7,-1.233 0.15,-0.531 0.7,-0.844 1.24,-0.693 0.29,0.082 7.19,2.061 7.28,6.619 0.01,0.552 -0.43,1.008 -0.98,1.018 z"
   style="fill:#000010;fill-rule:nonzero"
   id="path64" />

    </g>
    <g
       transform="matrix(0.09226444,0,0,0.10075862,-336.83992,142.00076)"
       id="g67"
       style="clip-rule:evenodd;fill-rule:evenodd;stroke-linejoin:round;stroke-miterlimit:2">
        <path
   d="m 4779.26,924.065 c 0.17,8.831 -6.85,16.125 -15.68,16.293 -8.84,0.167 -16.13,-6.856 -16.3,-15.686 -0.16,-8.831 6.86,-16.125 15.69,-16.293 8.83,-0.167 16.12,6.856 16.29,15.686 z"
   style="fill:#000010;fill-rule:nonzero"
   id="path65" />

    </g>
    <g
       transform="matrix(0.09226444,0,0,0.10075862,-336.83992,142.00076)"
       id="g68"
       style="clip-rule:evenodd;fill-rule:evenodd;stroke-linejoin:round;stroke-miterlimit:2">
        <path
   d="m 4731.82,951.3 c 4.39,-6.118 11.4,-10.687 19.85,-12.328 l 74.25,-14.408 c 14,-2.717 28.43,2.593 36.12,13.3 2.98,4.155 6.32,8.702 9.82,13.436 z"
   style="fill:#ffffff;fill-rule:nonzero"
   id="path66" />

    </g>
    <g
       transform="matrix(0.09226444,0,0,0.10075862,-336.83992,142.00076)"
       id="g69"
       style="clip-rule:evenodd;fill-rule:evenodd;stroke-linejoin:round;stroke-miterlimit:2">
        <path
   d="m 4731.82,952.3 c -0.2,0 -0.4,-0.061 -0.58,-0.187 -0.45,-0.322 -0.55,-0.946 -0.23,-1.395 4.7,-6.558 11.97,-11.078 20.47,-12.728 l 74.25,-14.407 c 14.32,-2.782 29.24,2.725 37.12,13.698 2.8,3.896 6.01,8.287 9.81,13.424 0.33,0.443 0.24,1.07 -0.2,1.399 -0.45,0.329 -1.07,0.235 -1.4,-0.209 -3.81,-5.144 -7.03,-9.543 -9.83,-13.448 -7.44,-10.35 -21.55,-15.533 -35.12,-12.901 l -74.25,14.407 c -8,1.553 -14.82,5.789 -19.22,11.929 -0.2,0.272 -0.5,0.418 -0.82,0.418 z"
   style="fill:#000010;fill-rule:nonzero"
   id="path67" />

    </g>
    <g
       transform="matrix(0.09226444,0,0,0.10075862,-336.83992,142.00076)"
       id="g70"
       style="clip-rule:evenodd;fill-rule:evenodd;stroke-linejoin:round;stroke-miterlimit:2">
        <path
   d="m 4794.69,847.156 c -9.08,-4.461 -40.51,5.675 -36.36,37.758 2.07,15.954 6.21,39.948 1.46,48.214 -4.75,8.267 -4.21,2.44 2.19,8.86 6.39,6.421 30.93,4.106 35.47,-0.886 4.53,-4.992 16.44,-1.095 -1.83,-30.457 -18.28,-29.363 -0.3,-44.422 1.59,-45.548 1.88,-1.126 10.79,-11.396 -2.52,-17.941 z"
   style="fill:#000010;fill-rule:nonzero"
   id="path68" />

    </g>
    <g
       transform="matrix(0.09226444,0,0,0.10075862,-336.83992,142.00076)"
       id="g71"
       style="clip-rule:evenodd;fill-rule:evenodd;stroke-linejoin:round;stroke-miterlimit:2">
        <path
   d="m 4808.52,929.166 c 0.21,10.998 -8.53,20.082 -19.53,20.29 -11,0.209 -20.08,-8.537 -20.29,-19.535 -0.21,-10.997 8.54,-20.081 19.53,-20.29 11,-0.208 20.08,8.538 20.29,19.535 z"
   style="fill:#000010;fill-rule:nonzero"
   id="path69" />

    </g>
    <g
       transform="matrix(0.09226444,0,0,0.10075862,-336.83992,142.00076)"
       id="g72"
       style="clip-rule:evenodd;fill-rule:evenodd;stroke-linejoin:round;stroke-miterlimit:2">
        <path
   d="m 5003.54,843.196 c -1.03,6.564 -8.3,10.872 -16.22,9.622 -7.92,-1.249 -13.51,-7.583 -12.47,-14.147 1.03,-6.564 8.29,-10.872 16.22,-9.623 7.92,1.25 13.51,7.584 12.47,14.148 z"
   style="fill:#000010;fill-rule:nonzero"
   id="path70" />

    </g>
    <g
       transform="matrix(0.09226444,0,0,0.10075862,-336.83992,142.00076)"
       id="g73"
       style="clip-rule:evenodd;fill-rule:evenodd;stroke-linejoin:round;stroke-miterlimit:2">
        <path
   d="m 4943.62,871.803 c 5.01,-0.528 9.54,-2.513 12.82,-5.89 -3.7,0.532 -7.58,0.565 -11.52,0.108 2.39,-7.438 6.98,-13.216 8.87,-12.723 2.68,0.7 5.74,-0.501 9.24,-2.683 1.47,-1.213 3.06,-2.313 4.76,-3.287 0.94,-0.691 1.9,-1.412 2.89,-2.16 4.24,-3.19 28.86,-11.236 41.57,14.311 7.11,14.284 2.67,31.512 -10.38,40.722 l 8.86,32.597 -38.15,-6.774 -6.74,-29.407 c -6.79,-1.044 -12.39,-5.036 -12.39,-5.036 -8.75,-4.639 -10.74,-12.428 -9.83,-19.778 z"
   style="fill:#ffffff;fill-rule:nonzero"
   id="path71" />

    </g>
    <g
       transform="matrix(0.09226444,0,0,0.10075862,-336.83992,142.00076)"
       id="g74"
       style="clip-rule:evenodd;fill-rule:evenodd;stroke-linejoin:round;stroke-miterlimit:2">
        <path
   d="m 4973.41,925.154 35.94,6.383 -8.44,-31.074 c -0.11,-0.405 0.04,-0.836 0.39,-1.079 12.73,-8.987 16.96,-25.583 10.05,-39.46 -4.56,-9.164 -11.09,-14.805 -19.4,-16.767 -9.73,-2.293 -18.68,1.31 -20.66,2.81 -1,0.75 -1.96,1.473 -2.9,2.165 -0.03,0.023 -0.07,0.045 -0.1,0.063 -1.64,0.938 -3.2,2.01 -4.62,3.19 -0.04,0.028 -0.07,0.055 -0.11,0.078 -4.24,2.644 -7.33,3.508 -10.02,2.804 -0.01,-0.001 -0.02,-0.001 -0.02,-0.001 -1.04,0 -4.84,4.219 -7.25,10.889 3.44,0.307 6.81,0.232 10.03,-0.232 0.42,-0.06 0.84,0.156 1.03,0.536 0.2,0.381 0.13,0.844 -0.17,1.15 -3.21,3.304 -7.56,5.401 -12.63,6.092 -0.55,5.836 0.76,13.42 9.39,17.996 0.04,0.021 0.07,0.044 0.11,0.07 0.05,0.038 5.5,3.867 11.96,4.861 0.41,0.062 0.73,0.365 0.83,0.765 z m 37.32,8.644 c -0.06,0 -0.12,-0.005 -0.18,-0.016 l -38.14,-6.774 c -0.4,-0.07 -0.71,-0.37 -0.8,-0.761 l -6.59,-28.756 c -6.36,-1.158 -11.47,-4.623 -12.1,-5.056 -9.97,-5.319 -11.1,-14.219 -10.29,-20.754 0.06,-0.462 0.43,-0.823 0.89,-0.871 3.77,-0.4 7.12,-1.62 9.85,-3.57 -2.79,0.187 -5.66,0.113 -8.57,-0.225 -0.3,-0.034 -0.56,-0.2 -0.72,-0.452 -0.17,-0.251 -0.21,-0.563 -0.12,-0.847 2.2,-6.833 7.08,-14.176 10.08,-13.385 2.11,0.55 4.7,-0.231 8.41,-2.53 1.48,-1.224 3.09,-2.338 4.8,-3.313 0.92,-0.678 1.86,-1.385 2.83,-2.119 2.97,-2.237 12.57,-5.461 22.33,-3.159 8.92,2.105 15.9,8.102 20.74,17.823 7.24,14.558 2.97,31.925 -10.13,41.574 l 8.67,31.929 c 0.09,0.33 0,0.684 -0.23,0.937 -0.19,0.209 -0.46,0.325 -0.73,0.325 z"
   style="fill:#000010;fill-rule:nonzero"
   id="path72" />

    </g>
    <g
       transform="matrix(0.09226444,0,0,0.10075862,-336.83992,142.00076)"
       id="g75"
       style="clip-rule:evenodd;fill-rule:evenodd;stroke-linejoin:round;stroke-miterlimit:2">
        <path
   d="m 5010.79,843.323 c -9.2,-7.1 -20.99,-8.609 -31.46,-5.129 2.9,1.195 5.67,2.757 8.25,4.743 17.47,13.482 19.34,40.353 4.16,60.019 -0.84,1.092 -1.72,2.132 -2.63,3.133 10.2,-0.283 20.32,-5.086 27.18,-13.969 11.9,-15.424 9.44,-37.272 -5.5,-48.797 z"
   style="fill:#000010;fill-rule:nonzero"
   id="path73" />

    </g>
    <g
       transform="matrix(0.09226444,0,0,0.10075862,-336.83992,142.00076)"
       id="g76"
       style="clip-rule:evenodd;fill-rule:evenodd;stroke-linejoin:round;stroke-miterlimit:2">
        <path
   d="m 4977.5,835.672 c 0,0 1.24,9.52 8.15,15.131 3.65,2.966 -3.94,1.019 -4.11,5.894 -1.21,36.518 0.57,43.744 0.57,43.744 0.19,3.181 2.42,5.871 5.52,6.635 l 15.99,1.215 -0.89,-5.321 9.26,-38.378 c 0,0 -14.98,-31.02 -34.49,-28.92 z"
   style="fill:#000010;fill-rule:nonzero"
   id="path74" />

    </g>
    <g
       transform="matrix(0.09226444,0,0,0.10075862,-336.83992,142.00076)"
       id="g77"
       style="clip-rule:evenodd;fill-rule:evenodd;stroke-linejoin:round;stroke-miterlimit:2">
        <path
   d="m 4974.72,857.662 c -0.27,0 -0.54,-0.11 -0.74,-0.329 -0.37,-0.409 -0.34,-1.041 0.07,-1.412 0.4,-0.361 0.9,-1.7 0.79,-3.273 -0.06,-0.843 -0.35,-2.39 -1.64,-3.269 -0.46,-0.311 -0.58,-0.933 -0.27,-1.39 0.31,-0.456 0.93,-0.575 1.39,-0.264 1.48,1.004 2.37,2.703 2.51,4.785 0.14,1.989 -0.45,4.002 -1.43,4.893 -0.2,0.174 -0.44,0.259 -0.68,0.259 z"
   style="fill:#000010;fill-rule:nonzero"
   id="path75" />

    </g>
    <g
       transform="matrix(0.09226444,0,0,0.10075862,-336.83992,142.00076)"
       id="g78"
       style="clip-rule:evenodd;fill-rule:evenodd;stroke-linejoin:round;stroke-miterlimit:2">
        <path
   d="m 4966.44,855.873 c -0.91,0.351 -1.85,0.106 -2.1,-0.547 -0.25,-0.654 0.28,-1.468 1.19,-1.82 0.91,-0.351 1.85,-0.106 2.1,0.548 0.25,0.654 -0.28,1.468 -1.19,1.819 z"
   style="fill:#000010;fill-rule:nonzero"
   id="path76" />

    </g>
    <g
       transform="matrix(0.09226444,0,0,0.10075862,-336.83992,142.00076)"
       id="g79"
       style="clip-rule:evenodd;fill-rule:evenodd;stroke-linejoin:round;stroke-miterlimit:2">
        <path
   d="m 4968.99,880.05 c -0.8,5.096 2.68,9.878 7.77,10.682 5.1,0.804 9.88,-2.676 10.69,-7.772 0.8,-5.096 -2.68,-9.878 -7.78,-10.682 -5.09,-0.803 -9.87,2.676 -10.68,7.772 z"
   style="fill:#ffffff;fill-rule:nonzero"
   id="path77" />

    </g>
    <g
       transform="matrix(0.09226444,0,0,0.10075862,-336.83992,142.00076)"
       id="g80"
       style="clip-rule:evenodd;fill-rule:evenodd;stroke-linejoin:round;stroke-miterlimit:2">
        <path
   d="m 4973.73,884.08 c -0.05,0 -0.1,-0.004 -0.15,-0.013 -0.55,-0.085 -0.92,-0.597 -0.84,-1.143 0.71,-4.501 7.82,-5.518 8.12,-5.559 0.54,-0.074 1.05,0.309 1.13,0.856 0.07,0.547 -0.31,1.051 -0.86,1.127 -1.65,0.226 -6.01,1.368 -6.41,3.888 -0.08,0.493 -0.5,0.844 -0.99,0.844 z"
   style="fill:#000010;fill-rule:nonzero"
   id="path78" />

    </g>
    <g
       transform="matrix(0.09226444,0,0,0.10075862,-336.83992,142.00076)"
       id="g81"
       style="clip-rule:evenodd;fill-rule:evenodd;stroke-linejoin:round;stroke-miterlimit:2">
        <path
   d="m 4786.19,933.965 c 0.2,10.235 -7.94,18.689 -18.18,18.883 -10.23,0.195 -18.69,-7.945 -18.88,-18.18 -0.2,-10.236 7.94,-18.69 18.18,-18.884 10.23,-0.194 18.69,7.946 18.88,18.181 z"
   style="fill:#000010;fill-rule:nonzero"
   id="path79" />

    </g>
    <g
       transform="matrix(0.09226444,0,0,0.10075862,-336.83992,142.00076)"
       id="g82"
       style="clip-rule:evenodd;fill-rule:evenodd;stroke-linejoin:round;stroke-miterlimit:2">
        <path
   d="m 4986.64,862.836 -13.88,8.151 2.32,3.846 11.29,-3.977 z"
   style="fill:#000010;fill-rule:nonzero"
   id="path80" />

    </g>
    <g
       transform="matrix(0.09226444,0,0,0.10075862,-336.83992,142.00076)"
       id="g83"
       style="clip-rule:evenodd;fill-rule:evenodd;stroke-linejoin:round;stroke-miterlimit:2">
        <path
   d="m 5015.59,863.622 c -0.28,0 -0.57,-0.122 -0.76,-0.359 -0.36,-0.425 -0.3,-1.056 0.12,-1.409 2.97,-2.47 9.86,-0.84 10.64,-0.645 0.54,0.134 0.86,0.676 0.73,1.212 -0.14,0.535 -0.68,0.854 -1.21,0.728 -2.56,-0.636 -7.23,-1.134 -8.88,0.242 -0.18,0.155 -0.41,0.231 -0.64,0.231 z"
   style="fill:#000010;fill-rule:nonzero"
   id="path81" />

    </g>
    <g
       transform="matrix(0.09226444,0,0,0.10075862,-336.83992,142.00076)"
       id="g84"
       style="clip-rule:evenodd;fill-rule:evenodd;stroke-linejoin:round;stroke-miterlimit:2">
        <path
   d="m 5015.69,862.359 c -0.54,0 -0.92,-0.015 -1.07,-0.023 -0.55,-0.028 -0.98,-0.498 -0.95,-1.05 0.03,-0.551 0.47,-0.977 1.05,-0.948 2.63,0.132 7.3,-0.281 8.66,-1.948 0.34,-0.43 0.97,-0.496 1.4,-0.147 0.43,0.348 0.5,0.978 0.15,1.406 -1.97,2.422 -6.97,2.71 -9.24,2.71 z"
   style="fill:#000010;fill-rule:nonzero"
   id="path82" />

    </g>
    <g
       transform="matrix(0.09226444,0,0,0.10075862,-336.83992,142.00076)"
       id="g85"
       style="clip-rule:evenodd;fill-rule:evenodd;stroke-linejoin:round;stroke-miterlimit:2">
        <path
   d="m 5019.58,951.3 v -33.255 h -38.71 c -17.23,0 -33.75,6.845 -45.94,19.029 l -14.44,14.447 c 0,0 98.21,-0.221 99.09,-0.221 z"
   style="fill:#000010;fill-rule:nonzero"
   id="path83" />

    </g>
  </g>
</svg>
