<?xml version="1.0" encoding="UTF-8" standalone="no"?>
<!-- Created with Inkscape (http://www.inkscape.org/) -->

<svg
   width="100"
   height="100"
   viewBox="0 0 26.458001 26.458001"
   version="1.1"
   id="svg1"
   xmlns="http://www.w3.org/2000/svg"
   xmlns:svg="http://www.w3.org/2000/svg">
  <defs
     id="defs1" />
  <g
     id="layer1">
    <g
       transform="matrix(0.07847735,0,0,0.08211711,-284.03443,-54.188123)"
       id="g86"
       style="clip-rule:evenodd;fill-rule:evenodd;stroke-linejoin:round;stroke-miterlimit:2">
      <path
         d="m 3718.47,846.615 -26.45,64.398 c -5.01,12.182 -0.06,26.18 11.5,32.502 9.07,4.964 20.23,4.044 28.37,-2.34 l 29.81,-23.396 -1.33,32.922 h 99.1 l 44.8,-77.326 -12.48,-17.285 c -11.73,-16.257 -29.56,-27.055 -49.4,-29.921 l -28.81,-4.162 -29.13,-0.82 c -11.91,-0.336 -31.39,1.485 -40.7,36.735 l 1.33,-27.269 z"
         style="fill:#000010;fill-rule:nonzero"
         id="path85" />
    </g>
    <g
       transform="matrix(0.07847735,0,0,0.08211711,-284.03443,-54.188123)"
       id="g87"
       style="clip-rule:evenodd;fill-rule:evenodd;stroke-linejoin:round;stroke-miterlimit:2">
      <path
         d="m 3714.47,857.771 -1.08,-14.26 -48.17,-28.577 c -1.44,-0.857 -1.89,-2.743 -0.97,-4.153 1.48,-2.286 4.39,-3.165 6.89,-2.077 l 27.02,11.766 23.67,-5.573 -8.18,-15.534 c -1.59,-3.028 -0.05,-6.76 3.22,-7.769 2.13,-0.656 4.44,0.04 5.85,1.76 l 15.92,19.442 c 5.56,6.79 8.24,15.487 7.46,24.229 l -1.71,19.395 z"
         style="fill:#ffffff;fill-rule:nonzero"
         id="path86" />
    </g>
    <g
       transform="matrix(0.07847735,0,0,0.08211711,-284.03443,-54.188123)"
       id="g88"
       style="clip-rule:evenodd;fill-rule:evenodd;stroke-linejoin:round;stroke-miterlimit:2">
      <path
         d="m 3714.47,858.772 c -0.52,0 -0.96,-0.4 -1,-0.925 l -1.04,-13.741 -47.72,-28.311 c -0.93,-0.556 -1.59,-1.443 -1.83,-2.501 -0.25,-1.059 -0.06,-2.144 0.53,-3.056 1.75,-2.708 5.17,-3.737 8.13,-2.452 l 26.71,11.634 22.09,-5.2 -7.58,-14.391 c -0.89,-1.707 -0.99,-3.709 -0.25,-5.491 0.74,-1.781 2.23,-3.13 4.07,-3.699 2.52,-0.782 5.24,0.037 6.91,2.081 l 15.92,19.442 c 5.76,7.035 8.49,15.897 7.69,24.951 l -1.72,19.395 c -0.05,0.551 -0.54,0.964 -1.08,0.908 -0.55,-0.049 -0.96,-0.534 -0.91,-1.084 l 1.72,-19.394 c 0.75,-8.532 -1.82,-16.88 -7.25,-23.508 l -15.92,-19.443 c -1.15,-1.411 -3.03,-1.973 -4.77,-1.438 -1.27,0.393 -2.3,1.325 -2.81,2.556 -0.51,1.231 -0.45,2.613 0.17,3.793 l 8.18,15.534 c 0.15,0.273 0.15,0.598 0.03,0.881 -0.13,0.281 -0.38,0.487 -0.68,0.558 l -23.68,5.572 c -0.21,0.049 -0.43,0.029 -0.62,-0.056 l -27.02,-11.767 c -2.06,-0.895 -4.44,-0.18 -5.65,1.705 -0.3,0.451 -0.39,0.989 -0.27,1.512 0.13,0.523 0.45,0.963 0.91,1.237 l 48.17,28.576 c 0.28,0.167 0.46,0.46 0.49,0.786 l 1.08,14.26 c 0.04,0.551 -0.38,1.031 -0.93,1.073 -0.02,0.002 -0.05,0.003 -0.07,0.003 z"
         style="fill:#000010;fill-rule:nonzero"
         id="path87" />
    </g>
    <g
       transform="matrix(0.07847735,0,0,0.08211711,-284.03443,-54.188123)"
       id="g89"
       style="clip-rule:evenodd;fill-rule:evenodd;stroke-linejoin:round;stroke-miterlimit:2">
      <path
         d="m 3685.63,820.688 -9.91,-18.907 c -0.91,-1.747 0.54,-3.797 2.49,-3.517 2.49,0.357 4.71,1.743 6.13,3.819 l 12.36,17.007 z"
         style="fill:#ffffff;fill-rule:nonzero"
         id="path88" />
    </g>
    <g
       transform="matrix(0.07847735,0,0,0.08211711,-284.03443,-54.188123)"
       id="g90"
       style="clip-rule:evenodd;fill-rule:evenodd;stroke-linejoin:round;stroke-miterlimit:2">
      <path
         d="m 3685.63,821.689 c -0.36,0 -0.71,-0.195 -0.89,-0.537 l -9.9,-18.907 c -0.6,-1.142 -0.51,-2.507 0.23,-3.56 0.75,-1.054 2.01,-1.591 3.28,-1.412 2.76,0.397 5.25,1.945 6.82,4.246 l 12.34,16.983 c 0.33,0.446 0.23,1.072 -0.22,1.396 -0.45,0.326 -1.07,0.227 -1.4,-0.22 l -12.36,-17.007 c -1.27,-1.863 -3.26,-3.101 -5.46,-3.417 -0.54,-0.082 -1.05,0.141 -1.36,0.585 -0.32,0.444 -0.35,0.997 -0.1,1.478 l 9.91,18.908 c 0.25,0.489 0.06,1.092 -0.43,1.349 -0.14,0.078 -0.3,0.115 -0.46,0.115 z"
         style="fill:#000010;fill-rule:nonzero"
         id="path89" />
    </g>
    <g
       transform="matrix(0.07847735,0,0,0.08211711,-284.03443,-54.188123)"
       id="g91"
       style="clip-rule:evenodd;fill-rule:evenodd;stroke-linejoin:round;stroke-miterlimit:2">
      <path
         d="m 3722.23,832.486 -15.82,-9.12 -8.18,-18.43 c -1.11,-2.516 -3.47,-4.258 -6.21,-4.582 -1.77,-0.21 -3.18,1.446 -2.69,3.159 l 6.73,23.81 z"
         style="fill:#ffffff;fill-rule:nonzero"
         id="path90" />
    </g>
    <g
       transform="matrix(0.07847735,0,0,0.08211711,-284.03443,-54.188123)"
       id="g92"
       style="clip-rule:evenodd;fill-rule:evenodd;stroke-linejoin:round;stroke-miterlimit:2">
      <path
         d="m 3722.22,833.485 c -0.16,0 -0.34,-0.043 -0.49,-0.133 l -15.82,-9.12 c -0.19,-0.106 -0.33,-0.267 -0.42,-0.461 l -8.17,-18.43 c -0.97,-2.182 -3.04,-3.712 -5.42,-3.993 -0.49,-0.064 -0.98,0.127 -1.31,0.513 -0.33,0.388 -0.44,0.89 -0.3,1.379 l 6.74,23.811 c 0.15,0.531 -0.16,1.084 -0.69,1.234 -0.53,0.152 -1.09,-0.157 -1.24,-0.689 l -6.74,-23.811 c -0.32,-1.127 -0.05,-2.331 0.71,-3.221 0.76,-0.89 1.91,-1.34 3.07,-1.203 3.07,0.365 5.75,2.345 7.01,5.169 l 8.04,18.132 15.53,8.957 c 0.48,0.276 0.65,0.887 0.37,1.365 -0.18,0.322 -0.52,0.501 -0.87,0.501 z"
         style="fill:#000010;fill-rule:nonzero"
         id="path91" />
    </g>
    <g
       transform="matrix(0.07847735,0,0,0.08211711,-284.03443,-54.188123)"
       id="g93"
       style="clip-rule:evenodd;fill-rule:evenodd;stroke-linejoin:round;stroke-miterlimit:2">
      <path
         d="m 3788.38,757.315 c -2.63,15.574 7.87,30.332 23.44,32.962 15.57,2.631 30.33,-7.862 32.96,-23.436 2.63,-15.574 -7.86,-30.332 -23.44,-32.962 -15.57,-2.631 -30.33,7.862 -32.96,23.436 z"
         style="fill:#000010;fill-rule:nonzero"
         id="path92" />
    </g>
    <g
       transform="matrix(0.07847735,0,0,0.08211711,-284.03443,-54.188123)"
       id="g94"
       style="clip-rule:evenodd;fill-rule:evenodd;stroke-linejoin:round;stroke-miterlimit:2">
      <path
         d="m 3781.23,749.179 c -1.57,9.319 4.71,18.149 14.03,19.723 9.31,1.574 18.14,-4.705 19.72,-14.023 1.57,-9.319 -4.71,-18.149 -14.02,-19.722 -9.32,-1.574 -18.15,4.704 -19.73,14.022 z"
         style="fill:#000010;fill-rule:nonzero"
         id="path93" />
    </g>
    <g
       transform="matrix(0.07847735,0,0,0.08211711,-284.03443,-54.188123)"
       id="g95"
       style="clip-rule:evenodd;fill-rule:evenodd;stroke-linejoin:round;stroke-miterlimit:2">
      <path
         d="m 3818.31,771.248 c -2.27,13.459 6.8,26.213 20.26,28.486 13.46,2.274 26.21,-6.794 28.48,-20.254 2.28,-13.459 -6.79,-26.213 -20.25,-28.486 -13.46,-2.274 -26.21,6.794 -28.49,20.254 z"
         style="fill:#000010;fill-rule:nonzero"
         id="path94" />
    </g>
    <g
       transform="matrix(0.07847735,0,0,0.08211711,-284.03443,-54.188123)"
       id="g96"
       style="clip-rule:evenodd;fill-rule:evenodd;stroke-linejoin:round;stroke-miterlimit:2">
      <path
         d="m 3838.15,797.762 c -0.06,0 -0.11,-0.005 -0.17,-0.014 -2.21,-0.374 -4.29,-1.335 -5.99,-2.778 -0.81,-0.677 -1.52,-1.456 -2.13,-2.316 -0.32,-0.45 -0.22,-1.074 0.23,-1.394 0.45,-0.32 1.08,-0.213 1.4,0.236 0.51,0.722 1.11,1.377 1.79,1.946 1.43,1.212 3.17,2.019 5.03,2.333 0.55,0.092 0.92,0.609 0.82,1.153 -0.08,0.488 -0.5,0.834 -0.98,0.834 z"
         style="fill:#000010;fill-rule:nonzero"
         id="path95" />
    </g>
    <g
       transform="matrix(0.07847735,0,0,0.08211711,-284.03443,-54.188123)"
       id="g97"
       style="clip-rule:evenodd;fill-rule:evenodd;stroke-linejoin:round;stroke-miterlimit:2">
      <path
         d="m 3791.27,808.696 c -13.91,-5.338 -19.64,-24.118 -12.8,-41.946 6.84,-17.829 23.66,-27.954 37.57,-22.616 11.62,4.456 17.53,18.283 15.18,33.102 2.54,-3.188 6.69,-4.935 11,-4.183 5.99,1.046 10.23,6.787 9.45,12.817 -0.84,6.529 -6.93,10.992 -13.35,9.906 -1.38,-0.233 -2.65,-0.712 -3.8,-1.367 l -0.46,31.211 c 3.67,0.79 7.26,1.661 10.75,2.624 -4.9,14.248 -20.75,23.132 -37.59,20.288 -14.96,-2.528 -26.14,-13.549 -28.41,-26.548 5.82,-0.59 12.01,-0.833 18.48,-0.713 l 0.15,-11.217 c -2.09,-0.149 -4.16,-0.588 -6.17,-1.358 z"
         style="fill:#ffffff;fill-rule:nonzero"
         id="path96" />
    </g>
    <g
       transform="matrix(0.07847735,0,0,0.08211711,-284.03443,-54.188123)"
       id="g98"
       style="clip-rule:evenodd;fill-rule:evenodd;stroke-linejoin:round;stroke-miterlimit:2">
      <path
         d="m 3780,822.872 c 2.67,12.487 13.54,22.335 27.39,24.673 15.63,2.645 30.93,-5.329 36.11,-18.622 -3.06,-0.822 -6.3,-1.604 -9.65,-2.325 -0.47,-0.101 -0.8,-0.516 -0.79,-0.992 l 0.46,-31.211 c 0.01,-0.355 0.2,-0.679 0.51,-0.855 0.3,-0.174 0.68,-0.175 0.99,0.001 1.09,0.625 2.26,1.045 3.46,1.249 2.85,0.482 5.7,-0.201 8.02,-1.922 2.32,-1.72 3.81,-4.251 4.18,-7.126 0.71,-5.499 -3.17,-10.749 -8.63,-11.704 -3.79,-0.664 -7.64,0.802 -10.05,3.821 -0.28,0.356 -0.77,0.475 -1.18,0.292 -0.42,-0.182 -0.66,-0.623 -0.59,-1.071 2.32,-14.672 -3.66,-27.836 -14.54,-32.013 -13.38,-5.129 -29.66,4.757 -36.29,22.041 -3.23,8.415 -3.71,17.296 -1.36,25.007 2.33,7.621 7.16,13.179 13.59,15.648 1.86,0.713 3.84,1.148 5.88,1.294 0.53,0.037 0.94,0.48 0.93,1.01 l -0.15,11.218 c 0,0.266 -0.11,0.52 -0.3,0.705 -0.19,0.185 -0.46,0.283 -0.72,0.282 -5.98,-0.115 -11.78,0.09 -17.27,0.6 z m 33.36,27.175 c -2.08,10e-4 -4.19,-0.172 -6.3,-0.529 -15.08,-2.545 -26.82,-13.541 -29.24,-27.363 -0.04,-0.273 0.03,-0.554 0.19,-0.775 0.17,-0.222 0.42,-0.363 0.7,-0.392 5.58,-0.564 11.49,-0.811 17.59,-0.732 l 0.13,-9.291 c -1.91,-0.213 -3.76,-0.661 -5.52,-1.335 -7.02,-2.694 -12.27,-8.707 -14.78,-16.931 -2.48,-8.134 -1.98,-17.477 1.4,-26.307 7.03,-18.314 24.46,-28.721 38.87,-23.192 11.05,4.239 17.45,16.875 16.16,31.314 2.76,-2.139 6.32,-3.057 9.83,-2.447 6.51,1.137 11.12,7.386 10.27,13.931 -0.44,3.419 -2.2,6.43 -4.97,8.477 -2.76,2.048 -6.15,2.858 -9.54,2.288 -0.91,-0.155 -1.8,-0.409 -2.65,-0.763 l -0.43,28.816 c 3.49,0.765 6.85,1.593 10.01,2.464 0.26,0.074 0.49,0.254 0.62,0.498 0.12,0.245 0.15,0.531 0.06,0.791 -4.46,12.962 -17.77,21.478 -32.4,21.478 z"
         style="fill:#000010;fill-rule:nonzero"
         id="path97" />
    </g>
    <g
       transform="matrix(0.07847735,0,0,0.08211711,-284.03443,-54.188123)"
       id="g99"
       style="clip-rule:evenodd;fill-rule:evenodd;stroke-linejoin:round;stroke-miterlimit:2">
      <path
         d="m 3834.84,788.095 c -0.03,0 -0.06,-10e-4 -0.08,-0.003 -0.55,-0.042 -0.96,-0.524 -0.92,-1.074 0.26,-3.415 1.43,-6.003 3.48,-7.693 2.95,-2.431 6.61,-2.043 6.76,-2.024 0.55,0.062 0.94,0.558 0.88,1.107 -0.06,0.547 -0.56,0.932 -1.11,0.88 -0.02,-0.003 -2.99,-0.3 -5.27,1.594 -1.61,1.331 -2.53,3.447 -2.75,6.29 -0.04,0.524 -0.48,0.923 -0.99,0.923 z"
         style="fill:#000010;fill-rule:nonzero"
         id="path98" />
    </g>
    <g
       transform="matrix(0.07847735,0,0,0.08211711,-284.03443,-54.188123)"
       id="g100"
       style="clip-rule:evenodd;fill-rule:evenodd;stroke-linejoin:round;stroke-miterlimit:2">
      <path
         d="m 3832.21,776.853 c -0.27,0.032 -0.54,0.071 -0.81,0.093 -15.23,1.249 -28.92,-13.461 -30.57,-32.856 -0.02,-0.219 -0.03,-0.436 -0.05,-0.655 5.23,-1.685 10.68,-1.744 15.75,0.195 11.77,4.501 17.84,18.324 15.68,33.223 z"
         style="fill:#000010;fill-rule:nonzero"
         id="path99" />
    </g>
    <g
       transform="matrix(0.07847735,0,0,0.08211711,-284.03443,-54.188123)"
       id="g101"
       style="clip-rule:evenodd;fill-rule:evenodd;stroke-linejoin:round;stroke-miterlimit:2">
      <path
         d="m 3799.07,812.251 c -0.32,0 -0.64,-0.007 -0.96,-0.019 -0.55,-0.023 -0.98,-0.488 -0.95,-1.04 0.02,-0.551 0.5,-1.01 1.04,-0.959 7.81,0.316 15.87,-3.6 22.16,-10.742 0.37,-0.415 1,-0.453 1.42,-0.089 0.41,0.366 0.45,0.997 0.08,1.412 -6.44,7.308 -14.7,11.437 -22.79,11.437 z"
         style="fill:#000010;fill-rule:nonzero"
         id="path100" />
    </g>
    <g
       transform="matrix(0.07847735,0,0,0.08211711,-284.03443,-54.188123)"
       id="g102"
       style="clip-rule:evenodd;fill-rule:evenodd;stroke-linejoin:round;stroke-miterlimit:2">
      <path
         d="m 3786.3,762.787 c 0.34,0.902 -1.42,2.387 -3.91,3.316 -2.5,0.93 -4.8,0.952 -5.13,0.05 -0.34,-0.902 1.41,-2.387 3.91,-3.316 2.5,-0.93 4.8,-0.952 5.13,-0.05 z"
         style="fill:#000010;fill-rule:nonzero"
         id="path101" />
    </g>
    <g
       transform="matrix(0.07847735,0,0,0.08211711,-284.03443,-54.188123)"
       id="g103"
       style="clip-rule:evenodd;fill-rule:evenodd;stroke-linejoin:round;stroke-miterlimit:2">
      <path
         d="m 3808.88,770.492 c -0.44,1.109 -3.29,1.02 -6.36,-0.2 -3.07,-1.22 -5.2,-3.108 -4.76,-4.218 0.44,-1.109 3.29,-1.02 6.36,0.2 3.07,1.22 5.2,3.108 4.76,4.218 z"
         style="fill:#000010;fill-rule:nonzero"
         id="path102" />
    </g>
    <g
       transform="matrix(0.07847735,0,0,0.08211711,-284.03443,-54.188123)"
       id="g104"
       style="clip-rule:evenodd;fill-rule:evenodd;stroke-linejoin:round;stroke-miterlimit:2">
      <path
         d="m 3788.25,780.341 c -0.3,0 -0.59,-0.131 -0.79,-0.381 -1.07,-1.358 -1.34,-3.203 -0.72,-4.813 l 2.84,-7.286 c 0.2,-0.515 0.78,-0.771 1.29,-0.569 0.52,0.2 0.77,0.779 0.57,1.294 l -2.83,7.285 c -0.38,0.968 -0.22,2.033 0.42,2.851 0.35,0.433 0.27,1.062 -0.16,1.404 -0.18,0.145 -0.4,0.215 -0.62,0.215 z"
         style="fill:#000010;fill-rule:nonzero"
         id="path103" />
    </g>
    <g
       transform="matrix(0.07847735,0,0,0.08211711,-284.03443,-54.188123)"
       id="g105"
       style="clip-rule:evenodd;fill-rule:evenodd;stroke-linejoin:round;stroke-miterlimit:2">
      <path
         d="m 3802.32,776.946 c -0.39,0 -0.75,-0.221 -0.92,-0.594 -1.41,-3.164 -3.36,-2.445 -3.45,-2.412 -0.51,0.198 -1.09,-0.056 -1.29,-0.571 -0.2,-0.514 0.06,-1.094 0.57,-1.294 1.31,-0.51 4.26,-0.444 6,3.466 0.22,0.505 -0.01,1.096 -0.51,1.319 -0.13,0.059 -0.27,0.086 -0.4,0.086 z"
         style="fill:#000010;fill-rule:nonzero"
         id="path104" />
    </g>
    <g
       transform="matrix(0.07847735,0,0,0.08211711,-284.03443,-54.188123)"
       id="g106"
       style="clip-rule:evenodd;fill-rule:evenodd;stroke-linejoin:round;stroke-miterlimit:2">
      <path
         d="m 3779.65,771.67 c -0.19,0 -0.38,-0.054 -0.55,-0.164 -0.45,-0.302 -0.59,-0.905 -0.29,-1.366 0.76,-1.189 3.18,-2.873 6.88,-0.745 0.48,0.275 0.65,0.886 0.37,1.365 -0.27,0.478 -0.88,0.642 -1.36,0.369 -2.89,-1.66 -4.09,-0.084 -4.21,0.101 -0.2,0.285 -0.52,0.44 -0.84,0.44 z"
         style="fill:#000010;fill-rule:nonzero"
         id="path105" />
    </g>
    <g
       transform="matrix(0.07847735,0,0,0.08211711,-284.03443,-54.188123)"
       id="g107"
       style="clip-rule:evenodd;fill-rule:evenodd;stroke-linejoin:round;stroke-miterlimit:2">
      <path
         d="m 3791.52,786.869 c -1.13,0 -2.49,-0.427 -3.97,-1.663 -0.43,-0.354 -0.48,-0.984 -0.13,-1.409 0.36,-0.423 0.99,-0.481 1.41,-0.126 2.56,2.136 4.01,0.792 4.17,0.632 0.38,-0.391 1.01,-0.408 1.41,-0.031 0.39,0.376 0.42,0.993 0.05,1.395 -0.52,0.57 -1.57,1.202 -2.94,1.202 z"
         style="fill:#000010;fill-rule:nonzero"
         id="path106" />
    </g>
    <g
       transform="matrix(0.07847735,0,0,0.08211711,-284.03443,-54.188123)"
       id="g108"
       style="clip-rule:evenodd;fill-rule:evenodd;stroke-linejoin:round;stroke-miterlimit:2">
      <path
         d="m 3741.75,916.692 c -0.01,0 -0.03,0 -0.04,-10e-4 -0.5,-0.022 -0.89,-0.448 -0.87,-0.95 l 2.66,-57.861 c 0.03,-0.502 0.44,-0.907 0.95,-0.866 0.51,0.022 0.89,0.448 0.87,0.95 l -2.66,57.861 c -0.02,0.488 -0.42,0.867 -0.91,0.867 z"
         style="fill:#ffffff;fill-rule:nonzero"
         id="path107" />
    </g>
    <g
       transform="matrix(0.07847735,0,0,0.08211711,-284.03443,-54.188123)"
       id="g109"
       style="clip-rule:evenodd;fill-rule:evenodd;stroke-linejoin:round;stroke-miterlimit:2">
      <path
         d="m 3883.25,913.121 h -27.26 c -0.56,0 -1,-0.447 -1,-1 0,-0.553 0.44,-1 1,-1 h 27.26 c 0.56,0 1,0.447 1,1 0,0.553 -0.44,1 -1,1 z"
         style="fill:#000010;fill-rule:nonzero"
         id="path108" />
    </g>
    <g
       transform="matrix(0.07847735,0,0,0.08211711,-284.03443,-54.188123)"
       id="g110"
       style="clip-rule:evenodd;fill-rule:evenodd;stroke-linejoin:round;stroke-miterlimit:2">
      <path
         d="m 3857.09,886.848 11.98,25.716 z"
         style="fill:#000010;fill-rule:nonzero"
         id="path109" />
    </g>
    <g
       transform="matrix(0.07847735,0,0,0.08211711,-284.03443,-54.188123)"
       id="g111"
       style="clip-rule:evenodd;fill-rule:evenodd;stroke-linejoin:round;stroke-miterlimit:2">
      <path
         d="m 3869.07,913.565 c -0.38,0 -0.74,-0.214 -0.91,-0.579 l -11.97,-25.716 c -0.24,-0.501 -0.02,-1.096 0.48,-1.329 0.51,-0.232 1.1,-0.015 1.33,0.485 l 11.97,25.717 c 0.24,0.501 0.02,1.095 -0.48,1.328 -0.14,0.063 -0.28,0.094 -0.42,0.094 z"
         style="fill:#000010;fill-rule:nonzero"
         id="path110" />
    </g>
    <g
       transform="matrix(0.07847735,0,0,0.08211711,-284.03443,-54.188123)"
       id="g112"
       style="clip-rule:evenodd;fill-rule:evenodd;stroke-linejoin:round;stroke-miterlimit:2">
      <path
         d="m 3842.26,867.525 66.46,-29.522 c 1.76,-0.782 3.5,1.135 2.55,2.811 l -19.23,33.953 -42.6,25.556 z"
         style="fill:#ffffff;fill-rule:nonzero"
         id="path111" />
    </g>
    <g
       transform="matrix(0.07847735,0,0,0.08211711,-284.03443,-54.188123)"
       id="g113"
       style="clip-rule:evenodd;fill-rule:evenodd;stroke-linejoin:round;stroke-miterlimit:2">
      <path
         d="m 3843.41,868.107 6.71,30.643 41.18,-24.704 19.1,-33.726 c 0.33,-0.582 -0.02,-1.036 -0.13,-1.161 -0.12,-0.126 -0.53,-0.512 -1.15,-0.242 z m 6.03,33.216 c -0.13,0 -0.27,-0.027 -0.39,-0.082 -0.3,-0.127 -0.52,-0.389 -0.58,-0.704 l -7.19,-32.799 c -0.1,-0.464 0.14,-0.934 0.57,-1.128 l 66.46,-29.521 c 1.21,-0.532 2.55,-0.248 3.44,0.726 0.88,0.976 1.04,2.346 0.39,3.492 l -19.23,33.954 c -0.08,0.149 -0.21,0.275 -0.35,0.364 l -42.6,25.556 c -0.16,0.094 -0.34,0.142 -0.52,0.142 z"
         style="fill-rule:nonzero"
         id="path112" />
    </g>
    <g
       transform="matrix(0.07847735,0,0,0.08211711,-284.03443,-54.188123)"
       id="g114"
       style="clip-rule:evenodd;fill-rule:evenodd;stroke-linejoin:round;stroke-miterlimit:2">
      <path
         d="m 3907.71,842.572 9.46,10.837 -60.1,30.599 -1.49,-2.157 -15.7,1.139 4.58,-13.149 z"
         style="fill:#ffffff;fill-rule:nonzero"
         id="path113" />
    </g>
    <g
       transform="matrix(0.07847735,0,0,0.08211711,-284.03443,-54.188123)"
       id="g115"
       style="clip-rule:evenodd;fill-rule:evenodd;stroke-linejoin:round;stroke-miterlimit:2">
      <path
         d="m 3855.58,880.852 c 0.32,0 0.63,0.159 0.82,0.43 l 1,1.439 58.17,-29.621 -8.13,-9.321 -62.18,26.807 -3.94,11.297 14.18,-1.028 c 0.03,-0.002 0.05,-0.003 0.08,-0.003 z m 1.49,4.156 c -0.32,0 -0.63,-0.152 -0.82,-0.431 l -1.17,-1.686 -15.13,1.096 c -0.33,0.028 -0.66,-0.121 -0.87,-0.388 -0.2,-0.268 -0.26,-0.619 -0.15,-0.938 l 4.58,-13.148 c 0.1,-0.265 0.3,-0.479 0.55,-0.589 l 63.26,-27.27 c 0.39,-0.172 0.86,-0.067 1.15,0.261 l 9.45,10.837 c 0.2,0.232 0.29,0.545 0.23,0.848 -0.06,0.301 -0.25,0.56 -0.53,0.701 l -60.09,30.598 c -0.15,0.074 -0.3,0.109 -0.46,0.109 z"
         style="fill-rule:nonzero"
         id="path114" />
    </g>
    <g
       transform="matrix(0.07847735,0,0,0.08211711,-284.03443,-54.188123)"
       id="g116"
       style="clip-rule:evenodd;fill-rule:evenodd;stroke-linejoin:round;stroke-miterlimit:2">
      <path
         d="m 3853.8,879.687 -9.34,-9.846 z"
         style="fill:#ffffff;fill-rule:nonzero"
         id="path115" />
    </g>
    <g
       transform="matrix(0.07847735,0,0,0.08211711,-284.03443,-54.188123)"
       id="g117"
       style="clip-rule:evenodd;fill-rule:evenodd;stroke-linejoin:round;stroke-miterlimit:2">
      <path
         d="m 3853.8,880.687 c -0.27,0 -0.53,-0.105 -0.73,-0.312 l -9.34,-9.845 c -0.38,-0.401 -0.36,-1.034 0.04,-1.414 0.4,-0.38 1.04,-0.362 1.41,0.037 l 9.34,9.845 c 0.38,0.401 0.37,1.034 -0.03,1.414 -0.2,0.184 -0.45,0.275 -0.69,0.275 z"
         style="fill-rule:nonzero"
         id="path116" />
    </g>
    <g
       transform="matrix(0.07847735,0,0,0.08211711,-284.03443,-54.188123)"
       id="g118"
       style="clip-rule:evenodd;fill-rule:evenodd;stroke-linejoin:round;stroke-miterlimit:2">
      <path
         d="m 3920,853.951 -31.36,53.1 c -0.57,0.963 -1.43,1.718 -2.46,2.155 l -50.13,17.02 c -6,-2.534 -10.3,-7.948 -11.41,-14.369 l -0.06,-0.332 17.68,-44 0.36,1.929 c 1.09,5.825 6.1,10.099 12.02,10.255 l 62.81,-28.593 c 1.78,-0.809 3.54,1.152 2.55,2.835 z"
         style="fill:#ffffff;fill-rule:nonzero"
         id="path117" />
    </g>
    <g
       transform="matrix(0.07847735,0,0,0.08211711,-284.03443,-54.188123)"
       id="g119"
       style="clip-rule:evenodd;fill-rule:evenodd;stroke-linejoin:round;stroke-miterlimit:2">
      <path
         d="m 3825.62,911.634 0.01,0.053 c 1.03,5.991 4.93,10.999 10.47,13.467 l 49.76,-16.895 c 0.75,-0.323 1.46,-0.943 1.92,-1.717 l 31.36,-53.101 c 0.34,-0.584 0,-1.045 -0.12,-1.173 -0.11,-0.129 -0.54,-0.524 -1.16,-0.242 l -62.8,28.593 c -0.14,0.064 -0.29,0.09 -0.44,0.09 -5.9,-0.156 -11.02,-4.176 -12.66,-9.745 z m 10.43,15.592 c -0.13,0 -0.26,-0.027 -0.39,-0.079 -6.34,-2.678 -10.83,-8.331 -12,-15.12 l -0.06,-0.332 c -0.03,-0.183 -0.01,-0.371 0.06,-0.544 l 17.67,-44 c 0.17,-0.412 0.58,-0.659 1.03,-0.622 0.44,0.044 0.8,0.374 0.88,0.812 l 0.36,1.93 c 0.99,5.252 5.52,9.185 10.85,9.43 l 62.59,-28.495 c 1.21,-0.554 2.58,-0.268 3.47,0.725 0.89,0.994 1.03,2.379 0.35,3.528 l -31.36,53.101 c -0.67,1.138 -1.72,2.05 -2.93,2.567 l -50.2,17.046 c -0.1,0.035 -0.21,0.053 -0.32,0.053 z"
         style="fill-rule:nonzero"
         id="path118" />
    </g>
    <g
       transform="matrix(0.07847735,0,0,0.08211711,-284.03443,-54.188123)"
       id="g120"
       style="clip-rule:evenodd;fill-rule:evenodd;stroke-linejoin:round;stroke-miterlimit:2">
      <path
         d="m 3852.59,887.66 66.46,-29.522 c 1.76,-0.782 3.5,1.135 2.55,2.811 l -19.23,33.953 -42.6,25.556 z"
         style="fill:#bced09;fill-rule:nonzero"
         id="path119" />
    </g>
    <g
       transform="matrix(0.07847735,0,0,0.08211711,-284.03443,-54.188123)"
       id="g121"
       style="clip-rule:evenodd;fill-rule:evenodd;stroke-linejoin:round;stroke-miterlimit:2">
      <path
         d="m 3918.04,862.707 9.46,10.837 -60.1,30.599 -1.5,-2.157 -15.69,1.139 4.58,-13.149 z"
         style="fill:#ffffff;fill-rule:nonzero"
         id="path120" />
    </g>
    <g
       transform="matrix(0.07847735,0,0,0.08211711,-284.03443,-54.188123)"
       id="g122"
       style="clip-rule:evenodd;fill-rule:evenodd;stroke-linejoin:round;stroke-miterlimit:2">
      <path
         d="m 3930.33,874.086 -31.36,53.1 c -0.57,0.963 -1.43,1.718 -2.46,2.155 l -50.13,17.02 c -6,-2.534 -10.3,-7.949 -11.41,-14.369 l -0.06,-0.333 17.68,-43.999 0.36,1.929 c 1.09,5.825 6.1,10.099 12.02,10.255 l 62.81,-28.593 c 1.78,-0.81 3.54,1.152 2.55,2.835 z"
         style="fill:#bced09;fill-rule:nonzero"
         id="path121" />
    </g>
    <g
       transform="matrix(0.07847735,0,0,0.08211711,-284.03443,-54.188123)"
       id="g123"
       style="clip-rule:evenodd;fill-rule:evenodd;stroke-linejoin:round;stroke-miterlimit:2">
      <path
         d="m 3864.13,899.822 -9.34,-9.846 z"
         style="fill:#ffffff;fill-rule:nonzero"
         id="path122" />
    </g>
    <g
       transform="matrix(0.07847735,0,0,0.08211711,-284.03443,-54.188123)"
       id="g124"
       style="clip-rule:evenodd;fill-rule:evenodd;stroke-linejoin:round;stroke-miterlimit:2">
      <path
         d="m 3864.13,900.821 c -0.27,0 -0.53,-0.104 -0.73,-0.311 l -9.34,-9.845 c -0.38,-0.401 -0.36,-1.034 0.04,-1.414 0.4,-0.38 1.03,-0.362 1.41,0.037 l 9.34,9.845 c 0.38,0.401 0.37,1.034 -0.03,1.414 -0.2,0.184 -0.45,0.274 -0.69,0.274 z"
         style="fill-rule:nonzero"
         id="path123" />
    </g>
    <g
       transform="matrix(0.05462592,0.01102044,0.05366794,-0.29126871,-241.26176,238.58727)"
       id="g125"
       style="clip-rule:evenodd;fill-rule:evenodd;stroke-linejoin:round;stroke-miterlimit:2">
      <path
         d="m 3864.13,900.821 c -0.27,0 -0.53,-0.104 -0.73,-0.311 l -9.34,-9.845 c -0.38,-0.401 -0.36,-1.034 0.04,-1.414 0.4,-0.38 1.03,-0.362 1.41,0.037 l 9.34,9.845 c 0.38,0.401 0.37,1.034 -0.03,1.414 -0.2,0.184 -0.45,0.274 -0.69,0.274 z"
         style="fill-rule:nonzero"
         id="path124" />
    </g>
    <g
       transform="matrix(0.0207784,0.03935316,0.39259685,-0.22696537,-410.58146,68.705286)"
       id="g126"
       style="clip-rule:evenodd;fill-rule:evenodd;stroke-linejoin:round;stroke-miterlimit:2">
      <path
         d="m 3864.13,900.821 c -0.27,0 -0.53,-0.104 -0.73,-0.311 l -9.34,-9.845 c -0.38,-0.401 -0.36,-1.034 0.04,-1.414 0.4,-0.38 1.03,-0.362 1.41,0.037 l 9.34,9.845 c 0.38,0.401 0.37,1.034 -0.03,1.414 -0.2,0.184 -0.45,0.274 -0.69,0.274 z"
         style="fill-rule:nonzero"
         id="path125" />
    </g>
    <g
       transform="matrix(0.07847735,0,0,0.08211711,-279.06179,-56.533001)"
       id="g127"
       style="clip-rule:evenodd;fill-rule:evenodd;stroke-linejoin:round;stroke-miterlimit:2">
      <path
         d="m 3864.13,900.821 c -0.27,0 -0.53,-0.104 -0.73,-0.311 l -9.34,-9.845 c -0.38,-0.401 -0.36,-1.034 0.04,-1.414 0.4,-0.38 1.03,-0.362 1.41,0.037 l 9.34,9.845 c 0.38,0.401 0.37,1.034 -0.03,1.414 -0.2,0.184 -0.45,0.274 -0.69,0.274 z"
         style="fill-rule:nonzero"
         id="path126" />
    </g>
    <g
       transform="matrix(0.07847735,0,0,0.08211711,-284.03443,-54.188123)"
       id="g128"
       style="clip-rule:evenodd;fill-rule:evenodd;stroke-linejoin:round;stroke-miterlimit:2">
      <path
         d="m 3928.87,881.356 -1.45,-0.962 -15.86,25.988 -1.13,-1.037 c -3.07,-2.79 -7.01,-4.426 -11.14,-4.628 l -15.01,-0.734 c -1.48,-0.072 -1.76,2.595 -1.14,3.943 1.34,2.958 12.27,3.578 12.27,3.578 l -29.76,8.939 c -1.46,0.437 -3.66,1.279 -4.45,2.938 -0.55,1.142 -0.21,2.425 1.06,2.367 l 15.8,-0.74 c 0,0 -17.03,5.097 -20.52,6.495 -2.38,0.952 -3.01,2.366 -3.41,3.066 -0.58,1.022 0.31,2.257 1.46,2.041 l 24.91,-4.665 -17.76,7.503 c -1.25,0.53 -2.27,1.503 -2.85,2.734 l -0.37,0.768 c -0.51,1.073 0.48,2.25 1.62,1.94 l 23.03,-6.241 -13.41,6.137 c -1.01,0.498 -2.66,1.617 -2.72,2.99 0,0 0.09,2.25 0.49,2.226 2.54,-0.16 19.56,-6.725 19.56,-6.725 l 14.26,-3.989 c 3.3,-0.666 6.34,-2.301 8.71,-4.699 l 18.12,-15.207 c 9.96,-8.367 9.8,-27.339 -0.31,-34.026 z"
         style="fill:#ffffff;fill-rule:nonzero"
         id="path127" />
    </g>
    <g
       transform="matrix(0.07847735,0,0,0.08211711,-284.03443,-54.188123)"
       id="g129"
       style="clip-rule:evenodd;fill-rule:evenodd;stroke-linejoin:round;stroke-miterlimit:2">
      <path
         d="m 3884.17,933.649 c 0.41,0 0.79,0.256 0.94,0.661 0.17,0.489 -0.05,1.032 -0.53,1.249 l -13.4,6.135 c -1,0.494 -2.11,1.379 -2.14,2.126 0.01,0.339 0.05,0.745 0.1,1.066 2.96,-0.686 12.41,-4.159 18.59,-6.542 l 14.35,-4.019 c 3.19,-0.646 6.03,-2.176 8.27,-4.439 l 18.18,-15.27 c 4.72,-3.957 7.39,-10.88 6.98,-18.068 -0.36,-6.338 -2.98,-11.572 -7.19,-14.358 l -0.58,-0.389 -15.32,25.101 c -0.16,0.255 -0.42,0.427 -0.71,0.47 -0.3,0.041 -0.6,-0.051 -0.82,-0.251 l -1.14,-1.037 c -2.88,-2.627 -6.62,-4.178 -10.51,-4.368 l -15.01,-0.734 c -0.02,-10e-4 -0.05,-0.005 -0.12,0.1 -0.34,0.501 -0.37,1.75 -0.06,2.431 0.67,1.487 6.45,2.712 11.42,2.993 0.48,0.027 0.88,0.398 0.94,0.881 0.05,0.482 -0.24,0.935 -0.71,1.075 l -29.77,8.938 c -2.07,0.624 -3.36,1.436 -3.83,2.412 -0.2,0.415 -0.17,0.771 -0.09,0.891 0.02,0.044 0.12,0.052 0.2,0.046 l 15.81,-0.74 c 0.51,-0.035 0.94,0.333 1.03,0.831 0.08,0.498 -0.22,0.981 -0.7,1.126 -0.17,0.051 -17.03,5.1 -20.44,6.466 -1.88,0.75 -2.44,1.776 -2.81,2.455 l -0.1,0.174 c -0.1,0.184 -0.03,0.336 0.02,0.41 0.06,0.075 0.18,0.2 0.39,0.155 l 24.91,-4.664 c 0.5,-0.084 0.99,0.206 1.14,0.695 0.15,0.49 -0.1,1.011 -0.57,1.209 l -17.76,7.503 c -1.03,0.436 -1.86,1.232 -2.34,2.242 l -0.36,0.768 c -0.1,0.197 -0.01,0.347 0.05,0.419 0.06,0.071 0.19,0.184 0.4,0.127 l 23.02,-6.24 c 0.09,-0.025 0.18,-0.036 0.27,-0.036 z m -15.63,13.353 c -0.26,0 -0.59,-0.124 -0.77,-0.294 -0.21,-0.185 -0.64,-0.569 -0.73,-2.89 0.09,-2.188 2.53,-3.559 3.28,-3.928 l 2.41,-1.103 -11.32,3.068 c -0.91,0.246 -1.86,-0.05 -2.46,-0.775 -0.61,-0.725 -0.73,-1.706 -0.33,-2.558 l 0.37,-0.769 c 0.69,-1.454 1.88,-2.599 3.36,-3.226 l 9.21,-3.89 -15.78,2.956 c -0.93,0.166 -1.84,-0.195 -2.38,-0.961 -0.55,-0.763 -0.6,-1.742 -0.14,-2.557 l 0.09,-0.15 c 0.44,-0.816 1.28,-2.334 3.81,-3.351 1.95,-0.778 7.91,-2.65 12.93,-4.192 l -7.79,0.365 c -0.83,0.036 -1.54,-0.305 -1.96,-0.938 -0.51,-0.762 -0.52,-1.858 -0.04,-2.859 0.73,-1.527 2.38,-2.661 5.06,-3.466 l 25.05,-7.521 c -3.37,-0.547 -7.27,-1.606 -8.19,-3.624 -0.52,-1.165 -0.59,-3.171 0.24,-4.381 0.45,-0.665 1.1,-1.014 1.87,-0.975 l 15,0.735 c 4.36,0.213 8.54,1.949 11.77,4.888 l 0.24,0.221 15.23,-24.953 c 0.14,-0.232 0.37,-0.396 0.63,-0.456 0.27,-0.06 0.55,-0.008 0.77,0.143 l 1.46,0.961 c 4.74,3.138 7.68,8.938 8.08,15.913 0.44,7.805 -2.5,15.359 -7.69,19.713 l -18.12,15.208 c -2.45,2.485 -5.64,4.205 -9.16,4.913 l -14.18,3.97 c -1.67,0.648 -17.15,6.596 -19.77,6.761 -0.02,10e-4 -0.03,0.002 -0.05,0.002 z"
         style="fill:#000010;fill-rule:nonzero"
         id="path128" />
    </g>
    <g
       transform="matrix(0.07847735,0,0,0.08211711,-284.03443,-54.188123)"
       id="g130"
       style="clip-rule:evenodd;fill-rule:evenodd;stroke-linejoin:round;stroke-miterlimit:2">
      <path
         d="m 3761.7,866.568 3.99,13.966 -7.65,11.482 c -5.11,7.665 -5.56,17.528 -1.16,25.623 3.48,6.416 9.61,10.975 16.76,12.464 l 4.69,0.978 z"
         style="fill:#000010;fill-rule:nonzero"
         id="path129" />
    </g>
    <g
       transform="matrix(0.07847735,0,0,0.08211711,-284.03443,-54.188123)"
       id="g131"
       style="clip-rule:evenodd;fill-rule:evenodd;stroke-linejoin:round;stroke-miterlimit:2">
      <path
         d="m 3778.33,931.99 c -0.06,0 -0.12,-0.007 -0.18,-0.019 l -4.7,-0.978 c -7.42,-1.547 -13.75,-6.256 -17.37,-12.92 -4.57,-8.416 -4.11,-18.593 1.2,-26.561 l 7.42,-11.132 -3.87,-13.563 c -0.14,-0.483 0.14,-0.986 0.62,-1.125 0.49,-0.137 0.99,0.143 1.13,0.625 l 3.99,13.967 c 0.07,0.257 0.03,0.532 -0.12,0.755 l -7.65,11.483 c -4.94,7.404 -5.37,16.862 -1.12,24.683 3.36,6.193 9.24,10.569 16.14,12.007 l 4.7,0.978 c 0.49,0.102 0.8,0.583 0.7,1.076 -0.09,0.428 -0.47,0.724 -0.89,0.724 z"
         style="fill:#ffffff;fill-rule:nonzero"
         id="path130" />
    </g>
    <g
       transform="matrix(0.10015823,0,0,0.10480354,-615.69492,-18.189398)"
       id="g132"
       style="clip-rule:evenodd;fill-rule:evenodd;stroke-linejoin:round;stroke-miterlimit:2">
      <path
         d="m 6164.39,236.637 h 45.74 c 7.08,0 12.82,-5.742 12.82,-12.825 v -19.618 c 0,-7.084 -5.74,-12.826 -12.82,-12.826 h -45.74 c -7.08,0 -12.82,5.742 -12.82,12.826 v 19.618 c 0,7.083 5.74,12.825 12.82,12.825 z"
         style="fill:#9735ff;fill-rule:nonzero"
         id="path131" />
    </g>
    <g
       transform="matrix(0.10015823,0,0,0.10480354,-615.69492,-18.189398)"
       id="g133"
       style="clip-rule:evenodd;fill-rule:evenodd;stroke-linejoin:round;stroke-miterlimit:2">
      <path
         d="m 6202.06,225.842 v 23.528 l -21.59,-20.045 z"
         style="fill:#9735ff;fill-rule:nonzero"
         id="path132" />
    </g>
    <g
       transform="matrix(0.10015823,0,0,0.10480354,-615.69492,-18.189398)"
       id="g134"
       style="clip-rule:evenodd;fill-rule:evenodd;stroke-linejoin:round;stroke-miterlimit:2">
      <rect
         x="6181.9102"
         y="222.892"
         width="4.3000002"
         height="2"
         style="fill:#ffffff;fill-rule:nonzero"
         id="rect133" />
    </g>
    <g
       transform="matrix(0.10015823,0,0,0.10480354,-615.69492,-18.189398)"
       id="g135"
       style="clip-rule:evenodd;fill-rule:evenodd;stroke-linejoin:round;stroke-miterlimit:2">
      <path
         d="m 6188.36,214.132 v -2 c 1.82,0 3.31,-1.482 3.31,-3.304 v -2.152 c 0,-1.821 -1.49,-3.304 -3.31,-3.304 h -4.3 c -1.82,0 -3.31,1.483 -3.31,3.304 h -2 c 0,-2.924 2.38,-5.304 5.31,-5.304 h 4.3 c 2.93,0 5.31,2.38 5.31,5.304 v 2.152 c 0,2.925 -2.38,5.304 -5.31,5.304 z"
         style="fill:#ffffff;fill-rule:nonzero"
         id="path134" />
    </g>
    <g
       transform="matrix(0.10015823,0,0,0.10480354,-615.69492,-18.189398)"
       id="g136"
       style="clip-rule:evenodd;fill-rule:evenodd;stroke-linejoin:round;stroke-miterlimit:2">
      <path
         d="m 6185.06,219.588 h -2 v -2.151 c 0,-2.925 2.38,-5.305 5.3,-5.305 v 2 c -1.82,0 -3.3,1.483 -3.3,3.305 z"
         style="fill:#ffffff;fill-rule:nonzero"
         id="path135" />
    </g>
    <g
       transform="matrix(0.10015823,0,0,0.10480354,-615.69492,-18.189398)"
       id="g137"
       style="clip-rule:evenodd;fill-rule:evenodd;stroke-linejoin:round;stroke-miterlimit:2">
      <path
         d="m 6240.88,225.863 h -19.79 c -7.09,0 -12.83,5.742 -12.83,12.826 v 3.17 c 0,5.839 3.91,10.758 9.25,12.308 v 8.623 l 9.3,-8.106 h 14.07 c 7.09,0 12.83,-5.742 12.83,-12.825 v -3.17 c 0,-7.084 -5.74,-12.826 -12.83,-12.826 z"
         style="fill:#ffffff;fill-rule:nonzero"
         id="path136" />
    </g>
    <g
       transform="matrix(0.10015823,0,0,0.10480354,-615.69492,-18.189398)"
       id="g138"
       style="clip-rule:evenodd;fill-rule:evenodd;stroke-linejoin:round;stroke-miterlimit:2">
      <path
         d="m 6221.09,226.863 c -6.52,0 -11.83,5.305 -11.83,11.826 v 3.17 c 0,5.224 3.51,9.891 8.53,11.348 0.42,0.124 0.72,0.516 0.72,0.961 v 6.424 l 7.64,-6.662 c 0.18,-0.159 0.42,-0.246 0.66,-0.246 h 14.07 c 6.53,0 11.83,-5.305 11.83,-11.825 v -3.17 c 0,-6.521 -5.3,-11.826 -11.83,-11.826 z m -3.58,36.927 c -0.14,0 -0.28,-0.029 -0.42,-0.09 -0.35,-0.162 -0.58,-0.518 -0.58,-0.91 v -7.893 c -5.48,-1.927 -9.25,-7.184 -9.25,-13.038 v -3.17 c 0,-7.623 6.2,-13.826 13.83,-13.826 h 19.79 c 7.63,0 13.83,6.203 13.83,13.826 v 3.17 c 0,7.623 -6.2,13.825 -13.83,13.825 h -13.7 l -9.01,7.86 c -0.19,0.162 -0.42,0.246 -0.66,0.246 z"
         style="fill:#000010;fill-rule:nonzero"
         id="path137" />
    </g>
    <g
       transform="matrix(0.10015823,0,0,0.10480354,-615.69492,-18.189398)"
       id="g139"
       style="clip-rule:evenodd;fill-rule:evenodd;stroke-linejoin:round;stroke-miterlimit:2">
      <path
         d="m 6242.18,237.505 h -23.05 c -0.56,0 -1,-0.448 -1,-1 0,-0.552 0.44,-1 1,-1 h 23.05 c 0.55,0 1,0.448 1,1 0,0.552 -0.45,1 -1,1 z"
         style="fill:#000010;fill-rule:nonzero"
         id="path138" />
    </g>
    <g
       transform="matrix(0.10015823,0,0,0.10480354,-615.69492,-18.189398)"
       id="g140"
       style="clip-rule:evenodd;fill-rule:evenodd;stroke-linejoin:round;stroke-miterlimit:2">
      <path
         d="m 6242.18,243.934 h -23.05 c -0.56,0 -1,-0.448 -1,-1 0,-0.553 0.44,-1 1,-1 h 23.05 c 0.55,0 1,0.447 1,1 0,0.552 -0.45,1 -1,1 z"
         style="fill:#000010;fill-rule:nonzero"
         id="path139" />
    </g>
  </g>
</svg>
