<?xml version="1.0" encoding="UTF-8" standalone="no"?>
<!-- Created with Inkscape (http://www.inkscape.org/) -->

<svg
   width="160"
   height="100"
   viewBox="0 0 42.332801 26.458001"
   version="1.1"
   id="svg1"
   xmlns="http://www.w3.org/2000/svg"
   xmlns:svg="http://www.w3.org/2000/svg">
  <defs
     id="defs1" />
  <g
     id="layer1">
    <g
       transform="matrix(0.03016144,0,0,0.02513467,-33.317949,-31.677812)"
       id="g72"
       style="clip-rule:evenodd;fill-rule:evenodd;stroke-linejoin:round;stroke-miterlimit:2">
        <g
   transform="matrix(4.16667,0,0,4.16667,-15510,-484.72)"
   id="g2">
            <rect
   x="4002.46"
   y="430.358"
   width="302.94"
   height="234.108"
   style="fill:#ffffff;fill-rule:nonzero"
   id="rect1" />

        </g>

        <g
   transform="matrix(4.16667,0,0,4.16667,-15510,-484.72)"
   id="g3">
            <path
   d="M 4277.81,652.411 4234.8,529.593 c 0,-1.14 -25.11,-3.381 -43.04,-4.835 -11.07,-0.898 -21.89,3.629 -29.02,12.148 -4.47,5.343 -7.2,11.923 -7.83,18.861 l -8.79,96.644 z"
   style="fill:#ffffff;fill-rule:nonzero"
   id="path1" />

        </g>

        <g
   transform="matrix(4.16667,0,0,4.16667,-15510,-484.72)"
   id="g4">
            <path
   d="m 4276.86,652.742 -42.9,-122.519 c -1.22,-0.411 -7.8,-1.672 -42.28,-4.468 -10.73,-0.87 -21.26,3.539 -28.17,11.792 -4.36,5.212 -6.99,11.543 -7.61,18.31 l -8.78,96.645 -1.99,-0.181 8.78,-96.645 c 0.65,-7.174 3.44,-13.887 8.07,-19.412 7.32,-8.751 18.48,-13.422 29.86,-12.502 41.9,3.397 43.86,4.42 43.95,5.648 l 42.96,122.671 z"
   style="fill:#000010;fill-rule:nonzero"
   id="path2" />

        </g>

        <g
   transform="matrix(4.16667,0,0,4.16667,-15510,-484.72)"
   id="g5">
            <path
   d="m 4218.51,547.893 -14.66,3.4 c -4.68,1.085 -9.35,-1.827 -10.43,-6.505 l -10.51,-45.305 34.33,-7.965 9.88,42.563 c 1.43,6.192 -2.42,12.375 -8.61,13.812 z"
   style="fill:#ffffff;fill-rule:nonzero"
   id="path3" />

        </g>

        <g
   transform="matrix(4.16667,0,0,4.16667,-15510,-484.72)"
   id="g6">
            <path
   d="m 4184.11,500.231 10.28,44.331 c 0.96,4.133 5.1,6.716 9.23,5.756 l 14.66,-3.399 c 2.73,-0.635 5.06,-2.296 6.54,-4.678 1.49,-2.382 1.96,-5.199 1.32,-7.934 l -9.64,-41.589 z m 17.77,52.288 c -4.4,0 -8.4,-3.032 -9.44,-7.505 l -10.51,-45.305 c -0.12,-0.538 0.21,-1.075 0.75,-1.2 l 34.34,-7.965 c 0.53,-0.122 1.07,0.21 1.2,0.748 l 9.87,42.563 c 0.76,3.255 0.2,6.609 -1.57,9.444 -1.77,2.835 -4.53,4.813 -7.79,5.568 l -14.66,3.4 c -0.73,0.17 -1.46,0.252 -2.19,0.252 z"
   style="fill:#000010;fill-rule:nonzero"
   id="path4" />

        </g>

        <g
   transform="matrix(4.16667,0,0,4.16667,-15510,-484.72)"
   id="g7">
            <path
   d="m 4190.58,529.268 -6.27,-22.669 20.66,-5.707 8.73,5.929 c -2.73,10.1 -10.82,18.269 -23.12,22.447 z"
   style="fill:#000010;fill-rule:nonzero"
   id="path5" />

        </g>

        <g
   transform="matrix(4.16667,0,0,4.16667,-15510,-484.72)"
   id="g8">
            <path
   d="m 4200.72,508.26 c -19.07,0 -34.54,-15.465 -34.54,-34.542 v -1.839 c 0,-19.077 15.47,-34.542 34.54,-34.542 19.08,0 34.55,15.465 34.55,34.542 v 1.839 c 0,19.077 -15.47,34.542 -34.55,34.542 z"
   style="fill:#000010;fill-rule:nonzero"
   id="path6" />

        </g>

        <g
   transform="matrix(4.16667,0,0,4.16667,-15510,-484.72)"
   id="g9">
            <path
   d="m 4191.22,505.451 c -15.92,0 -28.82,-12.906 -28.82,-28.826 v -5.896 c 0,-15.921 12.9,-28.827 28.82,-28.827 15.92,0 28.83,12.906 28.83,28.827 v 5.896 c 0,15.92 -12.91,28.826 -28.83,28.826 z"
   style="fill:#000010;fill-rule:nonzero"
   id="path7" />

        </g>

        <g
   transform="matrix(4.16667,0,0,4.16667,-15510,-484.72)"
   id="g10">
            <path
   d="m 4165.72,477.662 v -0.205 c 0,-16.081 13.04,-29.118 29.12,-29.118 h 1.64 c 10.9,0 20.39,5.987 25.38,14.847 l 1.87,-0.557 c 3.81,-1.133 7.82,1.037 8.95,4.845 1.13,3.809 -1.04,7.814 -4.85,8.946 l -2.24,0.667 c 0,0.124 0.01,0.246 0.01,0.37 v 11.151 c 0,16.081 -13.04,29.117 -29.12,29.117 h -1.64 c -14.91,0 -27.2,-11.214 -28.91,-25.669 z"
   style="fill:#ffffff;fill-rule:nonzero"
   id="path8" />

        </g>

        <g
   transform="matrix(4.16667,0,0,4.16667,-15510,-484.72)"
   id="g11">
            <path
   d="m 4166.93,491.989 c 1.7,14.105 13.68,24.737 27.91,24.737 h 1.64 c 15.51,0 28.12,-12.614 28.12,-28.118 l -0.01,-11.513 c 0,-0.445 0.29,-0.84 0.72,-0.966 l 2.24,-0.667 c 3.27,-0.974 5.15,-4.429 4.17,-7.703 -0.97,-3.274 -4.43,-5.146 -7.7,-4.172 l -1.87,0.558 c -0.45,0.134 -0.93,-0.061 -1.16,-0.468 -4.99,-8.844 -14.38,-14.338 -24.51,-14.338 h -1.64 c -15.5,0 -28.12,12.614 -28.12,28.118 v 0.198 z m 29.55,26.737 h -1.64 c -15.26,0 -28.11,-11.415 -29.9,-26.553 0,-0.034 -0.01,-0.068 -0.01,-0.103 l -0.21,-14.394 v -0.219 c 0,-16.607 13.51,-30.118 30.12,-30.118 h 1.64 c 10.59,0 20.42,5.599 25.85,14.665 l 1.12,-0.334 c 4.33,-1.287 8.9,1.188 10.19,5.52 1.29,4.33 -1.19,8.901 -5.52,10.189 l -1.52,0.451 v 10.778 c 0,16.607 -13.51,30.118 -30.12,30.118 z"
   style="fill:#000010;fill-rule:nonzero"
   id="path9" />

        </g>

        <g
   transform="matrix(4.16667,0,0,4.16667,-15510,-484.72)"
   id="g12">
            <path
   d="m 4224.94,473.173 c -0.48,0 -0.9,-0.346 -0.98,-0.835 -0.79,-4.728 3.04,-7.09 3.21,-7.188 0.47,-0.285 1.09,-0.131 1.37,0.342 0.28,0.472 0.13,1.085 -0.34,1.37 -0.12,0.076 -2.83,1.789 -2.27,5.147 0.09,0.545 -0.28,1.06 -0.82,1.151 -0.06,0.009 -0.11,0.013 -0.17,0.013 z"
   style="fill:#000010;fill-rule:nonzero"
   id="path10" />

        </g>

        <g
   transform="matrix(4.16667,0,0,4.16667,-15510,-484.72)"
   id="g13">
            <path
   d="m 4178.68,478.18 c 0.43,1.118 -1.73,2.991 -4.83,4.182 -3.1,1.192 -5.95,1.251 -6.39,0.133 -0.43,-1.118 1.74,-2.99 4.83,-4.182 3.1,-1.191 5.96,-1.251 6.39,-0.133 z"
   style="fill:#000010;fill-rule:nonzero"
   id="path11" />

        </g>

        <g
   transform="matrix(4.16667,0,0,4.16667,-15510,-484.72)"
   id="g14">
            <path
   d="m 4200.92,476.578 c -0.08,1.196 -2.83,1.98 -6.14,1.752 -3.31,-0.227 -5.92,-1.381 -5.84,-2.576 0.08,-1.195 2.83,-1.979 6.14,-1.752 3.31,0.228 5.93,1.381 5.84,2.576 z"
   style="fill:#000010;fill-rule:nonzero"
   id="path12" />

        </g>

        <g
   transform="matrix(4.16667,0,0,4.16667,-15510,-484.72)"
   id="g15">
            <path
   d="m 4187.58,496.788 c -0.03,0 -0.06,-0.002 -0.1,-0.006 -1.38,-0.142 -2.64,-0.865 -3.46,-1.984 -0.82,-1.119 -1.13,-2.539 -0.85,-3.897 l 1.59,-7.683 c 0.11,-0.541 0.64,-0.89 1.18,-0.777 0.54,0.112 0.89,0.641 0.78,1.182 l -1.59,7.683 c -0.17,0.817 0.01,1.637 0.5,2.31 0.5,0.674 1.23,1.091 2.06,1.177 0.55,0.057 0.94,0.548 0.89,1.097 -0.06,0.515 -0.49,0.898 -1,0.898 z"
   style="fill:#000010;fill-rule:nonzero"
   id="path13" />

        </g>

        <g
   transform="matrix(4.16667,0,0,4.16667,-15510,-484.72)"
   id="g16">
            <path
   d="m 4193.41,505.166 c -0.83,0 -1.7,-0.176 -2.61,-0.528 -0.51,-0.2 -0.77,-0.78 -0.56,-1.295 0.2,-0.515 0.78,-0.767 1.29,-0.568 1.36,0.532 2.54,0.52 3.59,-0.035 2.57,-1.358 3.56,-5.477 3.57,-5.518 0.12,-0.538 0.66,-0.873 1.2,-0.749 0.53,0.124 0.87,0.66 0.75,1.198 -0.05,0.205 -1.2,5.043 -4.58,6.834 -0.83,0.44 -1.72,0.661 -2.65,0.661 z"
   style="fill:#000010;fill-rule:nonzero"
   id="path14" />

        </g>

        <g
   transform="matrix(4.16667,0,0,4.16667,-15510,-484.72)"
   id="g17">
            <path
   d="m 4202.33,448.877 c 5.88,1.975 11.01,4.58 14.79,7.323 -0.13,1.072 -0.37,2.137 -0.72,3.185 -1.67,4.973 -5.59,8.701 -10.68,10.798 -3.07,-0.511 -6.36,-1.327 -9.72,-2.455 -13.56,-4.555 -23.13,-12.467 -21.38,-17.673 1.75,-5.205 14.16,-5.732 27.71,-1.178 z"
   style="fill:#000010;fill-rule:nonzero"
   id="path15" />

        </g>

        <g
   transform="matrix(4.16667,0,0,4.16667,-15510,-484.72)"
   id="g18">
            <path
   d="m 4195.63,485.281 c 0.09,2.025 -0.88,3.713 -2.17,3.769 -1.29,0.057 -2.41,-1.54 -2.5,-3.565 -0.09,-2.026 0.89,-3.713 2.18,-3.77 1.28,-0.056 2.4,1.54 2.49,3.566 z"
   style="fill:#000010;fill-rule:nonzero"
   id="path16" />

        </g>

        <g
   transform="matrix(4.16667,0,0,4.16667,-15510,-484.72)"
   id="g19">
            <path
   d="m 4176.69,489.832 c 0.09,2.025 -0.88,3.713 -2.17,3.769 -1.29,0.057 -2.41,-1.54 -2.49,-3.565 -0.09,-2.026 0.88,-3.713 2.17,-3.77 1.29,-0.056 2.4,1.54 2.49,3.566 z"
   style="fill:#000010;fill-rule:nonzero"
   id="path17" />

        </g>

        <g
   transform="matrix(4.16667,0,0,4.16667,-15510,-484.72)"
   id="g20">
            <path
   d="m 4208.22,442.138 c -0.14,0 -0.28,-0.029 -0.41,-0.09 -0.5,-0.228 -0.73,-0.821 -0.5,-1.324 2.22,-4.883 8.77,-4.59 9.05,-4.573 0.55,0.03 0.97,0.5 0.94,1.05 -0.03,0.552 -0.5,0.99 -1.05,0.947 -0.06,0 -5.47,-0.23 -7.12,3.403 -0.16,0.369 -0.53,0.587 -0.91,0.587 z"
   style="fill:#000010;fill-rule:nonzero"
   id="path18" />

        </g>

        <g
   transform="matrix(4.16667,0,0,4.16667,-15510,-484.72)"
   id="g21">
            <path
   d="m 4208.98,439.903 c -0.11,0 -0.21,-0.017 -0.32,-0.053 -0.52,-0.178 -0.8,-0.745 -0.63,-1.268 0.64,-1.884 -0.67,-2.667 -0.72,-2.7 -0.48,-0.276 -0.65,-0.888 -0.37,-1.366 0.28,-0.478 0.89,-0.643 1.37,-0.365 0.96,0.558 2.54,2.337 1.62,5.073 -0.14,0.417 -0.53,0.679 -0.95,0.679 z"
   style="fill:#000010;fill-rule:nonzero"
   id="path19" />

        </g>

        <g
   transform="matrix(4.16667,0,0,4.16667,-15510,-484.72)"
   id="g22">
            <path
   d="m 4193.48,469.983 c -0.07,0 -0.15,-0.008 -0.22,-0.024 -8.54,-1.906 -15,-6.039 -19.2,-12.287 -0.31,-0.459 -0.19,-1.08 0.27,-1.388 0.46,-0.309 1.08,-0.186 1.39,0.272 3.9,5.808 9.95,9.661 17.97,11.451 0.54,0.12 0.88,0.655 0.76,1.194 -0.1,0.466 -0.51,0.782 -0.97,0.782 z"
   style="fill:#000010;fill-rule:nonzero"
   id="path20" />

        </g>

        <g
   transform="matrix(4.16667,0,0,4.16667,-15510,-484.72)"
   id="g23">
            <path
   d="m 4222.85,457.986 -0.6,22.645 c -0.03,1.116 -1.07,2.033 -2.51,2.209 -1.6,0.196 -3.18,-0.592 -3.63,-1.807 l -9.97,-27.055 z"
   style="fill:#000010;fill-rule:nonzero"
   id="path21" />

        </g>

        <g
   transform="matrix(4.16667,0,0,4.16667,-15510,-484.72)"
   id="g24">
            <path
   d="m 4135.43,608.766 c 1.97,-8.968 3.13,-21.194 3.08,-37.879 l -0.44,-3.582 c -1.24,-10.236 -8.7,-18.63 -18.72,-21.077 l -53.06,-12.961 c -8.96,-2.19 -18.4,0.784 -24.49,7.717 l -31.99,67.782 z"
   style="fill:#000010;fill-rule:nonzero"
   id="path22" />

        </g>

        <g
   transform="matrix(4.16667,0,0,4.16667,-15510,-484.72)"
   id="g25">
            <path
   d="m 4086.83,537.659 13.08,20.715 c 3.47,5.494 11.79,4.375 13.68,-1.84 l 14.83,-48.643 -29.21,-9.268 z"
   style="fill:#ffffff;fill-rule:nonzero"
   id="path23" />

        </g>

        <g
   transform="matrix(4.16667,0,0,4.16667,-15510,-484.72)"
   id="g26">
            <path
   d="m 4087.92,537.519 12.84,20.321 c 1.39,2.207 3.85,3.363 6.45,3.014 2.58,-0.348 4.66,-2.115 5.43,-4.612 l 14.54,-47.697 -27.32,-8.666 z m 18.37,25.397 c -2.93,0 -5.62,-1.471 -7.23,-4.008 l -13.08,-20.715 c -0.16,-0.249 -0.19,-0.555 -0.11,-0.836 l 12.39,-39.036 c 0.08,-0.253 0.26,-0.463 0.49,-0.586 0.24,-0.122 0.52,-0.145 0.77,-0.065 l 29.2,9.268 c 0.52,0.165 0.82,0.72 0.66,1.244 l -14.83,48.643 c -0.99,3.254 -3.7,5.557 -7.08,6.011 -0.39,0.053 -0.79,0.08 -1.18,0.08 z"
   style="fill:#000010;fill-rule:nonzero"
   id="path24" />

        </g>

        <g
   transform="matrix(4.16667,0,0,4.16667,-15510,-484.72)"
   id="g27">
            <path
   d="m 4093.64,521.703 7.32,-23.08 27.46,8.713 -7.84,24.708 c -9.77,0.784 -19.76,-2.734 -26.94,-10.341 z"
   style="fill:#000010;fill-rule:nonzero"
   id="path25" />

        </g>

        <g
   transform="matrix(4.16667,0,0,4.16667,-15510,-484.72)"
   id="g28">
            <path
   d="m 4105.36,452.027 7.38,0.902 c 17.18,2.101 30.64,14.962 32.65,31.193 l 2.42,19.599 c 0.9,7.327 -4.6,13.982 -12.35,14.946 l -29.76,3.698 z"
   style="fill:#000010;fill-rule:nonzero"
   id="path26" />

        </g>

        <g
   transform="matrix(4.16667,0,0,4.16667,-15510,-484.72)"
   id="g29">
            <path
   d="m 4119.17,452.705 -8.57,-0.605 c -19.99,-1.408 -37.78,9.105 -43.13,25.498 l -6.48,19.794 c -2.42,7.4 2.59,15.439 11.25,18.055 l 33.22,10.035 z"
   style="fill:#000010;fill-rule:nonzero"
   id="path27" />

        </g>

        <g
   transform="matrix(4.16667,0,0,4.16667,-15510,-484.72)"
   id="g30">
            <path
   d="m 4116.21,461.088 c -0.12,0 -0.24,-0.021 -0.36,-0.065 -0.51,-0.197 -0.77,-0.774 -0.58,-1.29 l 6.87,-18.053 c 0.91,-2.403 0.5,-4.95 -1.17,-7.173 -0.33,-0.441 -0.24,-1.068 0.2,-1.4 0.44,-0.33 1.07,-0.242 1.4,0.199 2.06,2.751 2.59,6.062 1.44,9.085 l -6.87,18.052 c -0.15,0.4 -0.53,0.645 -0.93,0.645 z"
   style="fill:#000010;fill-rule:nonzero"
   id="path28" />

        </g>

        <g
   transform="matrix(4.16667,0,0,4.16667,-15510,-484.72)"
   id="g31">
            <path
   d="m 4115.87,460.34 4.69,-18.509 c 1.48,-5.798 -2.76,-11.503 -9.04,-12.181 l -6.96,-0.752 c -6.92,-0.748 -12.69,4.938 -11.6,11.429 l 3.59,21.292 z"
   style="fill:#000010;fill-rule:nonzero"
   id="path29" />

        </g>

        <g
   transform="matrix(4.16667,0,0,4.16667,-15510,-484.72)"
   id="g32">
            <path
   d="m 4068.17,484.298 c 1.43,-4.804 6.48,-7.541 11.29,-6.113 l 0.15,0.046 c 3.98,-13.817 14.37,-23.671 26.56,-23.671 13.48,0 24.75,12.061 27.6,28.201 4.19,0.184 7.83,3.271 8.54,7.577 0.82,4.944 -2.52,9.619 -7.46,10.441 l -1.56,0.259 c -3.47,14.959 -14.29,25.874 -27.12,25.874 -14.02,0 -25.65,-13.037 -27.9,-30.143 l -3.98,-1.186 c -4.81,-1.428 -7.55,-6.481 -6.12,-11.285 z"
   style="fill:#ffffff;fill-rule:nonzero"
   id="path30" />

        </g>

        <g
   transform="matrix(4.16667,0,0,4.16667,-15510,-484.72)"
   id="g33">
            <path
   d="m 4068.17,484.298 h 0.01 z m 8.69,-5.493 c -1.33,0 -2.64,0.33 -3.83,0.979 -1.9,1.027 -3.28,2.731 -3.9,4.799 -0.61,2.068 -0.39,4.251 0.64,6.147 1.03,1.897 2.73,3.279 4.8,3.894 l 3.99,1.186 c 0.38,0.112 0.65,0.437 0.71,0.828 2.22,16.963 13.54,29.274 26.9,29.274 11.97,0 22.72,-10.322 26.15,-25.1 0.09,-0.394 0.41,-0.694 0.81,-0.761 l 1.56,-0.258 c 4.39,-0.731 7.37,-4.899 6.64,-9.291 -0.63,-3.741 -3.82,-6.577 -7.61,-6.742 -0.47,-0.02 -0.86,-0.363 -0.94,-0.825 -2.79,-15.862 -13.98,-27.375 -26.61,-27.375 -11.36,0 -21.64,9.222 -25.6,22.948 -0.07,0.256 -0.24,0.472 -0.48,0.6 -0.23,0.127 -0.51,0.156 -0.76,0.082 l -0.16,-0.046 c -0.76,-0.226 -1.54,-0.339 -2.31,-0.339 z m 29.31,49.107 c -14.21,0 -26.23,-12.732 -28.8,-30.368 l -3.37,-1.003 c -2.58,-0.767 -4.71,-2.492 -5.99,-4.858 -1.28,-2.367 -1.56,-5.091 -0.8,-7.67 0.77,-2.579 2.5,-4.706 4.86,-5.988 2.12,-1.148 4.52,-1.497 6.86,-1.004 4.4,-14.074 15.25,-23.461 27.24,-23.461 13.61,0 25.22,11.584 28.44,28.27 4.37,0.547 7.96,3.943 8.69,8.344 0.91,5.48 -2.81,10.68 -8.29,11.591 l -0.9,0.151 c -3.81,15.34 -15.22,25.996 -27.94,25.996 z"
   style="fill:#000010;fill-rule:nonzero"
   id="path31" />

        </g>

        <g
   transform="matrix(4.16667,0,0,4.16667,-15510,-484.72)"
   id="g34">
            <path
   d="m 4093.72,456.642 c 3.87,-2.56 8.22,-4.002 12.82,-4.002 13.88,0 25.48,13.102 28.41,30.636 0.92,0.042 1.8,0.234 2.65,0.544 -16.32,0.823 -32.97,-9.68 -43.88,-27.178 z"
   style="fill:#000010;fill-rule:nonzero"
   id="path32" />

        </g>

        <g
   transform="matrix(4.16667,0,0,4.16667,-15510,-484.72)"
   id="g35">
            <path
   d="m 4126.77,487.287 c -0.03,0 -0.07,-10e-4 -0.1,-0.005 -13.2,-1.298 -25.57,-11.752 -32.3,-27.281 -0.21,-0.507 0.02,-1.096 0.52,-1.315 0.52,-0.221 1.1,0.014 1.32,0.52 6.44,14.862 18.18,24.858 30.66,26.086 0.55,0.054 0.95,0.544 0.89,1.093 -0.05,0.516 -0.48,0.902 -0.99,0.902 z"
   style="fill:#000010;fill-rule:nonzero"
   id="path33" />

        </g>

        <g
   transform="matrix(4.16667,0,0,4.16667,-15510,-484.72)"
   id="g36">
            <path
   d="m 4099.33,473.972 c -0.31,0 -0.62,-0.149 -0.82,-0.427 -3.23,-4.623 -5.14,-10.122 -5.66,-16.342 -0.05,-0.551 0.36,-1.034 0.91,-1.081 0.54,-0.041 1.03,0.362 1.08,0.913 0.5,5.864 2.28,11.033 5.31,15.364 0.32,0.452 0.21,1.076 -0.24,1.392 -0.18,0.122 -0.38,0.181 -0.58,0.181 z"
   style="fill:#000010;fill-rule:nonzero"
   id="path34" />

        </g>

        <g
   transform="matrix(4.16667,0,0,4.16667,-15510,-484.72)"
   id="g37">
            <path
   d="m 4078.65,490.668 c -0.05,0 -0.11,-0.004 -0.16,-0.014 -0.55,-0.09 -0.91,-0.606 -0.82,-1.15 0.49,-2.992 -1.92,-4.52 -2.03,-4.583 -0.46,-0.289 -0.61,-0.902 -0.33,-1.373 0.29,-0.47 0.9,-0.622 1.37,-0.339 0.15,0.09 3.68,2.268 2.96,6.624 -0.08,0.488 -0.51,0.835 -0.99,0.835 z"
   style="fill:#000010;fill-rule:nonzero"
   id="path35" />

        </g>

        <g
   transform="matrix(4.16667,0,0,4.16667,-15510,-484.72)"
   id="g38">
            <path
   d="m 4134.79,494.713 c -0.5,0 -0.93,-0.364 -0.99,-0.867 -0.03,-0.175 -0.52,-4.298 3.34,-6.438 0.49,-0.268 1.09,-0.093 1.36,0.39 0.27,0.483 0.1,1.092 -0.39,1.359 -2.65,1.47 -2.34,4.313 -2.33,4.434 0.07,0.546 -0.32,1.045 -0.87,1.114 -0.04,0.005 -0.08,0.008 -0.12,0.008 z"
   style="fill:#000010;fill-rule:nonzero"
   id="path36" />

        </g>

        <g
   transform="matrix(4.16667,0,0,4.16667,-15510,-484.72)"
   id="g39">
            <path
   d="m 4116.04,490.623 c -0.13,1.837 -1.18,3.261 -2.35,3.179 -1.17,-0.082 -2.01,-1.637 -1.88,-3.474 0.12,-1.837 1.17,-3.261 2.34,-3.179 1.17,0.081 2.02,1.637 1.89,3.474 z"
   style="fill:#000010;fill-rule:nonzero"
   id="path37" />

        </g>

        <g
   transform="matrix(4.16667,0,0,4.16667,-15510,-484.72)"
   id="g40">
            <path
   d="m 4097.27,490.394 c 0,1.842 -0.95,3.335 -2.12,3.335 -1.18,0 -2.13,-1.493 -2.13,-3.335 0,-1.842 0.95,-3.335 2.13,-3.335 1.17,0 2.12,1.493 2.12,3.335 z"
   style="fill:#000010;fill-rule:nonzero"
   id="path38" />

        </g>

        <g
   transform="matrix(4.16667,0,0,4.16667,-15510,-484.72)"
   id="g41">
            <path
   d="m 4106.67,515.786 c -0.46,0 -0.87,-0.323 -0.97,-0.794 -0.12,-0.54 0.23,-1.07 0.77,-1.184 5.29,-1.114 7.83,-4.981 7.85,-5.02 0.3,-0.464 0.92,-0.598 1.38,-0.3 0.47,0.299 0.6,0.917 0.3,1.382 -0.12,0.188 -3.02,4.611 -9.12,5.895 -0.07,0.014 -0.14,0.021 -0.21,0.021 z"
   style="fill:#000010;fill-rule:nonzero"
   id="path39" />

        </g>

        <g
   transform="matrix(4.16667,0,0,4.16667,-15510,-484.72)"
   id="g42">
            <path
   d="m 4103.33,505.076 c -0.08,0 -0.15,-0.008 -0.23,-0.026 -1.25,-0.287 -2.33,-1.096 -2.96,-2.219 -0.62,-1.122 -0.74,-2.464 -0.33,-3.681 l 2.28,-6.75 c 0.18,-0.523 0.75,-0.803 1.27,-0.626 0.53,0.177 0.81,0.745 0.63,1.268 l -2.29,6.749 c -0.23,0.693 -0.17,1.426 0.19,2.065 0.36,0.639 0.95,1.081 1.66,1.245 0.54,0.124 0.87,0.66 0.75,1.198 -0.11,0.463 -0.52,0.777 -0.97,0.777 z"
   style="fill:#000010;fill-rule:nonzero"
   id="path40" />

        </g>

        <g
   transform="matrix(4.16667,0,0,4.16667,-15510,-484.72)"
   id="g43">
            <path
   d="m 4118.95,454.456 c -0.11,0 -0.23,-0.019 -0.34,-0.058 -13.88,-4.937 -23.61,-0.717 -23.7,-0.674 -0.51,0.224 -1.1,0.001 -1.32,-0.503 -0.23,-0.503 -0.01,-1.094 0.5,-1.321 0.42,-0.19 10.51,-4.608 25.19,0.613 0.52,0.185 0.79,0.757 0.61,1.277 -0.15,0.41 -0.53,0.666 -0.94,0.666 z"
   style="fill:#9735ff;fill-rule:nonzero"
   id="path41" />

        </g>

        <g
   transform="matrix(4.16667,0,0,4.16667,-15510,-484.72)"
   id="g44">
            <path
   d="m 4053.59,609.568 c -0.13,0 -0.26,-0.026 -0.39,-0.082 -0.51,-0.219 -0.74,-0.807 -0.52,-1.314 l 7.51,-17.401 c 0.22,-0.506 0.81,-0.741 1.31,-0.521 0.51,0.218 0.74,0.807 0.53,1.314 l -7.52,17.4 c -0.16,0.378 -0.53,0.604 -0.92,0.604 z"
   style="fill:#ffffff;fill-rule:nonzero"
   id="path42" />

        </g>

        <g
   transform="matrix(4.16667,0,0,4.16667,-15510,-484.72)"
   id="g45">
            <path
   d="m 4155.65,648.468 c 8.89,-29.12 18.14,-58.219 27.75,-87.295 -2.35,-1.721 -4.72,-3.443 -7.13,-5.166 -18.57,0.571 -36.92,1.155 -55.04,1.753 -7.52,0.25 -14.87,2.041 -21.26,5.238 9.14,28.735 15.95,57.326 20.42,85.776 11.66,-0.108 23.42,-0.209 35.26,-0.306 z"
   style="fill:#ffffff;fill-rule:nonzero"
   id="path43" />

        </g>

        <g
   transform="matrix(4.16667,0,0,4.16667,-15510,-484.72)"
   id="g46">
            <path
   d="m 4101.18,563.518 c 8.89,28.09 15.64,56.425 20.06,84.248 11.14,-0.103 22.36,-0.199 33.67,-0.292 8.72,-28.542 17.9,-57.442 27.31,-85.925 -2.06,-1.51 -4.15,-3.02 -6.26,-4.533 -18.45,0.569 -36.69,1.149 -54.69,1.744 -7.12,0.236 -14.05,1.878 -20.09,4.758 z m 54.47,84.95 h 0.01 z m -35.26,1.306 c -0.49,0 -0.91,-0.358 -0.99,-0.845 -4.44,-28.269 -11.3,-57.078 -20.38,-85.628 -0.15,-0.469 0.06,-0.977 0.5,-1.197 6.48,-3.24 13.97,-5.087 21.68,-5.343 18.12,-0.599 36.47,-1.183 55.04,-1.754 0.23,-0.007 0.44,0.059 0.61,0.186 2.41,1.727 4.79,3.451 7.14,5.174 0.35,0.257 0.49,0.708 0.35,1.12 -9.55,28.924 -18.89,58.288 -27.73,87.273 -0.13,0.418 -0.51,0.705 -0.95,0.708 -11.85,0.097 -23.6,0.198 -35.26,0.306 z"
   style="fill:#000010;fill-rule:nonzero"
   id="path44" />

        </g>

        <g
   transform="matrix(4.16667,0,0,4.16667,-15510,-484.72)"
   id="g47">
            <path
   d="m 4188.76,559.889 c -8.95,31.263 -17.9,62.524 -26.84,93.786 -24.03,2.932 -47.08,5.923 -69.15,8.973 1.99,-33.272 3.99,-66.544 5.98,-99.815 -0.67,-0.042 91.62,-4.394 90.01,-2.944 z"
   style="fill:#9735ff;fill-rule:nonzero"
   id="path45" />

        </g>

        <g
   transform="matrix(4.16667,0,0,4.16667,-15510,-484.72)"
   id="g48">
            <path
   d="m 4032.68,640.966 c -5.28,-29.985 -10.93,-59.992 -16.93,-90.021 2.54,-1.423 5.1,-2.843 7.7,-4.261 18.37,2.824 36.51,5.634 54.42,8.431 7.43,1.162 14.51,3.833 20.47,7.783 -12.57,27.411 -22.8,54.963 -30.7,82.658 -11.56,-1.525 -23.22,-3.054 -34.96,-4.59 z"
   style="fill:#ffffff;fill-rule:nonzero"
   id="path46" />

        </g>

        <g
   transform="matrix(4.16667,0,0,4.16667,-15510,-484.72)"
   id="g49">
            <path
   d="m 4033.54,640.07 c 11.21,1.466 22.33,2.926 33.38,4.382 7.77,-27.075 17.91,-54.381 30.15,-81.185 -5.65,-3.592 -12.32,-6.064 -19.36,-7.165 -17.8,-2.779 -35.82,-5.571 -54.08,-8.378 -2.27,1.244 -4.53,2.49 -6.76,3.738 5.88,29.425 11.48,59.227 16.67,88.608 z m 34.1,6.486 c -0.04,0 -0.09,-0.003 -0.13,-0.009 -11.56,-1.524 -23.22,-3.053 -34.96,-4.589 -0.43,-0.057 -0.78,-0.388 -0.85,-0.818 -5.26,-29.837 -10.96,-60.116 -16.93,-89.999 -0.08,-0.425 0.11,-0.855 0.49,-1.068 2.54,-1.424 5.11,-2.847 7.71,-4.267 0.19,-0.105 0.41,-0.144 0.63,-0.111 18.37,2.825 36.51,5.635 54.42,8.432 7.62,1.191 14.84,3.936 20.87,7.939 0.41,0.272 0.56,0.802 0.35,1.249 -12.48,27.239 -22.79,55.001 -30.64,82.515 -0.12,0.434 -0.52,0.726 -0.96,0.726 z"
   style="fill:#000010;fill-rule:nonzero"
   id="path47" />

        </g>

        <g
   transform="matrix(4.16667,0,0,4.16667,-15510,-484.72)"
   id="g50">
            <path
   d="m 4010.58,549.019 c 5.08,32.119 10.17,64.236 15.25,96.354 23.49,5.83 46,11.601 67.54,17.312 2.07,-33.268 4.13,-66.535 6.19,-99.802 0.67,0.039 -90.4,-15.499 -88.98,-13.864 z"
   style="fill:#9735ff;fill-rule:nonzero"
   id="path48" />

        </g>

        <g
   transform="matrix(4.16667,0,0,4.16667,-15510,-484.72)"
   id="g51">
            <path
   d="m 4086.96,660.622 c -0.01,0 -0.02,-10e-4 -0.04,-10e-4 -0.55,-0.022 -0.98,-0.487 -0.96,-1.039 l 3.82,-95.783 c 0.02,-0.552 0.49,-0.981 1.04,-0.959 0.55,0.022 0.98,0.487 0.96,1.039 l -3.82,95.783 c -0.02,0.538 -0.46,0.96 -1,0.96 z"
   style="fill:#000010;fill-rule:nonzero"
   id="path49" />

        </g>

        <g
   transform="matrix(4.16667,0,0,4.16667,-15510,-484.72)"
   id="g52">
            <path
   d="m 4098.71,661.338 c -0.03,0 -0.06,-10e-4 -0.08,-0.003 -0.55,-0.044 -0.97,-0.526 -0.92,-1.076 l 7.6,-95.552 c 0.04,-0.551 0.54,-0.956 1.07,-0.918 0.55,0.044 0.97,0.526 0.92,1.076 l -7.6,95.552 c -0.04,0.524 -0.48,0.921 -0.99,0.921 z"
   style="fill:#000010;fill-rule:nonzero"
   id="path50" />

        </g>

        <g
   transform="matrix(4.16667,0,0,4.16667,-15510,-484.72)"
   id="g53">
            <path
   d="m 4015.66,585.675 0.96,7.106 -5.34,-3.95 c -2.06,-1.525 -3.5,-3.744 -4.06,-6.247 -0.5,-2.228 0.16,-3.494 2.66,-5.5 l 13.32,-9.931 1.07,3.293 c 0.77,2.348 0.25,4.925 -1.36,6.797 z"
   style="fill:#ffffff;fill-rule:nonzero"
   id="path51" />

        </g>

        <g
   transform="matrix(4.16667,0,0,4.16667,-15510,-484.72)"
   id="g54">
            <path
   d="m 4022.68,568.787 -12.2,9.099 c -2.36,1.89 -2.65,2.82 -2.28,4.481 0.5,2.268 1.81,4.279 3.67,5.66 l 3.44,2.544 -0.64,-4.763 c -0.04,-0.283 0.05,-0.569 0.24,-0.785 l 7.24,-8.432 c 1.38,-1.597 1.82,-3.833 1.17,-5.835 z m -6.06,24.994 c -0.21,0 -0.42,-0.066 -0.6,-0.196 l -5.34,-3.95 c -2.25,-1.669 -3.83,-4.095 -4.44,-6.834 -0.65,-2.914 0.56,-4.532 3.01,-6.497 l 13.35,-9.953 c 0.26,-0.193 0.59,-0.248 0.9,-0.152 0.31,0.098 0.55,0.337 0.65,0.644 l 1.07,3.294 c 0.87,2.662 0.28,5.635 -1.55,7.758 l -6.96,8.091 0.9,6.662 c 0.05,0.398 -0.14,0.79 -0.49,0.994 -0.15,0.093 -0.33,0.139 -0.5,0.139 z"
   style="fill:#000010;fill-rule:nonzero"
   id="path52" />

        </g>

        <g
   transform="matrix(4.16667,0,0,4.16667,-15510,-484.72)"
   id="g55">
            <path
   d="m 4018.46,595.245 1.13,8.437 -6.34,-4.689 c -2.45,-1.812 -4.16,-4.446 -4.82,-7.418 -0.59,-2.645 0.72,-5.348 3.16,-6.53 l 20.74,-10.424 1.03,5.519 c 0.53,2.856 -0.66,5.758 -3.05,7.412 z"
   style="fill:#ffffff;fill-rule:nonzero"
   id="path53" />

        </g>

        <g
   transform="matrix(4.16667,0,0,4.16667,-15510,-484.72)"
   id="g56">
            <path
   d="m 4031.59,576.111 -19.55,9.827 c -2.05,0.99 -3.12,3.216 -2.63,5.42 0.61,2.736 2.18,5.163 4.44,6.831 l 4.43,3.283 -0.82,-6.094 c -0.05,-0.383 0.13,-0.761 0.45,-0.972 l 11.86,-7.693 c 2.03,-1.411 3.07,-3.925 2.61,-6.39 z m -12,28.572 c -0.21,0 -0.42,-0.066 -0.6,-0.197 l -6.33,-4.689 c -2.65,-1.956 -4.49,-4.798 -5.21,-8.005 -0.69,-3.112 0.83,-6.257 3.7,-7.647 l 20.73,-10.417 c 0.28,-0.141 0.61,-0.142 0.9,-0.003 0.28,0.14 0.48,0.404 0.53,0.713 l 1.03,5.518 c 0.61,3.238 -0.75,6.543 -3.46,8.418 l -11.35,7.365 1.05,7.811 c 0.05,0.398 -0.14,0.789 -0.48,0.994 -0.16,0.093 -0.34,0.139 -0.51,0.139 z"
   style="fill:#000010;fill-rule:nonzero"
   id="path54" />

        </g>

        <g
   transform="matrix(4.16667,0,0,4.16667,-15510,-484.72)"
   id="g57">
            <path
   d="m 4019.95,606.346 1.13,8.437 -6.34,-4.689 c -2.45,-1.812 -4.16,-4.446 -4.82,-7.419 -0.59,-2.645 0.72,-5.348 3.16,-6.53 l 18.99,-9.453 1.03,5.518 c 0.53,2.856 -0.66,5.759 -3.05,7.412 z"
   style="fill:#ffffff;fill-rule:nonzero"
   id="path55" />

        </g>

        <g
   transform="matrix(4.16667,0,0,4.16667,-15510,-484.72)"
   id="g58">
            <path
   d="m 4031.33,588.177 -17.81,8.863 c -2.04,0.989 -3.11,3.215 -2.62,5.419 0.6,2.736 2.18,5.162 4.43,6.831 l 4.44,3.283 -0.82,-6.094 c -0.05,-0.379 0.12,-0.754 0.44,-0.966 l 10.1,-6.723 c 2.05,-1.417 3.09,-3.932 2.62,-6.396 z m -10.25,27.606 c -0.21,0 -0.42,-0.066 -0.6,-0.196 l -6.33,-4.69 c -2.65,-1.955 -4.49,-4.798 -5.21,-8.004 -0.69,-3.113 0.83,-6.257 3.7,-7.648 l 18.98,-9.448 c 0.28,-0.14 0.61,-0.14 0.89,0 0.28,0.139 0.48,0.403 0.54,0.711 l 1.03,5.518 c 0.61,3.239 -0.75,6.543 -3.46,8.418 l -9.6,6.388 1.05,7.819 c 0.05,0.397 -0.14,0.789 -0.48,0.993 -0.16,0.093 -0.34,0.139 -0.51,0.139 z"
   style="fill:#000010;fill-rule:nonzero"
   id="path56" />

        </g>

        <g
   transform="matrix(4.16667,0,0,4.16667,-15510,-484.72)"
   id="g59">
            <path
   d="m 4021.36,616.893 1.13,8.437 -6.33,-4.69 c -2.45,-1.811 -4.16,-4.445 -4.83,-7.418 -0.58,-2.645 0.72,-5.348 3.16,-6.53 l 16.51,-8.002 1.03,5.518 c 0.53,2.856 -0.66,5.758 -3.05,7.412 z"
   style="fill:#ffffff;fill-rule:nonzero"
   id="path57" />

        </g>

        <g
   transform="matrix(4.16667,0,0,4.16667,-15510,-484.72)"
   id="g60">
            <path
   d="m 4030.25,600.161 -15.32,7.431 c -2.03,0.984 -3.11,3.21 -2.62,5.413 0.61,2.737 2.19,5.163 4.44,6.832 l 4.44,3.283 -0.82,-6.094 c -0.05,-0.373 0.11,-0.742 0.42,-0.956 l 7.62,-5.273 c 2.06,-1.426 3.09,-3.941 2.63,-6.405 z m -7.76,26.169 c -0.21,0 -0.42,-0.066 -0.59,-0.196 l -6.34,-4.69 c -2.64,-1.955 -4.49,-4.798 -5.2,-8.004 -0.69,-3.112 0.83,-6.257 3.69,-7.648 l 16.51,-8.002 c 0.28,-0.136 0.61,-0.135 0.89,0.007 0.28,0.14 0.47,0.402 0.53,0.709 l 1.03,5.519 c 0.6,3.238 -0.75,6.542 -3.46,8.417 l -7.12,4.924 1.05,7.831 c 0.06,0.398 -0.13,0.79 -0.48,0.994 -0.16,0.093 -0.33,0.139 -0.51,0.139 z"
   style="fill:#000010;fill-rule:nonzero"
   id="path58" />

        </g>

        <g
   transform="matrix(4.16667,0,0,4.16667,-15510,-484.72)"
   id="g61">
            <path
   d="m 4087.93,483.149 c -0.22,0 -0.44,-0.071 -0.62,-0.215 -0.44,-0.342 -0.51,-0.969 -0.17,-1.402 0.16,-0.208 4.07,-5.09 10.54,-4.366 0.55,0.061 0.94,0.555 0.88,1.104 -0.06,0.549 -0.56,0.951 -1.1,0.883 -5.33,-0.588 -8.61,3.445 -8.75,3.617 -0.2,0.249 -0.49,0.379 -0.78,0.379 z"
   style="fill:#000010;fill-rule:nonzero"
   id="path59" />

        </g>

        <g
   transform="matrix(4.16667,0,0,4.16667,-15510,-484.72)"
   id="g62">
            <path
   d="m 4200.18,613.634 -64.7,-12.104 -14.55,5.032 c -1.85,0.641 -2.21,3.107 -0.61,4.246 0.75,0.537 1.69,0.739 2.6,0.558 l 11.22,-2.235 6.3,1.525 -22.46,8.423 c -1.19,0.444 -1.71,1.83 -1.11,2.943 0.54,0.997 1.55,1.655 2.67,1.749 l -1.52,0.768 c -1.21,0.608 -1.62,2.13 -0.89,3.265 0,0 1.19,1.731 3.58,1.669 3.24,-0.085 12.04,-3.53 12.04,-3.53 l 9.66,3.054 -9.36,5.647 -4.9,5.244 c -0.8,0.865 -0.48,2.271 0.63,2.688 3.31,1.126 4.62,-0.11 7.64,-1.868 l 1.05,-0.607 14.86,-6.1 c 0,0 17.84,8.59 24.19,8.065 4.7,-0.387 8.57,-4.585 8.57,-4.585 l 13.06,4.676 z"
   style="fill:#ffffff;fill-rule:nonzero"
   id="path60" />

        </g>

        <g
   transform="matrix(4.16667,0,0,4.16667,-15510,-484.72)"
   id="g63">
            <path
   d="m 4133.68,635.429 -4.8,5.141 c -0.21,0.233 -0.18,0.499 -0.16,0.602 0.03,0.104 0.12,0.356 0.41,0.468 2.43,0.823 3.46,0.205 5.72,-1.159 0.34,-0.202 0.69,-0.415 1.07,-0.637 l 1.17,-0.668 15.27,-6.269 0.4,0.194 c 0.18,0.084 17.64,8.447 23.68,7.969 4.26,-0.352 7.88,-4.229 7.92,-4.268 l 0.44,-0.486 12.44,4.456 1.88,-26.319 -63.56,-11.891 -14.3,4.945 c -0.51,0.176 -0.86,0.6 -0.94,1.134 -0.07,0.534 0.14,1.04 0.58,1.353 0.53,0.374 1.19,0.515 1.82,0.392 l 11.44,-2.279 9.68,2.342 -25.51,9.567 c -0.3,0.111 -0.52,0.337 -0.64,0.635 -0.11,0.298 -0.09,0.616 0.06,0.897 0.38,0.701 1.08,1.16 1.88,1.226 l 3.53,0.295 -4.69,2.363 c -0.33,0.165 -0.56,0.45 -0.66,0.804 -0.1,0.353 -0.04,0.718 0.16,1.026 0.02,0.02 0.96,1.229 2.72,1.211 2.51,-0.065 9.3,-2.521 11.7,-3.462 l 0.33,-0.129 12.1,3.829 z m -2.61,8.577 c -0.77,0 -1.62,-0.145 -2.61,-0.483 -0.86,-0.325 -1.48,-1.029 -1.69,-1.895 -0.2,-0.866 0.04,-1.771 0.65,-2.422 l 5.11,-5.418 7.47,-4.505 -7.21,-2.281 c -1.67,0.642 -9,3.391 -12.05,3.47 -2.91,0.091 -4.37,-2.011 -4.43,-2.1 -0.52,-0.804 -0.67,-1.765 -0.43,-2.66 0.2,-0.746 0.66,-1.393 1.29,-1.83 -0.48,-0.367 -0.88,-0.836 -1.18,-1.385 -0.42,-0.785 -0.48,-1.714 -0.17,-2.549 0.31,-0.834 0.97,-1.492 1.81,-1.805 l 19.41,-7.281 -2.92,-0.707 -11.01,2.192 c -1.17,0.236 -2.4,-0.03 -3.37,-0.725 -1.04,-0.744 -1.58,-1.996 -1.4,-3.266 0.19,-1.27 1.05,-2.32 2.27,-2.739 l 14.8,-5.119 0.26,0.049 65.57,12.268 -2.19,30.728 -13.7,-4.907 c -1.22,1.171 -4.65,4.089 -8.74,4.427 -6.08,0.505 -21.54,-6.658 -24.31,-7.968 l -14.39,5.906 -0.98,0.571 c -0.38,0.217 -0.72,0.425 -1.05,0.622 -1.66,1.004 -3,1.812 -4.81,1.812 z"
   style="fill:#000010;fill-rule:nonzero"
   id="path61" />

        </g>

        <g
   transform="matrix(4.16667,0,0,4.16667,-15510,-484.72)"
   id="g64">
            <path
   d="m 4143.1,618.074 -11,0.904 -12.56,4.793 z"
   style="fill:#ffffff;fill-rule:nonzero"
   id="path62" />

        </g>

        <g
   transform="matrix(4.16667,0,0,4.16667,-15510,-484.72)"
   id="g65">
            <path
   d="m 4119.9,624.705 -0.71,-1.868 12.83,-4.855 11,-0.905 0.17,1.993 -10.86,0.893 z"
   style="fill:#000010;fill-rule:nonzero"
   id="path63" />

        </g>

        <g
   transform="matrix(4.16667,0,0,4.16667,-15510,-484.72)"
   id="g66">
            <path
   d="m 4200.21,613.836 -2.06,28.321 65.27,20.095 c 19.27,5.931 39.66,-5.02 45.36,-24.354 3.12,-10.58 1.25,-22.006 -5.09,-31.034 l -46.94,-66.85 c -5.56,-7.922 -14.63,-12.638 -24.31,-12.638 -12,0 -22.81,7.212 -27.43,18.283 l -3.48,8.359 z"
   style="fill:#ffffff;fill-rule:nonzero"
   id="path64" />

        </g>

        <g
   transform="matrix(4.16667,0,0,4.16667,-15510,-484.72)"
   id="g67">
            <path
   d="m 4274.12,664.874 c -3.68,10e-4 -7.37,-0.552 -10.99,-1.666 l -66.04,-20.329 2.13,-29.115 1.99,0.145 -2.01,27.527 64.51,19.861 c 9.07,2.788 18.66,1.856 27.01,-2.628 8.35,-4.484 14.42,-11.961 17.11,-21.054 3.05,-10.347 1.24,-21.346 -4.96,-30.176 l -46.94,-66.851 c -5.36,-7.647 -14.15,-12.212 -23.49,-12.212 -11.63,0 -22.03,6.935 -26.51,17.668 l -3.48,8.358 -1.84,-0.769 3.48,-8.358 c 4.78,-11.481 15.91,-18.899 28.35,-18.899 9.99,0 19.39,4.883 25.13,13.063 l 46.94,66.85 c 6.55,9.332 8.46,20.956 5.23,31.892 -2.83,9.609 -9.25,17.511 -18.08,22.25 -5.49,2.947 -11.49,4.443 -17.54,4.443 z"
   style="fill:#000010;fill-rule:nonzero"
   id="path65" />

        </g>

        <g
   transform="matrix(4.16667,0,0,4.16667,-15510,-484.72)"
   id="g68">
            <path
   d="m 4266.5,622.483 -66.32,-8.849 z"
   style="fill:#ffffff;fill-rule:nonzero"
   id="path66" />

        </g>

        <g
   transform="matrix(4.16667,0,0,4.16667,-15510,-484.72)"
   id="g69">
            <path
   d="m 4266.37,623.474 -66.32,-8.849 0.26,-1.982 66.32,8.848 z"
   style="fill:#000010;fill-rule:nonzero"
   id="path67" />

        </g>

        <g
   transform="matrix(4.16667,0,0,4.16667,-15510,-484.72)"
   id="g70">
            <path
   d="m 4252.98,620.931 -27.94,-38.132 z"
   style="fill:#ffffff;fill-rule:nonzero"
   id="path68" />

        </g>

        <g
   transform="matrix(4.16667,0,0,4.16667,-15510,-484.72)"
   id="g71">
            <path
   d="m 4252.98,621.931 c -0.31,0 -0.61,-0.142 -0.81,-0.409 l -27.93,-38.132 c -0.33,-0.445 -0.23,-1.071 0.21,-1.397 0.45,-0.327 1.07,-0.231 1.4,0.216 l 27.94,38.131 c 0.32,0.445 0.22,1.071 -0.22,1.397 -0.18,0.131 -0.39,0.194 -0.59,0.194 z"
   style="fill:#000010;fill-rule:nonzero"
   id="path69" />

        </g>

    </g>
  </g>
</svg>
