<?xml version="1.0" encoding="UTF-8" standalone="no"?>
<!-- Created with Inkscape (http://www.inkscape.org/) -->

<svg
   width="120"
   height="100"
   viewBox="0 0 31.749601 26.458001"
   version="1.1"
   id="svg1"
   xmlns="http://www.w3.org/2000/svg"
   xmlns:svg="http://www.w3.org/2000/svg">
  <defs
     id="defs1" />
  <g
     id="layer1">
    <g
       transform="matrix(0.10437893,0,0,0.10437893,-529.24601,-44.478351)"
       id="g141"
       style="clip-rule:evenodd;fill-rule:evenodd;stroke-linejoin:round;stroke-miterlimit:2">
      <path
         d="m 5167.03,568.402 7.33,4.354 c 4.53,2.69 10.38,1.201 13.07,-3.324 l 21.4,-36.008 c 2.69,-4.526 1.2,-10.375 -3.33,-13.065 l -7.33,-4.354 c -4.52,-2.69 -10.37,-1.202 -13.06,3.324 l -21.4,36.008 c -2.69,4.525 -1.2,10.375 3.32,13.065 z"
         style="fill:#ffffff;fill-rule:nonzero"
         id="path140" />
    </g>
    <g
       transform="matrix(0.10437893,0,0,0.10437893,-529.24601,-44.478351)"
       id="g142"
       style="clip-rule:evenodd;fill-rule:evenodd;stroke-linejoin:round;stroke-miterlimit:2">
      <path
         d="m 5167.54,567.542 7.33,4.354 c 4.04,2.403 9.29,1.071 11.7,-2.975 l 21.4,-36.007 c 2.4,-4.045 1.07,-9.291 -2.98,-11.695 l -7.33,-4.354 c -4.04,-2.403 -9.29,-1.07 -11.69,2.975 l -21.4,36.007 c -2.4,4.045 -1.07,9.291 2.97,11.695 z m 11.67,7.55 c -1.83,0 -3.68,-0.476 -5.36,-1.477 l -7.33,-4.354 c -4.99,-2.967 -6.64,-9.443 -3.67,-14.435 l 21.4,-36.008 c 2.97,-4.992 9.44,-6.64 14.44,-3.673 l 7.32,4.355 c 4.99,2.967 6.64,9.443 3.68,14.435 l -21.4,36.008 c -1.97,3.309 -5.48,5.149 -9.08,5.149 z"
         style="fill-rule:nonzero"
         id="path141" />
    </g>
    <g
       transform="matrix(0.10437893,0,0,0.10437893,-529.24601,-44.478351)"
       id="g143"
       style="clip-rule:evenodd;fill-rule:evenodd;stroke-linejoin:round;stroke-miterlimit:2">
      <path
         d="m 5173.85,497.709 c -0.66,11.493 13.83,21.681 32.37,22.754 18.54,1.073 34.11,-7.375 34.78,-18.868 0.66,-11.494 -13.83,-21.681 -32.37,-22.754 -18.54,-1.073 -34.11,7.374 -34.78,18.868 z"
         style="fill:#000010;fill-rule:nonzero"
         id="path142" />
    </g>
    <g
       transform="matrix(0.10437893,0,0,0.10437893,-529.24601,-44.478351)"
       id="g144"
       style="clip-rule:evenodd;fill-rule:evenodd;stroke-linejoin:round;stroke-miterlimit:2">
      <path
         d="m 5156.79,516.564 c 1.79,-3.218 6.69,-3.903 10.94,-1.531 0.53,0.293 1.02,0.621 1.48,0.974 1.58,-18.955 16.69,-33.36 34.18,-32.348 17.8,1.031 31.32,17.63 30.19,37.077 -1.12,19.446 -16.46,34.375 -34.26,33.345 -14.55,-0.842 -26.24,-12.088 -29.41,-26.787 -2.32,1.208 -5.66,1.071 -8.68,-0.611 -4.25,-2.372 -6.24,-6.902 -4.44,-10.119 z"
         style="fill:#ffffff;fill-rule:nonzero"
         id="path143" />
    </g>
    <g
       transform="matrix(0.10437893,0,0,0.10437893,-529.24601,-44.478351)"
       id="g145"
       style="clip-rule:evenodd;fill-rule:evenodd;stroke-linejoin:round;stroke-miterlimit:2">
      <path
         d="m 5169.92,526.295 c 0.14,0 0.29,0.031 0.42,0.095 0.28,0.133 0.49,0.389 0.55,0.694 3.18,14.749 14.63,25.197 28.49,25.999 17.23,1.006 32.11,-13.541 33.21,-32.405 1.09,-18.865 -12.03,-35.024 -29.26,-36.02 -17.01,-0.986 -31.57,12.822 -33.13,31.433 -0.03,0.366 -0.26,0.685 -0.59,0.832 -0.34,0.147 -0.73,0.099 -1.02,-0.126 -0.42,-0.33 -0.88,-0.629 -1.34,-0.89 -1.87,-1.043 -3.92,-1.474 -5.77,-1.214 -1.75,0.244 -3.11,1.082 -3.82,2.358 -1.52,2.73 0.3,6.66 4.06,8.759 2.6,1.451 5.64,1.684 7.74,0.597 0.14,-0.075 0.3,-0.112 0.46,-0.112 z m 31.12,28.836 c -0.59,0 -1.18,-0.017 -1.78,-0.051 -14.17,-0.82 -26.37,-11.613 -30.05,-26.411 -2.56,0.828 -5.69,0.438 -8.46,-1.113 -4.73,-2.636 -6.9,-7.786 -4.84,-11.48 1.03,-1.836 2.9,-3.03 5.29,-3.364 2.28,-0.32 4.78,0.195 7.02,1.448 0.05,0.03 0.11,0.061 0.16,0.092 2.36,-18.849 17.49,-32.599 35.07,-31.591 18.32,1.06 32.29,18.167 31.13,38.132 -1.12,19.314 -15.98,34.337 -33.54,34.338 z"
         style="fill-rule:nonzero"
         id="path144" />
    </g>
    <g
       transform="matrix(0.10437893,0,0,0.10437893,-529.24601,-44.478351)"
       id="g146"
       style="clip-rule:evenodd;fill-rule:evenodd;stroke-linejoin:round;stroke-miterlimit:2">
      <path
         d="m 5204,473.552 c 12.19,-2.22 23.56,-0.082 30.28,4.933 1.85,1.38 0.23,4.258 -1.94,3.468 -6.49,-2.367 -14.84,-3.028 -23.62,-1.43 -18.05,3.288 -31.07,14.892 -29.06,25.918 0.08,0.438 0.19,0.866 0.32,1.29 -2.67,-2.279 -4.45,-5.069 -5.04,-8.261 -2,-11.026 11.01,-22.629 29.06,-25.918 z"
         style="fill:#000010;fill-rule:nonzero"
         id="path145" />
    </g>
    <g
       transform="matrix(0.10437893,0,0,0.10437893,-529.24601,-44.478351)"
       id="g147"
       style="clip-rule:evenodd;fill-rule:evenodd;stroke-linejoin:round;stroke-miterlimit:2">
      <path
         d="m 5149.05,496.866 c 4.46,-13.381 17.73,-21.769 31.73,-20.056 l 24.83,3.038 -3.04,3.786 c 2.67,-4.201 12.52,16.445 -13.72,16.913 -5.5,0.098 -7.56,5.886 -9.18,11.517 -1.09,3.761 -1.98,7.474 -2.75,10.84 -0.39,1.732 -7.95,1.312 -7.71,-6.897 -0.46,-0.353 -0.95,-0.681 -1.48,-0.974 -4.25,-2.372 -9.15,-1.687 -10.94,1.531 -1.8,3.217 0.19,7.747 4.44,10.119 3.02,1.682 6.36,1.819 8.68,0.611 1.27,5.881 3.91,11.206 7.54,15.536 l -6.79,-0.393 c -3.72,-0.215 -7,-2.515 -8.48,-5.942 l -2.8,-6.53 -0.41,-0.314 c -9.92,-7.719 -13.9,-20.857 -9.92,-32.785 z"
         style="fill:#000010;fill-rule:nonzero"
         id="path146" />
    </g>
    <g
       transform="matrix(0.10437893,0,0,0.10437893,-529.24601,-44.478351)"
       id="g148"
       style="clip-rule:evenodd;fill-rule:evenodd;stroke-linejoin:round;stroke-miterlimit:2">
      <path
         d="m 5223.66,521.482 c -0.2,1.648 0.61,3.097 1.8,3.236 1.18,0.139 2.3,-1.085 2.49,-2.733 0.2,-1.649 -0.61,-3.098 -1.79,-3.237 -1.19,-0.139 -2.31,1.085 -2.5,2.734 z"
         style="fill-rule:nonzero"
         id="path147" />
    </g>
    <g
       transform="matrix(0.10437893,0,0,0.10437893,-529.24601,-44.478351)"
       id="g149"
       style="clip-rule:evenodd;fill-rule:evenodd;stroke-linejoin:round;stroke-miterlimit:2">
      <path
         d="m 5201.87,519.441 c -0.2,1.648 0.61,3.098 1.79,3.236 1.19,0.139 2.31,-1.084 2.5,-2.733 0.2,-1.649 -0.61,-3.098 -1.8,-3.237 -1.18,-0.139 -2.3,1.085 -2.49,2.734 z"
         style="fill-rule:nonzero"
         id="path148" />
    </g>
    <g
       transform="matrix(0.10437893,0,0,0.10437893,-529.24601,-44.478351)"
       id="g150"
       style="clip-rule:evenodd;fill-rule:evenodd;stroke-linejoin:round;stroke-miterlimit:2">
      <path
         d="m 5204.88,540.155 c -0.07,0 -0.14,-0.006 -0.21,-0.021 -2.47,-0.486 -4.67,-2.091 -5.89,-4.293 -0.29,-0.526 -0.1,-1.189 0.43,-1.481 0.52,-0.291 1.18,-0.101 1.48,0.427 0.91,1.646 2.55,2.846 4.4,3.21 0.59,0.116 0.97,0.689 0.86,1.279 -0.11,0.52 -0.56,0.879 -1.07,0.879 z"
         style="fill-rule:nonzero"
         id="path149" />
    </g>
    <g
       transform="matrix(0.10437893,0,0,0.10437893,-529.24601,-44.478351)"
       id="g151"
       style="clip-rule:evenodd;fill-rule:evenodd;stroke-linejoin:round;stroke-miterlimit:2">
      <path
         d="m 5214.7,530.399 c -0.52,0 -0.98,-0.377 -1.07,-0.909 -0.1,-0.593 0.3,-1.155 0.89,-1.256 1.67,-0.281 2.9,-1.769 2.86,-3.46 l -0.12,-5.35 c -0.02,-0.602 0.46,-1.101 1.06,-1.115 0.59,-0.021 1.1,0.462 1.11,1.064 l 0.13,5.35 c 0.06,2.766 -1.94,5.199 -4.67,5.66 -0.06,0.011 -0.13,0.016 -0.19,0.016 z"
         style="fill-rule:nonzero"
         id="path150" />
    </g>
    <g
       transform="matrix(0.10437893,0,0,0.10437893,-529.24601,-44.478351)"
       id="g152"
       style="clip-rule:evenodd;fill-rule:evenodd;stroke-linejoin:round;stroke-miterlimit:2">
      <path
         d="m 5200.64,513.998 c -0.24,0 -0.48,-0.077 -0.68,-0.237 -0.47,-0.375 -0.55,-1.061 -0.17,-1.531 1.51,-1.905 4.33,-2.586 6.55,-1.581 0.54,0.248 0.79,0.894 0.54,1.442 -0.25,0.548 -0.89,0.792 -1.44,0.543 -1.32,-0.594 -3.05,-0.175 -3.95,0.953 -0.21,0.27 -0.53,0.411 -0.85,0.411 z"
         style="fill-rule:nonzero"
         id="path151" />
    </g>
    <g
       transform="matrix(0.10437893,0,0,0.10437893,-529.24601,-44.478351)"
       id="g153"
       style="clip-rule:evenodd;fill-rule:evenodd;stroke-linejoin:round;stroke-miterlimit:2">
      <path
         d="m 5229.49,516.76 c -0.25,0 -0.49,-0.082 -0.7,-0.248 -1.1,-0.906 -2.41,-1.571 -3.79,-1.924 -0.59,-0.148 -0.94,-0.742 -0.79,-1.325 0.15,-0.583 0.74,-0.938 1.32,-0.786 1.69,0.43 3.3,1.244 4.65,2.351 0.46,0.383 0.53,1.069 0.15,1.534 -0.22,0.262 -0.53,0.398 -0.84,0.398 z"
         style="fill-rule:nonzero"
         id="path152" />
    </g>
    <g
       transform="matrix(0.10437893,0,0,0.10437893,-529.24601,-44.478351)"
       id="g154"
       style="clip-rule:evenodd;fill-rule:evenodd;stroke-linejoin:round;stroke-miterlimit:2">
      <path
         d="m 5170.02,564.939 26.13,-4.691 c 7.66,-1.373 15.34,2.228 19.19,8.987 l 51.44,90.479 h -82.42 z"
         style="fill:#9735ff;fill-rule:nonzero"
         id="path153" />
    </g>
    <g
       transform="matrix(0.10437893,0,0,0.10437893,-529.24601,-44.478351)"
       id="g155"
       style="clip-rule:evenodd;fill-rule:evenodd;stroke-linejoin:round;stroke-miterlimit:2">
      <path
         d="m 5183.36,659.714 h 82.42 l -35.17,-61.853 H 5174 Z"
         style="fill:#ffffff;fill-rule:nonzero"
         id="path154" />
    </g>
    <g
       transform="matrix(0.10437893,0,0,0.10437893,-529.24601,-44.478351)"
       id="g156"
       style="clip-rule:evenodd;fill-rule:evenodd;stroke-linejoin:round;stroke-miterlimit:2">
      <path
         d="m 5184.22,658.713 h 79.85 l -34.04,-59.852 h -54.87 z m 81.57,2 h -82.43 c -0.49,0 -0.91,-0.361 -0.99,-0.85 l -9.36,-61.852 c -0.04,-0.288 0.04,-0.581 0.23,-0.802 0.19,-0.221 0.47,-0.348 0.76,-0.348 h 56.61 c 0.36,0 0.7,0.193 0.87,0.506 l 35.17,61.852 c 0.18,0.31 0.18,0.689 0,0.997 -0.18,0.308 -0.51,0.497 -0.86,0.497 z"
         style="fill:#000010;fill-rule:nonzero"
         id="path155" />
    </g>
    <g
       transform="matrix(0.10437893,0,0,0.10437893,-529.24601,-44.478351)"
       id="g157"
       style="clip-rule:evenodd;fill-rule:evenodd;stroke-linejoin:round;stroke-miterlimit:2">
      <path
         d="m 5111.69,592.537 27.1,-35.635 c 6.62,-8.701 19.09,-10.271 27.66,-3.48 l 12.66,10.038 5.52,-5.86 h 0.25 c 10.48,0 19.5,7.397 21.55,17.672 l 4.71,89.893 H 5101.2 Z"
         style="fill:#9735ff;fill-rule:nonzero"
         id="path156" />
    </g>
    <g
       transform="matrix(0.10437893,0,0,0.10437893,-529.24601,-44.478351)"
       id="g158"
       style="clip-rule:evenodd;fill-rule:evenodd;stroke-linejoin:round;stroke-miterlimit:2">
      <path
         d="m 5217.18,627.802 h 2.93 c 3.39,0 6.42,-2.124 7.58,-5.314 0.85,-2.336 -0.88,-4.805 -3.36,-4.805 h -24.63 z"
         style="fill:#ffffff;fill-rule:nonzero"
         id="path157" />
    </g>
    <g
       transform="matrix(0.10437893,0,0,0.10437893,-529.24601,-44.478351)"
       id="g159"
       style="clip-rule:evenodd;fill-rule:evenodd;stroke-linejoin:round;stroke-miterlimit:2">
      <path
         d="m 5220.11,628.802 h -2.93 c -0.56,0 -1,-0.448 -1,-1 0,-0.552 0.44,-1 1,-1 h 2.93 c 2.96,0 5.63,-1.871 6.64,-4.656 0.3,-0.803 0.18,-1.664 -0.31,-2.363 -0.49,-0.699 -1.26,-1.1 -2.11,-1.1 h -24.63 c -0.56,0 -1,-0.448 -1,-1 0,-0.553 0.44,-1 1,-1 h 24.63 c 1.49,0 2.89,0.73 3.75,1.953 0.86,1.223 1.06,2.79 0.55,4.194 -1.3,3.572 -4.72,5.972 -8.52,5.972 z"
         style="fill:#000010;fill-rule:nonzero"
         id="path158" />
    </g>
    <g
       transform="matrix(0.10437893,0,0,0.10437893,-529.24601,-44.478351)"
       id="g160"
       style="clip-rule:evenodd;fill-rule:evenodd;stroke-linejoin:round;stroke-miterlimit:2">
      <path
         d="m 5111.69,592.537 -26.64,35.105 c -13.48,17.762 2.31,42.731 24.14,38.165 l 83.45,-17.459 10.07,7.046 c 3.26,2.282 7.49,2.655 11.1,0.979 l 2.75,-1.279 c 3.37,2.243 7.73,2.322 11.17,0.203 l 2.32,-1.43 -21.68,-20.3 c 2.7,1.489 15.71,6.805 23.62,7.425 2.19,0.172 4.33,-0.796 5.7,-2.523 l 0.72,-0.911 -24.84,-14.279 c -7.86,-4.122 -10.36,-6.342 -16.38,-5.523 l -60.36,8.206 15.95,-17.479 c 0,0 -10.12,-15.946 -41.09,-15.946 z"
         style="fill:#ffffff;fill-rule:nonzero"
         id="path159" />
    </g>
    <g
       transform="matrix(0.10437893,0,0,0.10437893,-529.24601,-44.478351)"
       id="g161"
       style="clip-rule:evenodd;fill-rule:evenodd;stroke-linejoin:round;stroke-miterlimit:2">
      <path
         d="m 5112.18,593.539 -26.33,34.708 c -5.98,7.876 -6.41,17.96 -1.13,26.316 5.29,8.357 14.59,12.29 24.26,10.265 l 83.46,-17.459 c 0.27,-0.055 0.55,10e-4 0.78,0.159 l 10.06,7.046 c 2.96,2.07 6.83,2.412 10.11,0.892 l 2.75,-1.279 c 0.32,-0.147 0.69,-0.119 0.98,0.075 3.02,2.018 6.99,2.091 10.09,0.183 l 1.21,-0.743 -20.74,-19.405 c -0.36,-0.344 -0.42,-0.909 -0.12,-1.317 0.3,-0.408 0.85,-0.532 1.29,-0.288 2.89,1.591 15.71,6.715 23.22,7.303 1.84,0.145 3.65,-0.658 4.83,-2.148 v -10e-4 l -23.83,-13.7 c -1.32,-0.694 -2.52,-1.351 -3.61,-1.945 -5.13,-2.806 -7.48,-4.086 -12.14,-3.454 l -60.35,8.206 c -0.42,0.062 -0.83,-0.154 -1.02,-0.526 -0.2,-0.373 -0.14,-0.828 0.14,-1.139 l 15.4,-16.877 c -0.96,-1.241 -3.55,-4.198 -8.29,-7.124 -5.66,-3.498 -15.61,-7.661 -31.02,-7.748 z m -8.21,73.816 c -8.47,0 -16.19,-4.221 -20.94,-11.723 -5.74,-9.08 -5.27,-20.037 1.22,-28.594 l 26.64,-35.105 c 0.19,-0.249 0.49,-0.396 0.8,-0.396 31.16,0 41.51,15.74 41.93,16.41 0.25,0.381 0.2,0.877 -0.1,1.21 l -14.09,15.443 57.62,-7.835 c 5.32,-0.722 8.18,0.842 13.37,3.681 1.08,0.589 2.27,1.24 3.62,1.947 l 24.87,14.298 c 0.25,0.145 0.43,0.393 0.48,0.679 0.06,0.285 -0.02,0.581 -0.2,0.809 l -0.72,0.911 c -1.6,2.013 -4.06,3.096 -6.56,2.899 -5.55,-0.435 -13.3,-3.048 -18.57,-5.14 l 17.4,16.288 c 0.23,0.213 0.34,0.52 0.31,0.83 -0.03,0.31 -0.21,0.589 -0.47,0.752 l -2.32,1.429 c -3.61,2.216 -8.16,2.231 -11.77,0.082 l -2.26,1.05 c -3.92,1.819 -8.56,1.41 -12.09,-1.067 l -9.72,-6.798 -83.03,17.371 c -1.83,0.383 -3.64,0.569 -5.42,0.569 z"
         style="fill:#000010;fill-rule:nonzero"
         id="path160" />
    </g>
    <g
       transform="matrix(0.10437893,0,0,0.10437893,-529.24601,-44.478351)"
       id="g162"
       style="clip-rule:evenodd;fill-rule:evenodd;stroke-linejoin:round;stroke-miterlimit:2">
      <path
         d="m 5200.92,641.295 15.64,13.799 z"
         style="fill:#ffffff;fill-rule:nonzero"
         id="path161" />
    </g>
    <g
       transform="matrix(0.10437893,0,0,0.10437893,-529.24601,-44.478351)"
       id="g163"
       style="clip-rule:evenodd;fill-rule:evenodd;stroke-linejoin:round;stroke-miterlimit:2">
      <path
         d="m 5216.56,656.094 c -0.23,0 -0.47,-0.083 -0.66,-0.25 l -15.64,-13.799 c -0.41,-0.366 -0.45,-0.998 -0.09,-1.412 0.37,-0.415 1,-0.452 1.41,-0.088 l 15.64,13.799 c 0.42,0.366 0.46,0.997 0.09,1.411 -0.2,0.225 -0.47,0.339 -0.75,0.339 z"
         style="fill:#000010;fill-rule:nonzero"
         id="path162" />
    </g>
    <g
       transform="matrix(0.10437893,0,0,0.10437893,-529.24601,-44.478351)"
       id="g164"
       style="clip-rule:evenodd;fill-rule:evenodd;stroke-linejoin:round;stroke-miterlimit:2">
      <path
         d="m 5208.81,634.011 -5.21,-4.213 z"
         style="fill:#ffffff;fill-rule:nonzero"
         id="path163" />
    </g>
    <g
       transform="matrix(0.10437893,0,0,0.10437893,-529.24601,-44.478351)"
       id="g165"
       style="clip-rule:evenodd;fill-rule:evenodd;stroke-linejoin:round;stroke-miterlimit:2">
      <path
         d="m 5208.81,635.01 c -0.22,0 -0.44,-0.072 -0.63,-0.222 l -5.21,-4.212 c -0.43,-0.347 -0.49,-0.977 -0.14,-1.406 0.34,-0.43 0.97,-0.497 1.4,-0.149 l 5.21,4.212 c 0.43,0.347 0.5,0.977 0.15,1.406 -0.2,0.244 -0.49,0.371 -0.78,0.371 z"
         style="fill:#000010;fill-rule:nonzero"
         id="path164" />
    </g>
    <g
       transform="matrix(0.10437893,0,0,0.10437893,-529.24601,-44.478351)"
       id="g166"
       style="clip-rule:evenodd;fill-rule:evenodd;stroke-linejoin:round;stroke-miterlimit:2">
      <path
         d="m 5152.78,609.483 c -0.25,0 -0.5,-0.092 -0.69,-0.277 -0.4,-0.382 -0.42,-1.014 -0.03,-1.414 l 16.33,-17.099 c 0.38,-0.398 1.02,-0.414 1.42,-0.033 0.4,0.382 0.41,1.015 0.03,1.414 l -16.34,17.1 c -0.19,0.206 -0.46,0.309 -0.72,0.309 z"
         style="fill:#ffffff;fill-rule:nonzero"
         id="path165" />
    </g>
    <g
       transform="matrix(0.10437893,0,0,0.10437893,-529.24601,-44.478351)"
       id="g167"
       style="clip-rule:evenodd;fill-rule:evenodd;stroke-linejoin:round;stroke-miterlimit:2">
      <path
         d="m 5282.07,665.165 h -118.16 v -2.166 c 0,-3.95 3.2,-7.153 7.15,-7.153 h 111.01 z"
         style="fill:#000010;fill-rule:nonzero"
         id="path166" />
    </g>
    <g
       transform="matrix(0.10437893,0,0,0.10437893,-529.24601,-44.478351)"
       id="g168"
       style="clip-rule:evenodd;fill-rule:evenodd;stroke-linejoin:round;stroke-miterlimit:2">
      <path
         d="m 5236.22,665.165 h 107.44 l 23.61,-71.363 c 2.28,-6.893 -2.85,-13.998 -10.11,-13.998 h -85 c -4.6,0 -8.67,2.945 -10.12,7.306 z"
         style="fill:#000010;fill-rule:nonzero"
         id="path167" />
    </g>
    <g
       transform="matrix(0.10437893,0,0,0.10437893,-529.24601,-44.478351)"
       id="g169"
       style="clip-rule:evenodd;fill-rule:evenodd;stroke-linejoin:round;stroke-miterlimit:2">
      <path
         d="m 5301.35,624.149 c 0,4.179 3.39,7.567 7.57,7.567 4.18,0 7.57,-3.388 7.57,-7.567 0,-4.179 -3.39,-7.567 -7.57,-7.567 -4.18,0 -7.57,3.388 -7.57,7.567 z"
         style="fill:#ffffff;fill-rule:nonzero"
         id="path168" />
    </g>
    <g
       transform="matrix(0.10437893,0,0,0.10437893,-529.24601,-44.478351)"
       id="g170"
       style="clip-rule:evenodd;fill-rule:evenodd;stroke-linejoin:round;stroke-miterlimit:2">
      <path
         d="m 5308.92,617.582 c -3.62,0 -6.57,2.946 -6.57,6.567 0,3.621 2.95,6.567 6.57,6.567 3.62,0 6.57,-2.946 6.57,-6.567 0,-3.621 -2.95,-6.567 -6.57,-6.567 z m 0,15.134 c -4.72,0 -8.57,-3.843 -8.57,-8.567 0,-4.724 3.85,-8.567 8.57,-8.567 4.72,0 8.57,3.843 8.57,8.567 0,4.724 -3.85,8.567 -8.57,8.567 z"
         style="fill:#000010;fill-rule:nonzero"
         id="path169" />
    </g>
    <g
       transform="matrix(0.10437893,0,0,0.10437893,-529.24601,-44.478351)"
       id="g171"
       style="clip-rule:evenodd;fill-rule:evenodd;stroke-linejoin:round;stroke-miterlimit:2">
      <path
         d="m 5112.92,629.642 23.91,-3.68 z"
         style="fill:#ffffff;fill-rule:nonzero"
         id="path170" />
    </g>
    <g
       transform="matrix(0.10437893,0,0,0.10437893,-529.24601,-44.478351)"
       id="g172"
       style="clip-rule:evenodd;fill-rule:evenodd;stroke-linejoin:round;stroke-miterlimit:2">
      <path
         d="m 5112.91,630.642 c -0.48,0 -0.91,-0.353 -0.98,-0.848 -0.09,-0.545 0.29,-1.056 0.83,-1.14 l 23.92,-3.68 c 0.55,-0.086 1.06,0.29 1.14,0.836 0.09,0.546 -0.29,1.056 -0.83,1.14 l -23.92,3.68 c -0.05,0.008 -0.11,0.012 -0.16,0.012 z"
         style="fill:#000010;fill-rule:nonzero"
         id="path171" />
    </g>
    <g
       transform="matrix(0.10437893,0,0,0.10437893,-529.24601,-44.478351)"
       id="g173"
       style="clip-rule:evenodd;fill-rule:evenodd;stroke-linejoin:round;stroke-miterlimit:2">
      <path
         d="m 5168.24,554.201 35.03,6.429 -0.62,2.607 c -2.83,11.829 -16.27,15.51 -23.69,6.492 z"
         style="fill:#ffffff;fill-rule:nonzero"
         id="path172" />
    </g>
    <g
       transform="matrix(0.10437893,0,0,0.10437893,-529.24601,-44.478351)"
       id="g174"
       style="clip-rule:evenodd;fill-rule:evenodd;stroke-linejoin:round;stroke-miterlimit:2">
      <path
         d="m 5194.62,557.748 8.87,2.438 z"
         style="fill:#ffffff;fill-rule:nonzero"
         id="path173" />
    </g>
    <g
       transform="matrix(0.10437893,0,0,0.10437893,-529.24601,-44.478351)"
       id="g175"
       style="clip-rule:evenodd;fill-rule:evenodd;stroke-linejoin:round;stroke-miterlimit:2">
      <path
         d="m 5203.49,561.187 c -0.09,0 -0.18,-0.012 -0.26,-0.036 l -8.87,-2.439 c -0.53,-0.146 -0.85,-0.697 -0.7,-1.229 0.15,-0.534 0.69,-0.848 1.23,-0.7 l 8.87,2.439 c 0.53,0.147 0.84,0.697 0.7,1.23 -0.13,0.444 -0.53,0.735 -0.97,0.735 z"
         style="fill-rule:nonzero"
         id="path174" />
    </g>
    <g
       transform="matrix(0.10437893,0,0,0.10437893,-529.24601,-44.478351)"
       id="g176"
       style="clip-rule:evenodd;fill-rule:evenodd;stroke-linejoin:round;stroke-miterlimit:2">
      <path
         d="m 5195.29,556.196 -4.66,8.424 z"
         style="fill:#ffffff;fill-rule:nonzero"
         id="path175" />
    </g>
    <g
       transform="matrix(0.10437893,0,0,0.10437893,-529.24601,-44.478351)"
       id="g177"
       style="clip-rule:evenodd;fill-rule:evenodd;stroke-linejoin:round;stroke-miterlimit:2">
      <path
         d="m 5190.63,565.62 c -0.16,0 -0.33,-0.04 -0.48,-0.125 -0.48,-0.267 -0.66,-0.875 -0.39,-1.359 l 4.65,-8.424 c 0.27,-0.483 0.88,-0.661 1.36,-0.391 0.49,0.267 0.66,0.875 0.39,1.359 l -4.65,8.424 c -0.18,0.33 -0.53,0.516 -0.88,0.516 z"
         style="fill-rule:nonzero"
         id="path176" />
    </g>
    <g
       transform="matrix(0.10437893,0,0,0.10437893,-529.24601,-44.478351)"
       id="g178"
       style="clip-rule:evenodd;fill-rule:evenodd;stroke-linejoin:round;stroke-miterlimit:2">
      <path
         d="m 5352.58,465.489 h -43.79 c -0.55,0 -1,-0.448 -1,-1 0,-0.552 0.45,-1 1,-1 h 43.79 c 0.55,0 1,0.448 1,1 0,0.552 -0.45,1 -1,1 z"
         style="fill:#000010;fill-rule:nonzero"
         id="path177" />
    </g>
    <g
       transform="matrix(0.10437893,0,0,0.10437893,-529.24601,-44.478351)"
       id="g179"
       style="clip-rule:evenodd;fill-rule:evenodd;stroke-linejoin:round;stroke-miterlimit:2">
      <path
         d="m 5349.15,473.805 h -40.36 c -0.55,0 -1,-0.448 -1,-1 0,-0.552 0.45,-1 1,-1 h 40.36 c 0.55,0 1,0.448 1,1 0,0.552 -0.45,1 -1,1 z"
         style="fill:#000010;fill-rule:nonzero"
         id="path178" />
    </g>
    <g
       transform="matrix(0.10437893,0,0,0.10437893,-529.24601,-44.478351)"
       id="g180"
       style="clip-rule:evenodd;fill-rule:evenodd;stroke-linejoin:round;stroke-miterlimit:2">
      <rect
         x="5274.6099"
         y="453.39999"
         width="27.719999"
         height="27.721001"
         style="fill:#ffffff;fill-rule:nonzero"
         id="rect179" />
    </g>
    <g
       transform="matrix(0.10437893,0,0,0.10437893,-529.24601,-44.478351)"
       id="g181"
       style="clip-rule:evenodd;fill-rule:evenodd;stroke-linejoin:round;stroke-miterlimit:2">
      <path
         d="m 5275.61,480.121 h 25.72 V 454.4 h -25.72 z m 26.72,2 h -27.72 c -0.55,0 -1,-0.448 -1,-1 V 453.4 c 0,-0.553 0.45,-1 1,-1 h 27.72 c 0.55,0 1,0.447 1,1 v 27.721 c 0,0.552 -0.45,1 -1,1 z"
         style="fill:#000010;fill-rule:nonzero"
         id="path180" />
    </g>
    <g
       transform="matrix(0.10437893,0,0,0.10437893,-529.24601,-44.478351)"
       id="g182"
       style="clip-rule:evenodd;fill-rule:evenodd;stroke-linejoin:round;stroke-miterlimit:2">
      <path
         d="m 5285.51,473.008 c -0.26,0 -0.51,-0.098 -0.71,-0.293 l -4.53,-4.533 c -0.39,-0.391 -0.39,-1.024 0,-1.414 0.39,-0.391 1.02,-0.391 1.41,0 l 3.83,3.826 10.17,-10.172 c 0.39,-0.391 1.02,-0.391 1.41,0 0.4,0.39 0.4,1.023 0,1.414 l -10.88,10.879 c -0.19,0.195 -0.45,0.293 -0.7,0.293 z"
         style="fill:#000010;fill-rule:nonzero"
         id="path181" />
    </g>
    <g
       transform="matrix(0.10437893,0,0,0.10437893,-529.24601,-44.478351)"
       id="g183"
       style="clip-rule:evenodd;fill-rule:evenodd;stroke-linejoin:round;stroke-miterlimit:2">
      <path
         d="m 5352.58,506.059 h -43.79 c -0.55,0 -1,-0.448 -1,-1 0,-0.552 0.45,-1 1,-1 h 43.79 c 0.55,0 1,0.448 1,1 0,0.552 -0.45,1 -1,1 z"
         style="fill:#000010;fill-rule:nonzero"
         id="path182" />
    </g>
    <g
       transform="matrix(0.10437893,0,0,0.10437893,-529.24601,-44.478351)"
       id="g184"
       style="clip-rule:evenodd;fill-rule:evenodd;stroke-linejoin:round;stroke-miterlimit:2">
      <path
         d="m 5349.15,514.375 h -40.36 c -0.55,0 -1,-0.448 -1,-1 0,-0.553 0.45,-1 1,-1 h 40.36 c 0.55,0 1,0.447 1,1 0,0.552 -0.45,1 -1,1 z"
         style="fill:#000010;fill-rule:nonzero"
         id="path183" />
    </g>
    <g
       transform="matrix(0.10437893,0,0,0.10437893,-529.24601,-44.478351)"
       id="g185"
       style="clip-rule:evenodd;fill-rule:evenodd;stroke-linejoin:round;stroke-miterlimit:2">
      <rect
         x="5274.6099"
         y="493.97"
         width="27.719999"
         height="27.721001"
         style="fill:#ffffff;fill-rule:nonzero"
         id="rect184" />
    </g>
    <g
       transform="matrix(0.10437893,0,0,0.10437893,-529.24601,-44.478351)"
       id="g186"
       style="clip-rule:evenodd;fill-rule:evenodd;stroke-linejoin:round;stroke-miterlimit:2">
      <path
         d="m 5275.61,520.691 h 25.72 v -25.722 h -25.72 z m 26.72,2 h -27.72 c -0.55,0 -1,-0.448 -1,-1 v -27.722 c 0,-0.552 0.45,-1 1,-1 h 27.72 c 0.55,0 1,0.448 1,1 v 27.722 c 0,0.552 -0.45,1 -1,1 z"
         style="fill:#000010;fill-rule:nonzero"
         id="path185" />
    </g>
    <g
       transform="matrix(0.10437893,0,0,0.10437893,-529.24601,-44.478351)"
       id="g187"
       style="clip-rule:evenodd;fill-rule:evenodd;stroke-linejoin:round;stroke-miterlimit:2">
      <path
         d="m 5285.51,513.578 c -0.27,0 -0.52,-0.105 -0.71,-0.293 l -4.53,-4.533 c -0.39,-0.391 -0.39,-1.024 0,-1.414 0.39,-0.391 1.02,-0.391 1.41,0 l 3.83,3.826 10.17,-10.173 c 0.39,-0.39 1.02,-0.39 1.41,0 0.4,0.391 0.4,1.024 0,1.414 l -10.88,10.88 c -0.18,0.188 -0.44,0.293 -0.7,0.293 z"
         style="fill:#000010;fill-rule:nonzero"
         id="path186" />
    </g>
    <g
       transform="matrix(0.10437893,0,0,0.10437893,-529.24601,-44.478351)"
       id="g188"
       style="clip-rule:evenodd;fill-rule:evenodd;stroke-linejoin:round;stroke-miterlimit:2">
      <path
         d="m 5352.58,546.629 h -43.79 c -0.55,0 -1,-0.448 -1,-1 0,-0.552 0.45,-1 1,-1 h 43.79 c 0.55,0 1,0.448 1,1 0,0.552 -0.45,1 -1,1 z"
         style="fill:#000010;fill-rule:nonzero"
         id="path187" />
    </g>
    <g
       transform="matrix(0.10437893,0,0,0.10437893,-529.24601,-44.478351)"
       id="g189"
       style="clip-rule:evenodd;fill-rule:evenodd;stroke-linejoin:round;stroke-miterlimit:2">
      <path
         d="m 5349.15,554.944 h -40.36 c -0.55,0 -1,-0.447 -1,-1 0,-0.552 0.45,-1 1,-1 h 40.36 c 0.55,0 1,0.448 1,1 0,0.553 -0.45,1 -1,1 z"
         style="fill:#000010;fill-rule:nonzero"
         id="path188" />
    </g>
    <g
       transform="matrix(0.10437893,0,0,0.10437893,-529.24601,-44.478351)"
       id="g190"
       style="clip-rule:evenodd;fill-rule:evenodd;stroke-linejoin:round;stroke-miterlimit:2">
      <rect
         x="5274.6099"
         y="534.53998"
         width="27.719999"
         height="27.721001"
         style="fill:#ffffff;fill-rule:nonzero"
         id="rect189" />
    </g>
    <g
       transform="matrix(0.10437893,0,0,0.10437893,-529.24601,-44.478351)"
       id="g191"
       style="clip-rule:evenodd;fill-rule:evenodd;stroke-linejoin:round;stroke-miterlimit:2">
      <path
         d="m 5275.61,561.26 h 25.72 v -25.72 h -25.72 z m 26.72,2 h -27.72 c -0.55,0 -1,-0.447 -1,-1 v -27.72 c 0,-0.553 0.45,-1 1,-1 h 27.72 c 0.55,0 1,0.447 1,1 v 27.72 c 0,0.553 -0.45,1 -1,1 z"
         style="fill:#000010;fill-rule:nonzero"
         id="path190" />
    </g>
    <g
       transform="matrix(0.10437893,0,0,0.10437893,-529.24601,-44.478351)"
       id="g192"
       style="clip-rule:evenodd;fill-rule:evenodd;stroke-linejoin:round;stroke-miterlimit:2">
      <path
         d="m 5285.51,554.148 c -0.27,0 -0.52,-0.105 -0.71,-0.293 l -4.53,-4.534 c -0.39,-0.39 -0.39,-1.023 0,-1.414 0.39,-0.39 1.02,-0.39 1.41,0 l 3.83,3.827 10.17,-10.173 c 0.39,-0.39 1.02,-0.39 1.41,0 0.4,0.391 0.4,1.024 0,1.414 l -10.88,10.88 c -0.18,0.188 -0.44,0.293 -0.7,0.293 z"
         style="fill:#000010;fill-rule:nonzero"
         id="path191" />
    </g>
  </g>
</svg>
