<?xml version="1.0" encoding="UTF-8" standalone="no"?>
<!-- Created with Inkscape (http://www.inkscape.org/) -->

<svg
   width="7.0000005mm"
   height="7.000001mm"
   viewBox="0 0 7.0000005 7.000001"
   version="1.1"
   id="svg1"
   xmlns:inkscape="http://www.inkscape.org/namespaces/inkscape"
   xmlns:sodipodi="http://sodipodi.sourceforge.net/DTD/sodipodi-0.dtd"
   xmlns="http://www.w3.org/2000/svg"
   xmlns:svg="http://www.w3.org/2000/svg">
  <sodipodi:namedview
     id="namedview1"
     pagecolor="#ffffff"
     bordercolor="#000000"
     borderopacity="0.25"
     inkscape:showpageshadow="2"
     inkscape:pageopacity="0.0"
     inkscape:pagecheckerboard="0"
     inkscape:deskcolor="#d1d1d1"
     inkscape:document-units="mm" />
  <defs
     id="defs1" />
  <g
     inkscape:label="Layer 1"
     inkscape:groupmode="layer"
     id="layer1"
     transform="translate(-23.812499,-113.77083)">
    <g
       id="layer1-9"
       transform="translate(5.507297,56.282781)">
      <g
         id="g2"
         transform="translate(-8.6178639,0.03314563)">
        <rect
           style="fill:#bced09;fill-opacity:1;stroke-width:2.76368"
           id="rect1"
           width="7"
           height="7"
           x="26.923067"
           y="57.454903" />
        <path
           id="path12"
           style="font-size:48px;font-family:'Gill Sans MT';-inkscape-font-specification:'Gill Sans MT';white-space:pre;fill:#6123c4;stroke-width:8.93858"
           d="m 32.306717,57.927703 c -0.135575,0.04745 -0.257415,0.130334 -0.390674,0.185519 -0.573945,0.268143 -1.200182,0.393556 -1.820044,0.503845 -0.221875,0.07941 0.004,0.267642 0.107487,0.348299 0.46849,0.422182 0.916984,0.879101 1.239201,1.425753 0.05325,0.07205 0.07907,0.194168 0.188102,0.19637 0.123166,0.01663 0.235242,-0.06568 0.266134,-0.183451 0.04371,-0.175537 0.02493,-0.354835 -0.0072,-0.531751 0.318186,0.342746 0.47749,0.766064 0.47749,1.26969 0,0.545703 -0.177768,0.994257 -0.5333,1.345655 -0.351399,0.347264 -0.804087,0.520898 -1.358057,0.520898 -0.558104,0 -1.014926,-0.171567 -1.370459,-0.514697 -0.355534,-0.347265 -0.533301,-0.793754 -0.533301,-1.339453 0,-0.549838 0.173633,-1.002523 0.520899,-1.358057 0.258221,-0.264371 0.570201,-0.430375 0.93586,-0.498161 -0.115792,-0.113789 -0.234314,-0.224491 -0.354501,-0.332796 -0.10348,-0.08066 -0.32936,-0.26889 -0.107487,-0.348299 0.504848,-0.21012 0.955457,-0.178714 1.412317,-0.338997 -0.158114,-0.02138 -0.321651,-0.03204 -0.490926,-0.03204 -0.876428,0 -1.606106,0.279053 -2.189013,0.837158 -0.578776,0.553968 -0.868165,1.248505 -0.868165,2.083594 0,0.826821 0.287324,1.517222 0.861963,2.071191 0.574643,0.549836 1.289847,0.824756 2.145606,0.824756 0.884698,0 1.618505,-0.270787 2.201416,-0.812353 0.582907,-0.545703 0.874365,-1.229902 0.874365,-2.052588 0,-0.84749 -0.287323,-1.550293 -0.861963,-2.108398 -0.142279,-0.139209 -0.293953,-0.2607 -0.454236,-0.365353 0.108479,-0.119657 0.208494,-0.246444 0.282154,-0.390674 0.09749,-0.15092 0.02519,-0.397853 -0.173633,-0.40566 z" />
      </g>
    </g>
  </g>
</svg>
